<svg width="30" height="31" viewBox="0 0 30 31" fill="none" xmlns="http://www.w3.org/2000/svg">
<path opacity="0.3" d="M26.25 9.55566H8.75V20.8057H26.25V9.55566Z" fill="#EC0055"/>
<path d="M3.75 12.0557H1.25V25.8057C1.25 27.1932 2.3625 28.3057 3.75 28.3057H25V25.8057H3.75V12.0557Z" fill="#EC0055"/>
<path d="M22.5 7.05566V4.55566C22.5 3.18066 21.375 2.05566 20 2.05566H15C13.625 2.05566 12.5 3.18066 12.5 4.55566V7.05566H6.25V20.8057C6.25 22.1807 7.375 23.3057 8.75 23.3057H26.25C27.625 23.3057 28.75 22.1807 28.75 20.8057V7.05566H22.5ZM15 4.55566H20V7.05566H15V4.55566ZM26.25 20.8057H8.75V9.55566H26.25V20.8057Z" fill="#EC0055"/>
</svg>
