<svg width="30" height="31" viewBox="0 0 30 31" fill="none" xmlns="http://www.w3.org/2000/svg">
<path d="M16.1125 14.1055C13.8875 13.368 12.8125 12.9055 12.8125 11.7305C12.8125 10.4555 14.2 9.99297 15.075 9.99297C16.7125 9.99297 17.3125 11.2305 17.45 11.668L19.425 10.8305C19.2375 10.268 18.4 8.43047 16.25 8.03047V6.48047H13.75V8.05547C10.65 8.75547 10.6375 11.6305 10.6375 11.7555C10.6375 14.593 13.45 15.393 14.825 15.893C16.8 16.593 17.675 17.2305 17.675 18.4305C17.675 19.843 16.3625 20.443 15.2 20.443C12.925 20.443 12.275 18.1055 12.2 17.8305L10.125 18.668C10.9125 21.4055 12.975 22.143 13.75 22.368V23.9805H16.25V22.4305C16.75 22.318 19.875 21.693 19.875 18.4055C19.875 16.668 19.1125 15.143 16.1125 14.1055ZM3.75 26.4805H1.25V18.9805H8.75V21.4805H5.65C7.6625 24.493 11.1 26.4805 15 26.4805C21.2125 26.4805 26.25 21.443 26.25 15.2305H28.75C28.75 22.8305 22.6 28.9805 15 28.9805C10.35 28.9805 6.2375 26.668 3.75 23.143V26.4805ZM1.25 15.2305C1.25 7.63047 7.4 1.48047 15 1.48047C19.65 1.48047 23.7625 3.79297 26.25 7.31797V3.98047H28.75V11.4805H21.25V8.98047H24.35C22.3375 5.96797 18.9 3.98047 15 3.98047C8.7875 3.98047 3.75 9.01797 3.75 15.2305H1.25Z" fill="#EC0055"/>
</svg>
