<svg width="30" height="31" viewBox="0 0 30 31" fill="none" xmlns="http://www.w3.org/2000/svg">
<g clip-path="url(#clip0_10683_80291)">
<path opacity="0.3" d="M23.75 8.20898H6.25V10.709H23.75V8.20898Z" fill="#EC0055"/>
<path d="M26.25 15.709V8.20898C26.25 6.83398 25.125 5.70898 23.75 5.70898H22.5V3.20898H20V5.70898H10V3.20898H7.5V5.70898H6.25C4.875 5.70898 3.75 6.83398 3.75 8.20898V25.709C3.75 27.084 4.875 28.209 6.25 28.209H15V25.709H6.25V13.209H23.75V15.709H26.25ZM23.75 10.709H6.25V8.20898H23.75V10.709ZM19.55 25.709C20.0875 27.5215 21.7625 28.834 23.75 28.834C26.1625 28.834 28.125 26.8715 28.125 24.459C28.125 22.0465 26.1625 20.084 23.75 20.084C22.5625 20.084 21.475 20.559 20.6875 21.334H22.5V23.209H17.5V18.209H19.375V19.9965C20.5 18.8965 22.05 18.209 23.75 18.209C27.2 18.209 30 21.009 30 24.459C30 27.909 27.2 30.709 23.75 30.709C20.725 30.709 18.2 28.559 17.625 25.709H19.55Z" fill="#EC0055"/>
</g>
<defs>
<clipPath id="clip0_10683_80291">
<rect width="30" height="30" fill="white" transform="translate(0 0.708984)"/>
</clipPath>
</defs>
</svg>
