<svg width="29" height="20" viewBox="0 0 29 20" fill="none" xmlns="http://www.w3.org/2000/svg">
<g clip-path="url(#clip0_10451_77600)">
<path d="M1 1.00049H28V19.0001H1V1.00049Z" fill="white"/>
<path d="M1 1.00049H28V10.0003H1V1.00049Z" fill="#D80027"/>
<path d="M5.40217 5.49987C5.40217 4.18863 6.32376 3.09323 7.55436 2.82445C7.36158 2.78217 7.1648 2.76082 6.96743 2.76074C5.45459 2.76074 4.2283 3.98703 4.2283 5.49982C4.2283 7.01261 5.45464 8.23895 6.96743 8.23895C7.16898 8.23895 7.36521 8.21654 7.55436 8.17525C6.32376 7.90657 5.40217 6.81117 5.40217 5.49987ZM8.92393 2.95644L9.1182 3.55429H9.74685L9.23823 3.9238L9.4325 4.52165L8.92393 4.15219L8.41531 4.52165L8.60963 3.9238L8.10101 3.55429H8.72966L8.92393 2.95644Z" fill="white"/>
<path d="M7.399 4.13037L7.59322 4.72822H8.22187L7.71324 5.09773L7.90752 5.69558L7.399 5.32612L6.89038 5.69558L7.0847 5.09773L6.57608 4.72822H7.20473L7.399 4.13037ZM10.4488 4.13037L10.6431 4.72822H11.2718L10.7631 5.09773L10.9574 5.69558L10.4488 5.32612L9.94027 5.69558L10.1346 5.09773L9.62597 4.72822H10.2546L10.4488 4.13037ZM9.86185 5.89123L10.0561 6.48908H10.6848L10.1762 6.85859L10.3705 7.45644L9.86185 7.08698L9.35334 7.45644L9.54761 6.85859L9.03904 6.48908H9.66763L9.86185 5.89123ZM7.98593 5.89123L8.18015 6.48908H8.8088L8.30023 6.85859L8.4945 7.45644L7.98593 7.08698L7.47736 7.45644L7.67164 6.85859L7.16307 6.48908H7.79166L7.98593 5.89123Z" fill="white"/>
</g>
<rect x="0.5" y="0.5" width="28" height="19" stroke="black" stroke-opacity="0.1"/>
<defs>
<clipPath id="clip0_10451_77600">
<rect x="1" y="1" width="27" height="18" fill="white"/>
</clipPath>
</defs>
</svg>
