<svg width="30" height="31" viewBox="0 0 30 31" fill="none" xmlns="http://www.w3.org/2000/svg">
<path opacity="0.3" d="M11.25 15.8682C12.6307 15.8682 13.75 14.7489 13.75 13.3682C13.75 11.9875 12.6307 10.8682 11.25 10.8682C9.86929 10.8682 8.75 11.9875 8.75 13.3682C8.75 14.7489 9.86929 15.8682 11.25 15.8682Z" fill="#EC0055"/>
<path opacity="0.3" d="M18.1 23.7932C16.6125 23.0307 14.2125 22.1182 11.25 22.1182C8.28749 22.1182 5.88749 23.0307 4.39999 23.7932C3.62499 24.1932 3.74999 24.9682 3.74999 25.8682H18.75C18.75 24.9807 18.8875 24.1932 18.1 23.7932Z" fill="#EC0055"/>
<path d="M26.25 4.61816H3.75C2.375 4.61816 1.25 5.74316 1.25 7.11816V17.1182H3.75V7.11816H26.25V27.1182C27.625 27.1182 28.75 25.9932 28.75 24.6182V7.11816C28.75 5.74316 27.625 4.61816 26.25 4.61816Z" fill="#EC0055"/>
<path d="M16.25 13.3682C16.25 10.6057 14.0125 8.36816 11.25 8.36816C8.4875 8.36816 6.25 10.6057 6.25 13.3682C6.25 16.1307 8.4875 18.3682 11.25 18.3682C14.0125 18.3682 16.25 16.1307 16.25 13.3682ZM8.75 13.3682C8.75 11.9932 9.875 10.8682 11.25 10.8682C12.625 10.8682 13.75 11.9932 13.75 13.3682C13.75 14.7432 12.625 15.8682 11.25 15.8682C9.875 15.8682 8.75 14.7432 8.75 13.3682Z" fill="#EC0055"/>
<path d="M19.2375 21.5682C17.1375 20.4932 14.4125 19.6182 11.25 19.6182C8.0875 19.6182 5.3625 20.4932 3.2625 21.5682C2.0125 22.2057 1.25 23.4932 1.25 24.8932V28.3682H21.25V24.8932C21.25 23.4932 20.4875 22.2057 19.2375 21.5682ZM18.75 25.8682H3.75C3.75 24.9682 3.625 24.1932 4.4 23.7932C5.8875 23.0307 8.2875 22.1182 11.25 22.1182C14.2125 22.1182 16.6125 23.0307 18.1 23.7932C18.8875 24.1932 18.75 24.9807 18.75 25.8682Z" fill="#EC0055"/>
</svg>
