<svg width="20" height="20" viewBox="0 0 20 20" fill="none" xmlns="http://www.w3.org/2000/svg">
<path d="M11.3848 3C12.3848 3 13.3751 3.20693 14.299 3.60896C15.2229 4.011 16.0624 4.60028 16.7696 5.34315C17.4767 6.08602 18.0376 6.96793 18.4203 7.93853C18.803 8.90914 19 9.94943 19 11C19 12.0506 18.803 13.0909 18.4203 14.0615C18.0376 15.0321 17.4767 15.914 16.7696 16.6569C16.0624 17.3997 15.2229 17.989 14.299 18.391C13.3751 18.7931 12.3848 19 11.3848 19C10.3847 19 9.39448 18.7931 8.47056 18.391C7.54663 17.989 6.70714 17.3997 6 16.6569" stroke="black" stroke-opacity="0.38" stroke-width="2" stroke-linecap="square" stroke-linejoin="round"/>
</svg>
