<svg width="16" height="18" viewBox="0 0 16 18" fill="none" xmlns="http://www.w3.org/2000/svg">
<path d="M10.83 2.82973L8.7 0.699727C8.08 0.0797271 7 0.519727 7 1.40973V2.06973C3.06 2.55973 0 5.91973 0 9.99973C0 13.6397 2.43 16.7097 5.77 17.6797C6.39 17.8597 7 17.3597 7 16.7197V16.6897C7 16.2597 6.73 15.8697 6.32 15.7497C3.82 15.0297 2 12.7297 2 9.99973C2 7.02973 4.16 4.56973 7 4.08973V5.61973C7 6.50973 8.07 6.94973 8.7 6.32973L10.83 4.24973C11.23 3.86973 11.23 3.22973 10.83 2.82973ZM15.67 7.75973C15.51 7.20973 15.29 6.67973 15.01 6.16973C14.7 5.59973 13.91 5.50973 13.45 5.96973L13.44 5.97973C13.13 6.28973 13.06 6.75973 13.27 7.13973C13.47 7.50973 13.63 7.89973 13.75 8.29973C13.87 8.71973 14.26 8.99973 14.69 8.99973H14.71C15.36 8.99973 15.86 8.37973 15.67 7.75973ZM9 16.6797V16.6997C9 17.3497 9.62 17.8397 10.24 17.6597C10.79 17.4997 11.32 17.2797 11.83 16.9997C12.4 16.6897 12.49 15.8997 12.03 15.4397L12.01 15.4197C11.7 15.1097 11.23 15.0397 10.85 15.2497C10.48 15.4597 10.09 15.6197 9.69 15.7397C9.28 15.8597 9 16.2497 9 16.6797ZM13.44 14.0297C13.9 14.4897 14.69 14.3997 15 13.8297C15.28 13.3197 15.5 12.7897 15.67 12.2397C15.85 11.6197 15.36 10.9997 14.71 10.9997H14.69C14.25 10.9997 13.87 11.2797 13.75 11.6997C13.63 12.0997 13.47 12.4897 13.27 12.8697C13.06 13.2497 13.14 13.7297 13.44 14.0297Z" fill="#FD5C48"/>
</svg>
