<svg width="30" height="31" viewBox="0 0 30 31" fill="none" xmlns="http://www.w3.org/2000/svg">
<path opacity="0.3" d="M15 5.96777C9.475 5.96777 5 10.4428 5 15.9678C5 21.4928 9.475 25.9678 15 25.9678C20.525 25.9678 25 21.4928 25 15.9678C25 10.4428 20.525 5.96777 15 5.96777ZM20.3125 21.1553L13.75 17.2178V9.71777H15.625V16.2803L21.25 19.6178L20.3125 21.1553Z" fill="#EC0055"/>
<path d="M14.9875 3.46777C8.0875 3.46777 2.5 9.06777 2.5 15.9678C2.5 22.8678 8.0875 28.4678 14.9875 28.4678C21.9 28.4678 27.5 22.8678 27.5 15.9678C27.5 9.06777 21.9 3.46777 14.9875 3.46777ZM15 25.9678C9.475 25.9678 5 21.4928 5 15.9678C5 10.4428 9.475 5.96777 15 5.96777C20.525 5.96777 25 10.4428 25 15.9678C25 21.4928 20.525 25.9678 15 25.9678ZM15.625 9.71777H13.75V17.2178L20.3125 21.1553L21.25 19.6178L15.625 16.2803V9.71777Z" fill="#EC0055"/>
</svg>
