<?xml version="1.0" standalone="no"?>
<!DOCTYPE svg PUBLIC "-//W3C//DTD SVG 1.1//EN" "http://www.w3.org/Graphics/SVG/1.1/DTD/svg11.dtd" >
<svg xmlns="http://www.w3.org/2000/svg" xmlns:xlink="http://www.w3.org/1999/xlink" version="1.1">
<metadata>
Created by FontForge 20170731 at Tue Oct 11 08:21:42 2022
 By Aleksey,,,
Copyright (c) 2012 by Glenjan. All rights reserved.
</metadata>
<defs>
<font id="EchoesSans-Medium" horiz-adv-x="1259" >
  <font-face 
    font-family="Echoes Sans"
    font-weight="500"
    font-stretch="normal"
    units-per-em="2048"
    panose-1="2 0 5 6 0 0 0 2 0 4"
    ascent="1536"
    descent="-512"
    x-height="1024"
    cap-height="1229"
    bbox="-358 -547 3645 1776"
    underline-thickness="102"
    underline-position="-307"
    unicode-range="U+0020-FB04"
  />
<missing-glyph horiz-adv-x="952" 
d="M477 457q55 0 85.5 4.5t74.5 21.5l25 -63q-53 -21 -90.5 -29t-92.5 -8q-109 0 -168 41q-57 42 -57 106q0 38 19.5 66.5t54.5 40.5v8q-22 9 -34.5 30t-12.5 46q0 60 45 90q50 37 151 37q85 0 170 -35l-26 -61q-67 22 -140 22q-32 0 -52.5 -2.5t-39 -15.5t-18.5 -37
q0 -51 67 -51h152v-72h-166q-80 0 -80 -64q0 -34 27 -51q31 -24 106 -24zM786 616q0 151 -79 236q-81 84 -228 84q-160 0 -235 -84q-80 -80 -80 -236q0 -142 74 -225q86 -92 241 -92q158 0 236 88q71 80 71 229zM86 614q0 182 104 289t287 107q170 0 277 -99
q112 -106 112 -297q0 -163 -92 -272q-98 -121 -297 -121q-184 0 -284 105q-107 110 -107 288z" />
    <glyph glyph-name="i_j" unicode="ij" horiz-adv-x="1009" 
d="M641 -6v1030h252v-1030q0 -170 -98 -279q-112 -118 -326 -118q-103 0 -180.5 21.5t-169.5 70.5l71 170q76 -33 133 -45.5t130 -12.5q96 0 147 58q41 47 41 135zM766 1440q75 0 118.5 -40.5t43.5 -101.5q0 -59 -43.5 -99t-118.5 -40q-74 0 -118 40t-44 99q0 61 44 101.5
t118 40.5zM45 858v166h371v-1024h-252v842zM289 1440q76 0 120 -40.5t44 -101.5q0 -59 -44 -99t-120 -40q-74 0 -118 40t-44 99q0 61 44 101.5t118 40.5z" />
    <glyph glyph-name="l_j" unicode="lj" horiz-adv-x="995" 
d="M621 -6v1030h251v-1030q0 -172 -96 -279q-112 -118 -325 -118q-104 0 -182.5 21.5t-168.5 70.5l72 170q76 -33 132.5 -45.5t129.5 -12.5q98 0 146 58q41 47 41 135zM748 1440q75 0 118 -40.5t43 -101.5q0 -60 -43 -99.5t-118 -39.5q-74 0 -118 40t-44 99q0 61 44 101.5
t118 40.5zM27 1171v160h368v-1331h-252v1149z" />
    <glyph glyph-name="ff" unicode="ff" horiz-adv-x="1550" 
d="M657 1444q215 0 369 -94q118 94 291 94q221 0 391 -115l-86 -155q-136 71 -268 71q-115 0 -162 -53q-41 -44 -41 -129v-39h352v-178l-352 -17v-829h-254v827h-405v-827h-254v827h-175v170l175 19v53q0 173 124 281q112 94 295 94zM897 1069q0 71 27 129q-108 47 -230 47
q-115 0 -162 -53q-40 -43 -40 -129v-39h405v45z" />
    <glyph glyph-name="fi" unicode="fi" horiz-adv-x="1267" 
d="M657 1444q234 0 404 -115l-86 -155q-136 71 -281 71q-115 0 -162 -53q-40 -43 -40 -129v-39h649v-1024h-252v842l-62 8l-335 -21v-829h-254v827h-175v170l175 19v53q0 173 124 281q112 94 295 94z" />
    <glyph glyph-name="fl" unicode="fl" horiz-adv-x="1265" 
d="M664 1444q134 0 248 -33t229 -104v-1307h-252v1210q-96 35 -195 35q-115 0 -162 -53q-40 -43 -40 -129v-39h319v-176l-319 -19v-829h-254v827h-175v170l175 19v53q3 145 88 242q57 63 145 98t193 35z" />
    <glyph glyph-name="ffi" unicode="ffi" horiz-adv-x="1902" 
d="M1317 1444q237 0 416 -113l-86 -157q-136 71 -293 71q-115 0 -162 -53q-41 -44 -41 -129v-39h649v-1024h-252v842l-51 4l-346 -17v-829h-254v827h-405v-827h-254v827h-175v170l175 19v53q0 173 124 281q112 94 295 94q215 0 369 -94q118 94 291 94zM897 1069q0 71 27 129
q-108 47 -230 47q-115 0 -162 -53q-40 -43 -40 -129v-39h405v45z" />
    <glyph glyph-name="ffl" unicode="ffl" horiz-adv-x="1925" 
d="M657 1444q215 0 369 -94q121 94 297 94q134 0 248 -33t229 -104v-1307h-252v1210q-96 35 -194 35q-115 0 -162 -53q-41 -44 -41 -129v-39h319v-176l-319 -19v-829h-254v827h-405v-827h-254v827h-175v170l175 19v53q0 173 124 281q112 94 295 94zM897 1069q0 71 27 129
q-108 47 -230 47q-115 0 -162 -53q-40 -43 -40 -129v-39h405v45z" />
    <glyph glyph-name="f_f_j" unicode="ffj" horiz-adv-x="1927" 
d="M657 1444q215 0 369 -94q118 94 291 94q238 0 416 -113l-86 -157q-136 71 -293 71q-115 0 -162 -53q-41 -44 -41 -129v-39h649v-1030q0 -170 -98 -279q-112 -118 -326 -118q-103 0 -180.5 21.5t-169.5 70.5l76 168q75 -32 129.5 -44t128.5 -12q96 0 147 58q41 47 41 135
v848l-51 4l-346 -17v-829h-254v827h-405v-827h-254v827h-175v170l175 19v53q0 173 124 281q112 94 295 94zM897 1069q0 71 27 129q-108 47 -230 47q-115 0 -162 -53q-40 -43 -40 -129v-39h405v45z" />
    <glyph glyph-name="f_j" unicode="fj" horiz-adv-x="1267" 
d="M657 1444q222 0 392 -115l-86 -155q-136 71 -269 71q-115 0 -162 -53q-40 -43 -40 -129v-39h649v-1030q0 -169 -99 -279q-112 -118 -325 -118q-103 0 -180.5 21.5t-169.5 70.5l71 170q76 -33 132.5 -45.5t129.5 -12.5q97 0 148 58q41 47 41 135v848l-62 8l-335 -21v-829
h-254v827h-175v170l175 19v53q0 173 124 281q112 94 295 94z" />
    <glyph glyph-name="i_l" unicode="il" horiz-adv-x="1015" 
d="M641 1331h252v-1331h-252v1331zM45 1024h371v-1024h-252v842l-119 16v166zM289 1440q76 0 120 -40.5t44 -101.5q0 -59 -44 -99t-120 -40q-74 0 -118 40t-44 99q0 61 44 101.5t118 40.5z" />
    <glyph glyph-name="i_l_l" unicode="ill" horiz-adv-x="1490" 
d="M641 1331h252v-1331h-252v1331zM45 1024h371v-1024h-252v842l-119 16v166zM289 1440q76 0 120 -40.5t44 -101.5q0 -59 -44 -99t-120 -40q-74 0 -118 40t-44 99q0 61 44 101.5t118 40.5zM1118 1331h252v-1331h-252v1331z" />
    <glyph glyph-name="j_l" unicode="jl" horiz-adv-x="1011" 
d="M641 0v1331h252v-1331h-252zM45 858v166h371v-1030q0 -169 -99 -279q-112 -118 -325 -118q-103 0 -180.5 21.5t-169.5 70.5l71 170q76 -33 132.5 -45.5t129.5 -12.5q97 0 148 58q41 47 41 135v848zM289 1440q75 0 118.5 -40.5t43.5 -101.5q0 -59 -43.5 -99t-118.5 -40
q-74 0 -118 40t-44 99q0 61 44 101.5t118 40.5z" />
    <glyph glyph-name="l_l" unicode="ll" horiz-adv-x="995" 
d="M621 0v1331h251v-1331h-251zM27 1171v160h368v-1331h-252v1149z" />
    <glyph glyph-name="l_i" unicode="li" horiz-adv-x="993" 
d="M621 0v1024h251v-1024h-251zM748 1440q76 0 119.5 -40.5t43.5 -101.5q0 -59 -44 -99t-119 -40q-74 0 -118 40t-44 99q0 61 44 101.5t118 40.5zM27 1171v160h368v-1331h-252v1149z" />
    <glyph glyph-name="l_l_i" unicode="lli" horiz-adv-x="1460" 
d="M1090 1024h251v-1024h-251v1024zM1217 1440q76 0 119.5 -40.5t43.5 -101.5q0 -59 -44 -99t-119 -40q-74 0 -118 40t-44 99q0 61 44 101.5t118 40.5zM616 1331h252v-1331h-252v1331zM27 1331h368v-1331h-252v1149l-116 22v160z" />
    <glyph glyph-name="j_i" unicode="ji" horiz-adv-x="1009" 
d="M641 0v1024h252v-1024h-252zM766 1440q76 0 120 -40.5t44 -101.5q0 -59 -44 -99t-120 -40q-74 0 -118 40t-44 99q0 61 44 101.5t118 40.5zM45 858v166h371v-1030q0 -169 -99 -279q-112 -118 -325 -118q-103 0 -180.5 21.5t-169.5 70.5l71 170q76 -33 132.5 -45.5
t129.5 -12.5q97 0 148 58q41 47 41 135v848zM289 1440q75 0 118.5 -40.5t43.5 -101.5q0 -59 -43.5 -99t-118.5 -40q-74 0 -118 40t-44 99q0 61 44 101.5t118 40.5z" />
    <glyph glyph-name="j_i_l" unicode="jil" horiz-adv-x="1486" 
d="M1118 0v1331h252v-1331h-252zM641 0v1024h252v-1024h-252zM766 1440q76 0 120 -40.5t44 -101.5q0 -59 -44 -99t-120 -40q-74 0 -118 40t-44 99q0 61 44 101.5t118 40.5zM45 858v166h371v-1030q0 -169 -99 -279q-112 -118 -325 -118q-103 0 -180.5 21.5t-169.5 70.5
l71 170q76 -33 132.5 -45.5t129.5 -12.5q97 0 148 58q41 47 41 135v848zM289 1440q75 0 118.5 -40.5t43.5 -101.5q0 -59 -43.5 -99t-118.5 -40q-74 0 -118 40t-44 99q0 61 44 101.5t118 40.5z" />
    <glyph glyph-name="j_i_l_l" unicode="jill" horiz-adv-x="1966" 
d="M1118 1331h252v-1331h-252v1331zM641 1024h252v-1024h-252v1024zM766 1440q76 0 120 -40.5t44 -101.5q0 -59 -44 -99t-120 -40q-74 0 -118 40t-44 99q0 61 44 101.5t118 40.5zM1595 1331h252v-1331h-252v1331zM45 1024h371v-1030q0 -169 -99 -279q-112 -118 -325 -118
q-103 0 -180.5 21.5t-169.5 70.5l71 170q76 -33 132.5 -45.5t129.5 -12.5q97 0 148 58q41 47 41 135v848l-119 16v166zM289 1440q75 0 118.5 -40.5t43.5 -101.5q0 -59 -43.5 -99t-118.5 -40q-74 0 -118 40t-44 99q0 61 44 101.5t118 40.5z" />
    <glyph glyph-name="i_i" unicode="ii" horiz-adv-x="1011" 
d="M641 0v1024h252v-1024h-252zM766 1440q76 0 120 -40.5t44 -101.5q0 -59 -44 -99t-120 -40q-74 0 -118 40t-44 99q0 61 44 101.5t118 40.5zM45 858v166h371v-1024h-252v842zM289 1440q76 0 120 -40.5t44 -101.5q0 -59 -44 -99t-120 -40q-74 0 -118 40t-44 99
q0 61 44 101.5t118 40.5z" />
    <glyph glyph-name="afii10103_afii10104" unicode="&#x456;&#x457;" horiz-adv-x="1011" 
d="M641 0v1024h252v-1024h-252zM535 1440q76 0 119.5 -40.5t43.5 -101.5q0 -59 -44 -99t-119 -40q-74 0 -118 40t-44 99q0 61 44 101.5t118 40.5zM45 858v166h371v-1024h-252v842zM125 1440q76 0 120 -40.5t44 -101.5q0 -59 -44 -99t-120 -40q-73 0 -117.5 40t-44.5 99
q0 60 44.5 101t117.5 41zM944 1440q76 0 120 -40.5t44 -101.5q0 -59 -44 -99t-120 -40q-74 0 -118 40t-44 99q0 61 44 101.5t118 40.5z" />
    <glyph glyph-name="i_l_l_i" unicode="illi" horiz-adv-x="1964" 
d="M45 1024h369v-1024h-252v840q-78 12 -117 16v168zM287 1440q77 0 120.5 -41.5t43.5 -102.5q0 -58 -44 -98.5t-120 -40.5q-74 0 -118 40.5t-44 98.5q0 61 44 102.5t118 41.5zM639 0v1331h252v-1331h-252zM1593 0v1024h252v-1024h-252zM1116 0v1331h252v-1331h-252z
M1712 1440q77 0 120.5 -41.5t43.5 -102.5q0 -58 -44 -98.5t-120 -40.5q-74 0 -118 40.5t-44 98.5q0 61 44 102.5t118 41.5z" />
    <glyph glyph-name=".notdef" horiz-adv-x="952" 
d="M477 457q55 0 85.5 4.5t74.5 21.5l25 -63q-53 -21 -90.5 -29t-92.5 -8q-109 0 -168 41q-57 42 -57 106q0 38 19.5 66.5t54.5 40.5v8q-22 9 -34.5 30t-12.5 46q0 60 45 90q50 37 151 37q85 0 170 -35l-26 -61q-67 22 -140 22q-32 0 -52.5 -2.5t-39 -15.5t-18.5 -37
q0 -51 67 -51h152v-72h-166q-80 0 -80 -64q0 -34 27 -51q31 -24 106 -24zM786 616q0 151 -79 236q-81 84 -228 84q-160 0 -235 -84q-80 -80 -80 -236q0 -142 74 -225q86 -92 241 -92q158 0 236 88q71 80 71 229zM86 614q0 182 104 289t287 107q170 0 277 -99
q112 -106 112 -297q0 -163 -92 -272q-98 -121 -297 -121q-184 0 -284 105q-107 110 -107 288z" />
    <glyph glyph-name=".null" horiz-adv-x="0" 
 />
    <glyph glyph-name="nonmarkingreturn" horiz-adv-x="682" 
 />
    <glyph glyph-name="space" unicode=" " horiz-adv-x="475" 
 />
    <glyph glyph-name="exclam" unicode="!" horiz-adv-x="487" 
d="M129 1331h227v-289l-18 -682h-188l-21 682v289zM244 264q69 0 108 -38.5t39 -98.5q0 -63 -39 -101t-108 -38t-108.5 38t-39.5 101q0 60 39.5 98.5t108.5 38.5z" />
    <glyph glyph-name="quotedbl" unicode="&#x22;" horiz-adv-x="606" 
d="M119 897l-25 332h185l-11 -332h-149zM338 897l-10 332h184l-25 -332h-149z" />
    <glyph glyph-name="numbersign" unicode="#" horiz-adv-x="1036" 
d="M248 256l16 176h-168v137h180l13 125h-191v140h203l18 200l162 -12l-18 -188h125l18 200l162 -12l-18 -188h190v-140h-205l-12 -125h215v-137h-227l-17 -190l-159 14l16 176h-125l-16 -190zM451 694l-13 -125h125l12 125h-124z" />
    <glyph glyph-name="dollar" unicode="$" horiz-adv-x="1335" 
d="M715 -182h-203l-8 164q-218 12 -426 88l57 196q241 -71 471 -71q209 0 305 49q78 40 78 121q0 57 -37 84q-46 38 -166 55l-315 43q-187 26 -287 104q-106 82 -106 234q0 168 125 256q115 85 332 104l8 154h202l7 -150q208 -8 419 -90l-69 -188q-116 39 -213 55t-213 16
q-199 0 -279 -45q-57 -31 -57 -86q0 -53 41 -80q41 -29 139 -43l314 -47q236 -33 335 -129q91 -88 91 -239q0 -189 -158 -289q-132 -86 -381 -102z" />
    <glyph glyph-name="uni0025" unicode="%" horiz-adv-x="1439" 
d="M313 61l676 992l135 -88l-669 -996zM354 455q-128 0 -213 82q-86 80 -86 211q0 130 86 213q84 81 213 81q141 0 224 -92q79 -82 79 -202q0 -121 -79 -203q-87 -90 -224 -90zM492 748q0 64 -35 102q-37 43 -103 43q-57 0 -96 -39q-39 -42 -39 -106q0 -59 35 -97
q37 -47 100 -47t101 41q37 40 37 103zM1081 -23q-127 0 -215 82q-84 84 -84 211q0 130 86 213q85 82 213 82q140 0 224 -90q79 -85 79 -205q0 -121 -79 -200q-86 -93 -224 -93zM1219 270q0 63 -35 101q-39 45 -103 45q-63 0 -96 -39q-39 -42 -39 -107q0 -60 33 -96
q39 -45 102 -45t101 41q37 40 37 100z" />
    <glyph glyph-name="ampersand" unicode="&#x26;" horiz-adv-x="1495" 
d="M639 -23q-132 0 -244.5 36t-187.5 106q-121 111 -121 289q0 106 39 188q45 88 133 149q-72 84 -72 193q0 152 129 236q125 77 322 77q294 0 479 -127l-94 -155q-160 86 -385 86q-107 0 -162 -37q-45 -28 -45 -82q0 -66 62 -111l501 -376q20 39 29 88q12 50 12 112
l-141 17v147h518v-156l-143 -18q-6 -101 -23 -180q-19 -86 -57 -158l74 -57q60 -47 141 -62l35 -6l-31 -176h-39q-81 0 -136.5 17t-111.5 55l-69 49q-77 -68 -166 -103q-106 -41 -246 -41zM627 174q67 0 135 21q62 18 115 65l-455 340q-43 -28 -66 -82q-18 -44 -18 -100
q0 -96 63 -162q76 -82 226 -82z" />
    <glyph glyph-name="quotesingle" unicode="'" horiz-adv-x="423" 
d="M131 897l-25 332h211l-24 -332h-162z" />
    <glyph glyph-name="parenleft" unicode="(" horiz-adv-x="512" 
d="M471 1241q-143 -279 -143 -637q0 -348 143 -627l-190 -88q-92 134 -141.5 321.5t-49.5 393.5q0 207 50 400t141 325z" />
    <glyph glyph-name="parenright" unicode=")" horiz-adv-x="512" 
d="M41 -23q143 285 143 637q0 342 -143 627l190 88q91 -132 141 -320.5t50 -394.5q0 -207 -50 -400t-141 -325z" />
    <glyph glyph-name="asterisk" unicode="*" horiz-adv-x="645" 
d="M455 1270l-62 -140l148 17l28 -23v-100l-28 -18l-148 12l64 -137l-8 -35l-97 -31l-30 21l-35 147l-115 -98l-39 -2l-57 82l12 34l131 76l-129 80l-8 35l57 80h35l113 -103l35 148l28 18l92 -30z" />
    <glyph glyph-name="plus" unicode="+" horiz-adv-x="804" 
d="M66 764h237v240h195v-240h241v-195h-241v-239h-195v239h-237v195z" />
    <glyph glyph-name="comma" unicode="," horiz-adv-x="487" 
d="M244 264q69 0 108 -38.5t39 -100.5q0 -30 -12 -70l-103 -260l-114 25l26 172q-44 10 -68 45.5t-24 87.5q0 62 39.5 100.5t108.5 38.5z" />
    <glyph glyph-name="hyphen" unicode="-" horiz-adv-x="706" 
d="M66 635h575v-195h-575v195z" />
    <glyph glyph-name="period" unicode="." horiz-adv-x="487" 
d="M244 264q69 0 108 -38.5t39 -98.5q0 -63 -39 -101t-108 -38t-108.5 38t-39.5 101q0 60 39.5 98.5t108.5 38.5z" />
    <glyph glyph-name="slash" unicode="/" horiz-adv-x="667" 
d="M-6 2l483 1296l197 -65l-486 -1299z" />
    <glyph glyph-name="zero" unicode="0" horiz-adv-x="1308" 
d="M336 616q0 -245 94 -350q77 -90 225 -90q157 0 236 98q82 106 82 342q0 247 -90 347q-78 90 -228 90q-153 0 -231 -90q-88 -109 -88 -347zM1233 616q0 -291 -141 -458q-155 -181 -437 -181q-265 0 -417 162q-162 168 -162 477q0 294 149 463q152 172 430 172
q275 0 428 -172q150 -170 150 -463z" />
    <glyph glyph-name="one" unicode="1" horiz-adv-x="827" 
d="M129 891l-59 164l385 190l125 -18v-1039l157 -18v-170h-612v168l201 20v781z" />
    <glyph glyph-name="two" unicode="2" horiz-adv-x="1179" 
d="M102 0v182l574 422q87 62 125 115q43 62 43 141q0 92 -78 139q-74 48 -197 48q-114 0 -212 -27.5t-199 -91.5l-90 174q121 82 239 115.5t275 33.5q229 0 366 -100q146 -102 146 -287q0 -128 -66 -225q-56 -80 -190 -176l-373 -260h618v-203h-981z" />
    <glyph glyph-name="three" unicode="3" horiz-adv-x="1208" 
d="M573 184q154 0 238 72q66 60 66 145q0 76 -41 123q-50 56 -152 56h-391v192h352q75 0 117 37q39 33 39 98t-58 107q-61 39 -194 39q-105 0 -190.5 -19t-180.5 -71l-90 161q111 70 223 98.5t256 28.5q230 0 361 -88q127 -87 127 -243q0 -70 -35 -129q-28 -51 -80 -86v-9
q91 -39 137 -104q56 -80 56 -191q0 -173 -129 -286q-167 -138 -431 -138q-161 0 -283 37t-235 115l101 174q112 -68 204 -93.5t213 -25.5z" />
    <glyph glyph-name="four" unicode="4" horiz-adv-x="1253" 
d="M70 190v177l632 862h203l45 -41l-577 -795h458v299l191 86h57v-385h113v-203h-113v-190h-248v190h-761z" />
    <glyph glyph-name="five" unicode="5" horiz-adv-x="1198" 
d="M559 182q165 0 242 74q67 64 67 162q0 109 -71 168q-76 61 -234 61q-88 0 -153 -14.5t-146 -46.5l-121 61v582h885v-189h-655v-231q116 37 243 37q232 0 371 -115q135 -110 135 -311q0 -195 -147 -320q-148 -123 -400 -123q-169 0 -283.5 35t-236.5 119l101 172
q100 -67 191.5 -94t211.5 -27z" />
    <glyph glyph-name="six" unicode="6" horiz-adv-x="1232" 
d="M647 838q238 0 369 -103q141 -109 141 -315q0 -180 -127 -301q-75 -69 -180.5 -105.5t-224.5 -36.5q-286 0 -424 183q-125 158 -125 442q0 329 186 506q152 143 397 143q249 0 426 -104l-86 -174q-158 76 -329 76q-150 0 -232 -76q-74 -71 -94 -197q124 62 303 62z
M625 176q144 0 217 76q63 69 63 168q0 96 -55 151q-65 68 -215 68q-173 0 -303 -55v-21q0 -173 61 -272q72 -115 232 -115z" />
    <glyph glyph-name="seven" unicode="7" horiz-adv-x="1157" 
d="M66 842v387h1036v-174q-196 -196 -301 -385q-101 -176 -178 -459l-58 -211h-264l78 272q65 229 178 433q81 153 223 321h-497l-33 -184h-184z" />
    <glyph glyph-name="eight" unicode="8" horiz-adv-x="1284" 
d="M641 -23q-144 0 -257 30.5t-179 86.5q-133 112 -133 291q0 121 71 205q49 60 146 100q-63 46 -86 96q-33 64 -33 132q0 163 131 249q124 84 340 84q219 0 348 -80q121 -80 121 -229q0 -81 -37 -137q-37 -60 -82 -86q109 -48 162 -121q59 -80 59 -199q0 -195 -137 -303
q-154 -119 -434 -119zM420 924q0 -67 37 -99q50 -47 184 -47q65 0 129 -6q46 19 70 62q22 42 22 90q0 66 -47 102q-59 41 -174 41q-109 0 -164 -35q-57 -37 -57 -108zM641 588q-108 0 -164 10q-81 -35 -117 -80q-38 -50 -38 -131q0 -91 61 -143q78 -70 258 -70q94 0 153 15
t103 51q61 52 61 147q0 99 -69 150q-75 51 -248 51z" />
    <glyph glyph-name="nine" unicode="9" horiz-adv-x="1232" 
d="M586 391q-238 0 -373 107q-137 108 -137 311q0 194 149 317q146 125 385 125q273 0 414 -166q133 -158 133 -458q0 -338 -194 -510q-152 -140 -396 -140q-248 0 -426 105l84 178q160 -80 332 -80q151 0 234 74q75 69 98 199q-124 -62 -303 -62zM610 1049q-150 0 -219 -72
q-63 -66 -63 -168q0 -92 55 -147q69 -72 215 -72q176 0 303 55v21q0 207 -82 301q-70 82 -209 82z" />
    <glyph glyph-name="colon" unicode=":" horiz-adv-x="487" 
d="M244 264q69 0 108 -38.5t39 -98.5q0 -63 -39 -101t-108 -38t-108.5 38t-39.5 101q0 60 39.5 98.5t108.5 38.5zM244 862q69 0 108 -38.5t39 -98.5q0 -63 -39 -101t-108 -38t-108.5 38t-39.5 101q0 60 39.5 98.5t108.5 38.5z" />
    <glyph glyph-name="semicolon" unicode=";" horiz-adv-x="487" 
d="M244 264q69 0 108 -38.5t39 -100.5q0 -30 -12 -70l-103 -260l-114 25l26 172q-44 10 -68 45.5t-24 87.5q0 62 39.5 100.5t108.5 38.5zM244 862q69 0 108 -38.5t39 -98.5q0 -63 -39 -101t-108 -38t-108.5 38t-39.5 101q0 60 39.5 98.5t108.5 38.5z" />
    <glyph glyph-name="less" unicode="&#x3c;" horiz-adv-x="708" 
d="M524 989l97 -129l-281 -227l283 -234l-97 -131l-460 324v76z" />
    <glyph glyph-name="equal" unicode="=" horiz-adv-x="761" 
d="M66 598h630v-176h-630v176zM66 879h630v-177h-630v177z" />
    <glyph glyph-name="greater" unicode="&#x3e;" horiz-adv-x="708" 
d="M184 268l-96 129l281 228l-283 233l96 131l461 -325v-76z" />
    <glyph glyph-name="question" unicode="?" horiz-adv-x="1243" 
d="M625 424l-2 -88h-222v110q0 123 57 191.5t179 99.5l47 11q121 26 168 67q51 45 51 121q0 94 -65 143q-82 60 -279 60q-228 0 -442 -127l-101 172q131 83 261 121t288 38q309 0 465 -118q131 -100 131 -279q0 -163 -100 -260q-86 -81 -260 -125l-88 -20q-48 -11 -68 -40.5
t-20 -76.5zM516 264q69 0 108.5 -38.5t39.5 -98.5q0 -63 -39.5 -101t-108.5 -38q-68 0 -107.5 38.5t-39.5 100.5q0 60 39.5 98.5t107.5 38.5z" />
    <glyph glyph-name="at" unicode="@" horiz-adv-x="1525" 
d="M971 236q-96 -84 -232 -84q-145 0 -233 88q-49 44 -76 112t-27 146q0 142 86 231q44 47 108 73.5t138 26.5q117 0 209 -57l31 37l119 -8v-402q0 -39 14 -61q21 -31 59 -31q42 0 66 35q35 47 35 170q0 204 -103 319q-126 144 -383 144q-210 0 -346 -111
q-162 -132 -162 -364q0 -219 136 -346q132 -129 366 -129q205 0 373 47l37 -144q-194 -75 -410 -75q-318 0 -510 174q-190 169 -190 473q0 150 58 273.5t161 211.5q194 164 487 164q158 0 291 -51t225 -148q154 -167 154 -438q0 -161 -82 -252q-79 -98 -203 -98
q-128 0 -196 74zM905 637q-61 43 -145 43q-79 0 -121 -45q-47 -50 -47 -143q0 -87 45 -138q46 -49 127 -49q80 0 149 57q-8 27 -8 60v215z" />
    <glyph glyph-name="A" unicode="A" horiz-adv-x="1509" 
d="M606 1229h297l551 -1229h-276l-88 201h-676l-88 -201h-271zM737 983l-235 -577h499l-237 577h-27z" />
    <glyph glyph-name="B" unicode="B" horiz-adv-x="1337" 
d="M821 0h-694v1229h666q202 0 309 -96q94 -84 94 -218q0 -85 -41 -153q-29 -47 -86 -86v-10q77 -36 125 -97q68 -83 68 -194q0 -158 -121 -266q-125 -109 -320 -109zM1006 381q0 75 -43 121q-53 53 -144 53h-430v-352h426q94 0 146 55q45 45 45 123zM936 889q0 63 -41 98
q-42 39 -113 39h-393v-278h410q62 0 102 43q35 41 35 98z" />
    <glyph glyph-name="C" unicode="C" horiz-adv-x="1316" 
d="M76 614q0 312 209 478q196 159 499 159q263 0 455 -98l-78 -180q-184 71 -360 71q-103 0 -191.5 -29.5t-144.5 -84.5q-123 -114 -123 -316q0 -174 104 -290q57 -65 152 -102.5t203 -37.5q100 0 183 17.5t179 56.5l78 -176q-200 -105 -455 -105q-329 0 -530 189
q-180 169 -180 448z" />
    <glyph glyph-name="D" unicode="D" horiz-adv-x="1370" 
d="M127 1229h506q326 0 487 -148q174 -162 174 -467q0 -304 -172 -464q-156 -150 -489 -150h-506v1229zM1030 614q0 215 -94 312q-90 96 -291 96h-256v-815h281q174 0 262 88q98 98 98 319z" />
    <glyph glyph-name="E" unicode="E" horiz-adv-x="1251" 
d="M127 0v1229h1012v-207h-750v-279h668v-204h-668v-332h776v-207h-1038z" />
    <glyph glyph-name="F" unicode="F" horiz-adv-x="1187" 
d="M127 1229h985v-207h-719v-307h641v-205h-641v-510h-266v1229z" />
    <glyph glyph-name="G" unicode="G" horiz-adv-x="1425" 
d="M756 553v174h553v-727h-183l-41 78q-159 -101 -366 -101q-303 0 -477 183q-166 174 -166 454q0 286 203 467q189 170 516 170q264 0 465 -106l-74 -174q-194 78 -391 78q-194 0 -318 -105q-135 -114 -135 -330q0 -172 86 -286q49 -67 128 -105.5t181 -38.5q159 0 316 74
v274z" />
    <glyph glyph-name="H" unicode="H" horiz-adv-x="1411" 
d="M1022 1229h262v-1229h-262v551h-633v-551h-262v1229h262v-469h633v469z" />
    <glyph glyph-name="I" unicode="I" horiz-adv-x="516" 
d="M127 1229h262v-1229h-262v1229z" />
    <glyph glyph-name="J" unicode="J" horiz-adv-x="1085" 
d="M696 1229h262v-729q0 -258 -149 -391q-150 -132 -422 -132q-187 0 -350 72l63 182q129 -47 273 -47q175 0 250 84q73 82 73 236v725z" />
    <glyph glyph-name="K" unicode="K" horiz-adv-x="1378" 
d="M127 1229h266v-471h273l338 471h299l-424 -565l444 -664h-305l-352 553h-273v-553h-266v1229z" />
    <glyph glyph-name="L" unicode="L" horiz-adv-x="1196" 
d="M393 203h727v-203h-993v1229h266v-1026z" />
    <glyph glyph-name="M" unicode="M" horiz-adv-x="1761" 
d="M127 1229h383l371 -971l374 971h379v-1229h-256v918h-12l-356 -918h-275l-354 918h-12v-918h-242v1229z" />
    <glyph glyph-name="N" unicode="N" horiz-adv-x="1425" 
d="M1047 1229h251v-1229h-245l-674 852v-852h-252v1229h244l676 -844v844z" />
    <glyph glyph-name="O" unicode="O" horiz-adv-x="1456" 
d="M1116 614q0 215 -106 330q-105 105 -281 105q-181 0 -280 -107q-107 -110 -107 -328q0 -202 92 -313q100 -121 295 -121q196 0 295 123q92 115 92 311zM76 614q0 290 176 463q177 174 477 174q138 0 257.5 -41.5t205.5 -119.5q188 -167 188 -476q0 -274 -149 -440
q-178 -197 -502 -197q-302 0 -473 168q-180 166 -180 469z" />
    <glyph glyph-name="P" unicode="P" horiz-adv-x="1300" 
d="M713 332h-322v-332h-264v1229h608q107 0 200.5 -33.5t158.5 -97.5q131 -121 131 -318q0 -186 -123 -309q-139 -136 -389 -139zM956 780q0 111 -55 172q-68 74 -190 74h-320v-491h303q123 0 191 65q71 62 71 180z" />
    <glyph glyph-name="Q" unicode="Q" horiz-adv-x="1462" 
d="M1192 -190q-85 0 -150 32q-74 39 -139 125l-18 27q-87 -17 -154 -17q-279 0 -457 152q-92 85 -145 209.5t-53 275.5q0 300 192 473q178 164 463 164q284 0 461 -166q93 -84 143.5 -204.5t50.5 -266.5q0 -233 -118 -393q-50 -75 -146 -137l17 -18q28 -38 59 -52
q32 -14 72 -14q35 0 55 2l25 -170q-86 -22 -158 -22zM1120 614q0 214 -104 324q-97 111 -285 111q-184 0 -287 -115q-102 -114 -102 -320q0 -193 92 -311q107 -123 297 -123q184 0 289 111q100 112 100 323z" />
    <glyph glyph-name="R" unicode="R" horiz-adv-x="1312" 
d="M127 1229h616q230 0 365 -129q119 -119 119 -303q0 -147 -103 -271q-60 -73 -166 -118l252 -408h-284l-209 365h-324v-365h-266v1229zM961 801q0 104 -58 162q-60 63 -172 63h-338v-457h334q110 0 174 64q60 63 60 168z" />
    <glyph glyph-name="S" unicode="S" horiz-adv-x="1327" 
d="M78 885q0 168 125 256q146 110 461 110q148 0 258 -20t241 -72l-69 -188q-118 39 -210.5 55t-207.5 16q-199 0 -279 -45q-57 -31 -57 -86q0 -52 39 -80q43 -33 141 -47l305 -47q239 -38 330 -129q96 -96 96 -235q0 -189 -157 -289q-168 -107 -476 -107q-278 0 -540 93
l57 196q241 -71 471 -71q203 0 301 49q78 41 78 121q0 36 -14 61t-44 40.5t-61.5 23.5t-81.5 16l-313 43q-190 27 -287 102q-106 82 -106 234z" />
    <glyph glyph-name="T" unicode="T" horiz-adv-x="1312" 
d="M55 1026v203h1202v-203h-469v-1026h-266v1026h-467z" />
    <glyph glyph-name="U" unicode="U" horiz-adv-x="1402" 
d="M127 532v697h266v-705q0 -164 84 -254q80 -86 225 -86q154 0 230 82q82 88 82 258v705h262v-697q0 -263 -156 -409q-155 -146 -420 -146q-256 0 -409 138q-161 145 -164 417z" />
    <glyph glyph-name="V" unicode="V" horiz-adv-x="1460" 
d="M881 0h-306l-520 1229h281l387 -967h25l385 967h272z" />
    <glyph glyph-name="W" unicode="W" horiz-adv-x="2064" 
d="M55 1229h277l274 -971h23l258 971h305l262 -971h21l272 971h260l-379 -1229h-346l-240 893h-18l-244 -893h-340z" />
    <glyph glyph-name="X" unicode="X" horiz-adv-x="1398" 
d="M383 1229l315 -447l301 447h299l-424 -592l469 -637h-307l-344 492l-340 -492h-297l463 633l-438 596h303z" />
    <glyph glyph-name="Y" unicode="Y" horiz-adv-x="1441" 
d="M854 0h-264v291l-535 938h293l369 -697h12l371 697h286l-532 -934v-295z" />
    <glyph glyph-name="Z" unicode="Z" horiz-adv-x="1210" 
d="M1145 209v-209h-1079v168l735 860l-269 -6h-432v207h1030v-156l-735 -872l250 8h500z" />
    <glyph glyph-name="bracketleft" unicode="[" horiz-adv-x="540" 
d="M348 1190v-1139h144v-186h-365v1511h365v-186h-144z" />
    <glyph glyph-name="backslash" unicode="\" horiz-adv-x="667" 
d="M190 1298l484 -1298l-197 -66l-483 1299z" />
    <glyph glyph-name="bracketright" unicode="]" horiz-adv-x="540" 
d="M193 51v1139h-144v186h365v-1511h-365v186h144z" />
    <glyph glyph-name="asciicircum" unicode="^" horiz-adv-x="792" 
d="M727 885l-109 -92l-223 221l-221 -221l-108 92l299 366h63z" />
    <glyph glyph-name="underscore" unicode="_" horiz-adv-x="718" 
d="M25 -57h669v-176h-669v176z" />
    <glyph glyph-name="grave" unicode="`" horiz-adv-x="512" 
d="M291 1489l119 -305l-148 -68l-160 283z" />
    <glyph glyph-name="a" unicode="a" horiz-adv-x="1257" 
d="M1122 690v-395q0 -78 10 -132t37 -120l-141 -59q-65 46 -104 108q-174 -110 -369 -110q-234 0 -354 88q-125 94 -125 270q0 175 153 270q133 80 334 80q162 0 307 -37v52q0 65 -57 98q-66 43 -231 43q-180 0 -365 -55l-45 167q117 46 220 65t235 19q269 0 389 -104
q106 -89 106 -248zM559 498q-102 0 -166 -41q-61 -38 -61 -115q0 -73 55 -115q63 -47 195 -47q153 0 288 66v233q-170 19 -311 19z" />
    <glyph glyph-name="b" unicode="b" horiz-adv-x="1320" 
d="M127 0v1331h252v-379q142 90 321 90q267 0 414 -153q131 -140 131 -377q0 -246 -149 -389q-147 -141 -396 -141q-219 0 -350 110l-33 -92h-190zM682 184q133 0 221 82q90 93 90 248q0 154 -80 240q-86 92 -243 92q-163 0 -291 -101v-469q73 -49 141.5 -70.5t161.5 -21.5z
" />
    <glyph glyph-name="c" unicode="c" horiz-adv-x="1132" 
d="M1053 971l-62 -172q-154 47 -311 47q-171 0 -260 -86q-90 -87 -90 -244q0 -158 92 -244q91 -88 258 -88q158 0 313 52l62 -181q-171 -73 -393 -73q-278 0 -422 135q-164 149 -164 395q0 245 168 393q149 137 418 137q219 0 391 -71z" />
    <glyph glyph-name="d" unicode="d" horiz-adv-x="1320" 
d="M971 92q-137 -110 -363 -110q-236 0 -379 131q-155 142 -155 399q0 238 141 379q148 151 414 151q171 0 313 -90v379h252v-1331h-190zM942 274v474q-124 98 -287 98q-152 0 -237 -82q-90 -90 -90 -250q0 -168 94 -256q80 -74 211 -74q93 0 165.5 21t143.5 69z" />
    <glyph glyph-name="e" unicode="e" 
d="M631 1042q260 0 397 -131q160 -147 160 -411v-88h-846q11 -92 78 -156q42 -40 113.5 -60t152.5 -20q191 0 344 51l51 -168q-175 -77 -401 -77q-135 0 -252 36t-188 101q-164 148 -164 393q0 234 151 379q158 151 404 151zM635 848q-136 0 -215 -76q-66 -63 -84 -170h594
q-12 117 -84 180q-72 66 -211 66z" />
    <glyph glyph-name="f" unicode="f" horiz-adv-x="903" 
d="M657 1444q222 0 392 -115l-86 -155q-136 71 -269 71q-115 0 -162 -53q-40 -43 -40 -129v-39h352v-178l-352 -17v-829h-254v827h-175v170l175 19v53q0 173 124 281q112 94 295 94z" />
    <glyph glyph-name="g" unicode="g" horiz-adv-x="1320" 
d="M643 -403q-145 0 -258 27t-231 89l65 172q198 -82 410 -82q169 0 243 68q70 64 70 174v25q-134 -88 -313 -88q-261 0 -406 139q-147 141 -147 391q0 240 141 381q149 149 393 149q117 0 203 -26.5t158 -87.5l37 96h186v-918q0 -249 -145 -382q-139 -127 -406 -127z
M645 840q-140 0 -223 -80q-94 -91 -94 -250q0 -163 90 -250q85 -82 239 -82q160 0 285 98v476q-72 48 -138 68t-159 20z" />
    <glyph glyph-name="h" unicode="h" horiz-adv-x="1302" 
d="M127 1331h254v-389q136 100 321 100q230 0 347 -108q133 -120 133 -365v-569h-254v557q0 150 -66 219q-69 66 -194 66q-159 0 -287 -97v-745h-254v1331z" />
    <glyph glyph-name="i" unicode="i" horiz-adv-x="542" 
d="M45 858v166h371v-1024h-252v842zM289 1440q76 0 120 -40.5t44 -101.5q0 -59 -44 -99t-120 -40q-74 0 -118 40t-44 99q0 61 44 101.5t118 40.5z" />
    <glyph glyph-name="j" unicode="j" horiz-adv-x="542" 
d="M45 858v166h371v-1030q0 -169 -99 -279q-112 -118 -325 -118q-103 0 -180.5 21.5t-169.5 70.5l71 170q76 -33 132.5 -45.5t129.5 -12.5q97 0 148 58q41 47 41 135v848zM289 1440q75 0 118.5 -40.5t43.5 -101.5q0 -59 -43.5 -99t-118.5 -40q-74 0 -118 40t-44 99
q0 61 44 101.5t118 40.5z" />
    <glyph glyph-name="k" unicode="k" horiz-adv-x="1247" 
d="M127 1331h252v-682h272l252 375h281l-324 -467l338 -557h-280l-263 451h-276v-451h-252v1331z" />
    <glyph glyph-name="l" unicode="l" horiz-adv-x="522" 
d="M27 1171v160h368v-1331h-252v1149z" />
    <glyph glyph-name="m" unicode="m" horiz-adv-x="1998" 
d="M127 1024h188l33 -94q134 112 318 112q143 0 223 -38q65 -25 137 -101q158 139 385 139q213 0 328 -100q139 -127 139 -385v-557h-252v569q0 157 -70 224q-54 51 -170 51q-80 0 -143.5 -25t-126.5 -80q23 -82 23 -182v-557h-252v569q0 152 -66 215q-60 60 -180 60
q-78 0 -138.5 -22.5t-123.5 -73.5v-748h-252v1024z" />
    <glyph glyph-name="n" unicode="n" horiz-adv-x="1302" 
d="M127 1024h188l33 -94q143 112 344 112q242 0 361 -110q129 -123 129 -363v-569h-254v557q0 152 -66 221q-63 66 -194 66q-87 0 -153.5 -21.5t-133.5 -72.5v-750h-254v1024z" />
    <glyph glyph-name="o" unicode="o" horiz-adv-x="1271" 
d="M635 1042q242 0 397 -139q164 -148 164 -391t-164 -391q-155 -139 -397 -139q-239 0 -397 139q-162 146 -162 391t162 391q158 139 397 139zM635 846q-138 0 -223 -88q-82 -88 -82 -246t82 -246q85 -88 223 -88q141 0 223 88q84 87 84 246t-84 246q-82 88 -223 88z" />
    <glyph glyph-name="p" unicode="p" horiz-adv-x="1314" 
d="M127 1024h190l33 -92q135 110 359 110q235 0 378 -131q152 -142 152 -399q0 -242 -141 -383q-150 -147 -404 -147q-173 0 -315 90v-379h-252v1331zM680 846q-92 0 -159.5 -22t-141.5 -72v-473q121 -95 293 -95q140 0 219 76q96 90 96 252q0 164 -86 250q-81 84 -221 84z
" />
    <glyph glyph-name="q" unicode="q" horiz-adv-x="1320" 
d="M1194 1024v-1331h-252v377q-139 -88 -319 -88q-263 0 -408 145q-139 139 -139 385q0 226 133 369q148 161 407 161q224 0 355 -110l33 92h190zM637 846q-144 0 -227 -96q-80 -86 -80 -236q0 -168 90 -252q78 -78 231 -78q164 0 291 97v473q-72 48 -142.5 70t-162.5 22z
" />
    <glyph glyph-name="r" unicode="r" horiz-adv-x="1136" 
d="M127 1024h188l33 -94q133 112 332 112q119 0 211 -27t180 -89l-115 -172q-128 88 -288 88q-165 0 -289 -94v-748h-252v1024z" />
    <glyph glyph-name="s" unicode="s" horiz-adv-x="1177" 
d="M1040 961l-61 -170q-171 55 -379 55q-164 0 -229 -33q-47 -26 -47 -68q0 -44 34 -65q33 -22 99 -29l266 -24q184 -18 276 -88q103 -79 103 -209q0 -162 -125 -250q-139 -98 -447 -98q-240 0 -452 88l59 180q191 -72 381 -72q186 0 260 35q76 29 76 100q0 48 -39 72
q-40 26 -131 35l-278 26q-163 14 -252 93q-78 72 -78 194q0 72 35 132t100 100q129 77 389 77q235 0 440 -81z" />
    <glyph glyph-name="t" unicode="t" horiz-adv-x="972" 
d="M45 827v170l180 17l31 252h215v-242h418v-176l-418 -19v-471q0 -76 37 -122q45 -48 141 -48q134 0 269 58l61 -156q-87 -57 -176 -82.5t-205 -25.5q-198 0 -293 102q-86 92 -86 264v479h-174z" />
    <glyph glyph-name="u" unicode="u" horiz-adv-x="1302" 
d="M1176 0h-189l-35 94q-139 -112 -344 -112q-233 0 -346 102q-141 116 -141 371v569h254v-557q0 -156 67 -223q64 -64 191 -64q88 0 155 21.5t134 72.5v750h254v-1024z" />
    <glyph glyph-name="v" unicode="v" horiz-adv-x="1300" 
d="M483 0l-428 1024h275l305 -799h45l303 799h262l-430 -1024h-332z" />
    <glyph glyph-name="w" unicode="w" horiz-adv-x="1875" 
d="M55 1024h264l240 -799h19l204 799h314l223 -799h18l232 799h252l-330 -1024h-336l-215 756h-10l-203 -756h-342z" />
    <glyph glyph-name="x" unicode="x" horiz-adv-x="1271" 
d="M338 0h-283l353 541l-326 483h293l233 -379h64l227 379h285l-324 -483l357 -541h-291l-260 426h-70z" />
    <glyph glyph-name="y" unicode="y" horiz-adv-x="1304" 
d="M510 0l-469 1024h272l344 -797h31l307 797h267l-482 -1151q-48 -113 -133 -166q-68 -45 -184 -45q-75 0 -146 27l25 168q79 -9 92 -9q49 0 78 23q40 25 55 80l21 49h-78z" />
    <glyph glyph-name="z" unicode="z" horiz-adv-x="1116" 
d="M92 821v203h948v-133l-620 -688h620v-203h-964v141l606 680h-590z" />
    <glyph glyph-name="braceleft" unicode="{" horiz-adv-x="595" 
d="M481 1198q-37 0 -55 -19t-18 -61v-319q0 -130 -82 -185v-6q82 -55 82 -182v-322q0 -77 73 -77h82v-179h-114q-115 0 -189 66t-74 190v340q0 38 -19 59t-52 21h-58v178h58q32 0 51.5 21t19.5 55v340q0 126 74 192t189 66h114v-178h-82z" />
    <glyph glyph-name="bar" unicode="|" horiz-adv-x="415" 
d="M127 1331h162v-1638h-162v1638z" />
    <glyph glyph-name="braceright" unicode="}" horiz-adv-x="595" 
d="M115 27q75 0 75 79v322q0 123 78 180v10q-78 52 -78 181v321q0 78 -75 78h-82v178h114q115 0 189 -66t74 -190v-340q0 -37 19.5 -58.5t53.5 -21.5h56v-178h-56q-34 0 -53.5 -20.5t-19.5 -55.5v-340q0 -126 -73.5 -192t-189.5 -66h-114v179h82z" />
    <glyph glyph-name="asciitilde" unicode="~" horiz-adv-x="860" 
d="M422 535q-5 2 -21 7.5t-21 7t-18 5.5t-20 5.5t-18.5 3.5t-22 2.5t-22.5 0.5q-82 0 -132 -41l-71 138q90 79 203 79q71 0 153 -28q82 -31 154 -31q69 0 131 41l61 -139q-96 -80 -203 -80q-71 0 -153 29z" />
    <glyph glyph-name="exclamdown" unicode="&#xa1;" horiz-adv-x="487" 
d="M307 -102h-227v288l18 682h189l20 -682v-288zM193 965q-69 0 -108.5 38.5t-39.5 98.5q0 63 39.5 101t108.5 38t108 -38t39 -101q0 -60 -39 -98.5t-108 -38.5z" />
    <glyph glyph-name="cent" unicode="&#xa2;" horiz-adv-x="1132" 
d="M563 1174h189l6 -136q162 -12 295 -67l-62 -172q-154 47 -311 47q-172 0 -258 -80q-92 -86 -92 -250q0 -148 84 -235q94 -97 266 -97q156 0 311 52l62 -181q-125 -54 -293 -67l-8 -160h-191l-8 162q-198 21 -313 127q-164 151 -164 395q0 243 162 393q116 107 315 131z
" />
    <glyph glyph-name="currency" unicode="&#xa4;" horiz-adv-x="927" 
d="M207 961l88 -87q70 39 168 39q93 0 166 -39l86 84l116 -110l-79 -84q45 -76 45 -172q0 -90 -45 -172l79 -82l-114 -117l-88 88q-68 -39 -166 -39q-101 0 -168 37l-88 -88l-113 119l80 82q-43 73 -43 172t43 172l-80 82zM627 594q0 76 -46 120t-120 44q-72 0 -119 -42.5
t-47 -121.5q0 -80 47 -125t119 -45q73 0 119.5 44.5t46.5 125.5z" />
    <glyph glyph-name="yen" unicode="&#xa5;" horiz-adv-x="1441" 
d="M315 514l142 10l-402 705h293l369 -697h12l371 697h286l-401 -705l145 -10v-137h-815v137zM315 309h815v-137l-276 -12v-160h-264v162l-275 10v137z" />
    <glyph glyph-name="brokenbar" unicode="&#xa6;" horiz-adv-x="415" 
d="M127 1331h162v-778h-162v778zM127 471h162v-778h-162v778z" />
    <glyph glyph-name="section" unicode="&#xa7;" horiz-adv-x="1052" 
d="M881 1239l-56 -160q-146 51 -278 51q-120 0 -164 -28q-35 -18 -35 -60t31 -67q28 -22 90 -33l174 -35q173 -31 258 -116q76 -79 76 -193q0 -73 -41 -141q-31 -60 -90 -101q72 -63 72 -170q0 -124 -107 -206q-108 -82 -301 -82q-206 0 -369 82l64 155q137 -47 305 -47
q93 0 141 29q37 26 37 71q0 25 -11.5 42.5t-33 27.5t-38.5 14.5t-42 8.5l-147 26q-171 28 -262 115q-78 78 -78 192q0 91 43 158q36 55 96 90q-78 69 -78 178q0 138 109 203q102 70 289 70q198 0 346 -74zM375 774q-36 -25 -53 -53q-21 -35 -21 -74q0 -55 27 -90
q35 -40 123 -59l153 -25q52 -10 82 -22q21 19 43 55q21 40 21 80q0 64 -41 94q-40 36 -140 53l-118 23q-37 5 -76 18z" />
    <glyph glyph-name="dieresis" unicode="&#xa8;" horiz-adv-x="868" 
d="M225 1389q63 0 99 -35t36 -92q0 -54 -36 -88.5t-99 -34.5q-61 0 -96 34.5t-35 88.5q0 57 34.5 92t96.5 35zM639 1389q63 0 99 -35t36 -92q0 -54 -36 -88.5t-99 -34.5q-60 0 -95.5 34.5t-35.5 88.5q0 56 35 91.5t96 35.5z" />
    <glyph glyph-name="copyright" unicode="&#xa9;" horiz-adv-x="1380" 
d="M926 842l-47 -129q-91 30 -174 30q-73 0 -117 -38q-47 -44 -47 -121q0 -74 45 -119q42 -39 119 -39q87 0 174 31l47 -129q-107 -52 -221 -52q-143 0 -236 84q-94 87 -94 224q0 139 94 223q90 84 236 84q113 0 221 -49zM1126 582q0 200 -120 323q-111 117 -316 117
q-188 0 -305 -111q-133 -120 -133 -329q0 -184 113 -306q58 -62 142 -96.5t183 -34.5q210 0 320 113q116 122 116 324zM690 -20q-141 0 -263 51.5t-204 144.5q-149 165 -149 404q0 261 166 432q80 83 196 127.5t254 44.5q274 0 447 -168q81 -79 125.5 -191t44.5 -245
t-45 -246t-129 -193q-80 -77 -194 -119t-249 -42z" />
    <glyph glyph-name="ordfeminine" unicode="&#xaa;" horiz-adv-x="733" 
d="M498 1194l20 37h109v-387q0 -72 30 -133l-94 -43q-31 19 -47 49q-83 -51 -168 -51q-120 0 -186 55q-96 78 -96 229q0 142 77 219q73 70 207 70q83 0 148 -45zM477 1079q-62 29 -123 29q-67 0 -98 -39q-37 -40 -37 -115q0 -76 35 -114q35 -41 108 -41q63 0 115 35v245z
" />
    <glyph glyph-name="guillemotleft" unicode="&#xab;" horiz-adv-x="821" 
d="M66 586v65l288 293l92 -78l-184 -241l184 -248l-92 -78zM643 299l-289 287v65l289 293l92 -78l-184 -241l184 -248z" />
    <glyph glyph-name="logicalnot" unicode="&#xac;" horiz-adv-x="768" 
d="M526 446l-12 193h-448v195h636v-388h-176z" />
    <glyph glyph-name="uni00AD" unicode="&#xad;" horiz-adv-x="706" 
d="M66 635h575v-195h-575v195z" />
    <glyph glyph-name="registered" unicode="&#xae;" horiz-adv-x="849" 
d="M424 549q-151 0 -246 92q-102 91 -102 258q0 153 100 250q99 96 248 96q152 0 252 -94q98 -98 98 -252q0 -142 -88 -240q-96 -110 -262 -110zM668 899q0 109 -64 176q-66 72 -180 72q-110 0 -174 -64q-70 -67 -70 -184q0 -108 60 -174q66 -76 184 -76q111 0 182 74
q62 68 62 176zM522 844l60 -113h-101l-45 92h-61v-92h-86v342h155q63 0 101 -35q35 -35 35 -90q0 -30 -15 -57q-13 -24 -43 -47zM375 989v-82h69q20 0 33 13q12 12 12 28q0 19 -10 29q-12 12 -35 12h-69z" />
    <glyph glyph-name="macron" unicode="&#xaf;" horiz-adv-x="841" 
d="M102 1303h637v-154h-637v154z" />
    <glyph glyph-name="degree" unicode="&#xb0;" horiz-adv-x="714" 
d="M358 645q-134 0 -217 80q-86 83 -86 215q0 133 88 215q82 82 215 82q136 0 222 -86q79 -82 79 -211t-75 -207q-82 -88 -226 -88zM504 942q0 65 -39 107q-42 36 -107 36q-67 0 -108 -41q-37 -37 -37 -102q0 -68 41 -106q39 -39 104 -39q71 0 109 41q37 37 37 104z" />
    <glyph glyph-name="plusminus" unicode="&#xb1;" horiz-adv-x="804" 
d="M90 399h625v-182h-625v182zM66 877h243v239h183v-239h247v-183h-247v-239h-183v239h-243v183z" />
    <glyph glyph-name="twosuperior" unicode="&#xb2;" horiz-adv-x="593" 
d="M291 815h231v-113h-446v105l252 176q67 47 67 94q0 34 -18 47q-24 21 -80 21q-59 0 -98.5 -10.5t-92.5 -42.5l-51 96q111 72 242 72q118 0 178 -54q49 -46 49 -129q0 -59 -32.5 -103t-92.5 -83z" />
    <glyph glyph-name="threesuperior" unicode="&#xb3;" horiz-adv-x="606" 
d="M516 1106q0 -50 -35 -82q70 -46 70 -135q0 -76 -55 -131q-72 -66 -199 -66q-72 0 -126.5 17t-115.5 63l56 88q90 -53 186 -53q63 0 96 24q29 22 29 56q0 59 -70 59h-182v107h170q22 0 35.5 12t13.5 33q0 26 -28.5 37.5t-65.5 11.5q-89 0 -176 -41l-43 90q102 64 225 64
q54 0 100 -13t80.5 -49.5t34.5 -91.5z" />
    <glyph glyph-name="acute" unicode="&#xb4;" horiz-adv-x="512" 
d="M102 1184l119 305l189 -90l-160 -283z" />
    <glyph glyph-name="mu" unicode="&#xb5;" horiz-adv-x="1292" 
d="M1165 0h-190l-29 111q-60 -60 -144 -93.5t-179 -33.5q-98 0 -162 34q-58 28 -101 84l-6 -4l29 -342l-39 -35h-217v1264l39 39h213v-543q0 -132 63 -209q63 -90 191 -90q82 0 146 29.5t134 95.5v717h252v-1024z" />
    <glyph glyph-name="paragraph" unicode="&#xb6;" horiz-adv-x="997" 
d="M424 1229h512l6 -82l-119 -21l-49 -4v-993q0 -186 -24 -303l-7 -29l-63 -20l-27 14v1325h-108v-1061q0 -195 -25 -303l-6 -28l-63 -21l-27 14v813q-152 0 -248 93q-100 97 -100 258q0 149 92 247q98 101 256 101z" />
    <glyph glyph-name="periodcentered" unicode="&#xb7;" horiz-adv-x="487" 
d="M244 772q69 0 108 -38.5t39 -98.5q0 -63 -39 -101t-108 -38t-108.5 38t-39.5 101q0 60 39.5 98.5t108.5 38.5z" />
    <glyph glyph-name="cedilla" unicode="&#xb8;" horiz-adv-x="514" 
d="M178 31h135l-4 -101q63 -3 101 -39q41 -41 41 -102q0 -49 -26.5 -91t-71.5 -71.5t-92.5 -49.5t-100.5 -34l-33 103q80 25 119 59q43 37 43 82q0 21 -13 31t-38 10h-39l-21 18v185z" />
    <glyph glyph-name="onesuperior" unicode="&#xb9;" horiz-adv-x="440" 
d="M178 809v291l-78 -25l-34 99l178 86l65 -13v-438l66 -10v-97h-283v97z" />
    <glyph glyph-name="ordmasculine" unicode="&#xba;" horiz-adv-x="598" 
d="M184 977q0 -101 45 -141q32 -29 84 -29t84 29q45 40 45 141q0 107 -47 143q-28 25 -82 25q-52 0 -82 -27q-47 -37 -47 -141zM571 977q0 -175 -110 -246q-59 -39 -148 -39q-86 0 -145 39q-113 73 -113 246t113 246q56 37 145 37q93 0 148 -39q110 -69 110 -244z" />
    <glyph glyph-name="guillemotright" unicode="&#xbb;" horiz-adv-x="821" 
d="M756 657v-65l-287 -293l-94 78l186 241l-186 248l94 78zM180 944l287 -287v-65l-287 -293l-94 78l186 241l-186 248z" />
    <glyph glyph-name="questiondown" unicode="&#xbf;" horiz-adv-x="1243" 
d="M541 846l2 88h221v-111q0 -123 -57 -191.5t-179 -99.5l-47 -10q-121 -26 -168 -67q-51 -45 -51 -121q0 -94 66 -144q81 -59 278 -59q229 0 443 127l100 -172q-131 -84 -261.5 -122t-287.5 -38q-308 0 -465 119q-131 100 -131 279q0 163 100 260q86 80 261 125l88 20
q48 11 68 40.5t20 76.5zM649 1006q-69 0 -108 38.5t-39 98.5q0 63 39 101t108 38q68 0 108 -38.5t40 -100.5q0 -60 -40 -98.5t-108 -38.5z" />
    <glyph glyph-name="Agrave" unicode="&#xc0;" horiz-adv-x="1509" 
d="M606 1229h297l551 -1229h-276l-88 201h-676l-88 -201h-271zM737 983l-235 -577h499l-237 577h-27zM717 1690l133 -318l-160 -69l-166 296z" />
    <glyph glyph-name="Aacute" unicode="&#xc1;" horiz-adv-x="1509" 
d="M606 1229h297l551 -1229h-276l-88 201h-676l-88 -201h-271zM737 983l-235 -577h499l-237 577h-27zM668 1372l133 318l192 -91l-166 -296z" />
    <glyph glyph-name="Acircumflex" unicode="&#xc2;" horiz-adv-x="1509" 
d="M606 1229h297l551 -1229h-276l-88 201h-676l-88 -201h-271zM737 983l-235 -577h499l-237 577h-27zM535 1307l-84 100l268 256h63l271 -256l-84 -100l-217 157z" />
    <glyph glyph-name="Atilde" unicode="&#xc3;" horiz-adv-x="1509" 
d="M606 1229h297l551 -1229h-276l-88 201h-676l-88 -201h-271zM737 983l-235 -577h499l-237 577h-27zM739 1370q-84 37 -161 37q-84 0 -142 -43l-69 115q112 100 229 100q73 0 158 -31q89 -39 172 -39q76 0 139 43l72 -114q-100 -103 -222 -103q-89 0 -176 35z" />
    <glyph glyph-name="Adieresis" unicode="&#xc4;" horiz-adv-x="1509" 
d="M606 1229h297l551 -1229h-276l-88 201h-676l-88 -201h-271zM737 983l-235 -577h499l-237 577h-27zM528 1614q70 0 111 -40.5t41 -103.5q0 -60 -41 -99.5t-111 -39.5q-69 0 -109 39.5t-40 99.5q0 63 40 103.5t109 40.5zM977 1614q71 0 111 -40t40 -104q0 -61 -40 -100
t-111 -39q-69 0 -109.5 39.5t-40.5 99.5q0 63 40.5 103.5t109.5 40.5z" />
    <glyph glyph-name="Aring" unicode="&#xc5;" horiz-adv-x="1509" 
d="M606 1229h297l551 -1229h-276l-88 201h-676l-88 -201h-271zM737 983l-235 -577h499l-237 577h-27zM754 1305q-108 0 -174 63q-68 68 -68 172q0 103 70 170q69 66 172 66q107 0 176 -72q65 -65 65 -164q0 -104 -63 -164q-65 -71 -178 -71zM858 1540q0 47 -29 76
q-29 26 -75 26q-53 0 -78 -28q-29 -20 -29 -74q0 -45 31 -76q29 -26 76 -26q50 0 80 30q24 21 24 72z" />
    <glyph glyph-name="AE" unicode="&#xc6;" horiz-adv-x="2166" 
d="M1042 0v270h-579l-146 -270h-268l680 1229h1325v-207h-749v-279h665v-204h-665v-332h776v-207h-1039zM862 1022l-301 -551h481v551h-180z" />
    <glyph glyph-name="Ccedilla" unicode="&#xc7;" horiz-adv-x="1316" 
d="M76 614q0 312 209 478q196 159 499 159q263 0 455 -98l-78 -180q-184 71 -360 71q-103 0 -191.5 -29.5t-144.5 -84.5q-123 -114 -123 -316q0 -174 104 -290q57 -65 152 -102.5t203 -37.5q100 0 183 17.5t179 56.5l78 -176q-200 -105 -455 -105h-24l-2 -45q68 0 110 -36
q41 -41 41 -105q0 -86 -86 -149q-79 -59 -215 -86l-32 98q83 21 124 53q48 33 48 82q0 22 -15 31q-10 10 -37 10h-47l-20 18v142q-225 35 -375 176q-180 169 -180 448z" />
    <glyph glyph-name="Egrave" unicode="&#xc8;" horiz-adv-x="1251" 
d="M127 0v1229h1012v-207h-750v-279h668v-204h-668v-332h776v-207h-1038zM612 1690l133 -318l-159 -69l-166 296z" />
    <glyph glyph-name="Eacute" unicode="&#xc9;" horiz-adv-x="1251" 
d="M127 0v1229h1012v-207h-750v-279h668v-204h-668v-332h776v-207h-1038zM549 1372l133 318l192 -91l-165 -296z" />
    <glyph glyph-name="Ecircumflex" unicode="&#xca;" horiz-adv-x="1251" 
d="M127 0v1229h1012v-207h-750v-279h668v-204h-668v-332h776v-207h-1038zM449 1307l-84 100l268 256h63l271 -256l-84 -100l-217 157z" />
    <glyph glyph-name="Edieresis" unicode="&#xcb;" horiz-adv-x="1251" 
d="M127 0v1229h1012v-207h-750v-279h668v-204h-668v-332h776v-207h-1038zM399 1614q70 0 111 -40.5t41 -103.5q0 -60 -41 -99.5t-111 -39.5q-69 0 -109 39.5t-40 99.5q0 63 40 103.5t109 40.5zM848 1614q71 0 111 -40t40 -104q0 -61 -40 -100t-111 -39q-69 0 -109.5 39.5
t-40.5 99.5q0 63 40.5 103.5t109.5 40.5z" />
    <glyph glyph-name="Igrave" unicode="&#xcc;" horiz-adv-x="516" 
d="M127 1229h262v-1229h-262v1229zM250 1690l133 -318l-160 -69l-166 296z" />
    <glyph glyph-name="Iacute" unicode="&#xcd;" horiz-adv-x="516" 
d="M127 1229h262v-1229h-262v1229zM127 1372l133 318l193 -91l-166 -296z" />
    <glyph glyph-name="Icircumflex" unicode="&#xce;" horiz-adv-x="516" 
d="M127 1229h262v-1229h-262v1229zM43 1307l-84 100l268 256h64l270 -256l-84 -100l-217 157z" />
    <glyph glyph-name="Idieresis" unicode="&#xcf;" horiz-adv-x="516" 
d="M127 1229h262v-1229h-262v1229zM35 1614q70 0 110.5 -40.5t40.5 -103.5q0 -60 -40.5 -99.5t-110.5 -39.5q-69 0 -109.5 39.5t-40.5 99.5q0 63 40.5 103.5t109.5 40.5zM483 1614q71 0 111.5 -40t40.5 -104q0 -61 -40.5 -100t-111.5 -39q-69 0 -109 39.5t-40 99.5
q0 63 40 103.5t109 40.5z" />
    <glyph glyph-name="Eth" unicode="&#xd0;" horiz-adv-x="1374" 
d="M16 731h123v498h498q326 0 487 -148q174 -162 174 -467q0 -304 -172 -464q-156 -150 -489 -150h-498v543h-123v188zM1034 614q0 215 -94 312q-90 96 -291 96h-248v-291h279v-188h-279v-336h273q174 0 262 88q98 98 98 319z" />
    <glyph glyph-name="Ntilde" unicode="&#xd1;" horiz-adv-x="1425" 
d="M1047 1229h251v-1229h-245l-674 852v-852h-252v1229h244l676 -844v844zM700 1370q-84 37 -161 37q-84 0 -142 -43l-69 115q112 100 229 100q73 0 158 -31q89 -39 172 -39q76 0 139 43l72 -114q-100 -103 -221 -103q-90 0 -177 35z" />
    <glyph glyph-name="Ograve" unicode="&#xd2;" horiz-adv-x="1456" 
d="M1116 614q0 215 -106 330q-105 105 -281 105q-181 0 -280 -107q-107 -110 -107 -328q0 -202 92 -313q100 -121 295 -121q196 0 295 123q92 115 92 311zM76 614q0 290 176 463q177 174 477 174q138 0 257.5 -41.5t205.5 -119.5q188 -167 188 -476q0 -274 -149 -440
q-178 -197 -502 -197q-302 0 -473 168q-180 166 -180 469zM664 1690l133 -318l-160 -69l-166 296z" />
    <glyph glyph-name="Oacute" unicode="&#xd3;" horiz-adv-x="1456" 
d="M1116 614q0 215 -106 330q-105 105 -281 105q-181 0 -280 -107q-107 -110 -107 -328q0 -202 92 -313q100 -121 295 -121q196 0 295 123q92 115 92 311zM76 614q0 290 176 463q177 174 477 174q138 0 257.5 -41.5t205.5 -119.5q188 -167 188 -476q0 -274 -149 -440
q-178 -197 -502 -197q-302 0 -473 168q-180 166 -180 469zM655 1372l133 318l193 -91l-166 -296z" />
    <glyph glyph-name="Ocircumflex" unicode="&#xd4;" horiz-adv-x="1456" 
d="M1116 614q0 215 -106 330q-105 105 -281 105q-181 0 -280 -107q-107 -110 -107 -328q0 -202 92 -313q100 -121 295 -121q196 0 295 123q92 115 92 311zM76 614q0 290 176 463q177 174 477 174q138 0 257.5 -41.5t205.5 -119.5q188 -167 188 -476q0 -274 -149 -440
q-178 -197 -502 -197q-302 0 -473 168q-180 166 -180 469zM512 1307l-84 100l268 256h64l270 -256l-84 -100l-217 157z" />
    <glyph glyph-name="Otilde" unicode="&#xd5;" horiz-adv-x="1456" 
d="M1116 614q0 215 -106 330q-105 105 -281 105q-181 0 -280 -107q-107 -110 -107 -328q0 -202 92 -313q100 -121 295 -121q196 0 295 123q92 115 92 311zM76 614q0 290 176 463q177 174 477 174q138 0 257.5 -41.5t205.5 -119.5q188 -167 188 -476q0 -274 -149 -440
q-178 -197 -502 -197q-302 0 -473 168q-180 166 -180 469zM721 1370q-84 37 -162 37q-83 0 -141 -43l-70 115q112 100 230 100q72 0 157 -31q89 -39 172 -39q77 0 140 43l71 -114q-100 -103 -221 -103q-89 0 -176 35z" />
    <glyph glyph-name="Odieresis" unicode="&#xd6;" horiz-adv-x="1456" 
d="M1116 614q0 215 -106 330q-105 105 -281 105q-181 0 -280 -107q-107 -110 -107 -328q0 -202 92 -313q100 -121 295 -121q196 0 295 123q92 115 92 311zM76 614q0 290 176 463q177 174 477 174q138 0 257.5 -41.5t205.5 -119.5q188 -167 188 -476q0 -274 -149 -440
q-178 -197 -502 -197q-302 0 -473 168q-180 166 -180 469zM502 1614q70 0 110.5 -40.5t40.5 -103.5q0 -60 -40.5 -99.5t-110.5 -39.5q-69 0 -109.5 39.5t-40.5 99.5q0 63 40.5 103.5t109.5 40.5zM950 1614q72 0 112 -40t40 -104q0 -61 -40.5 -100t-111.5 -39
q-69 0 -109 39.5t-40 99.5q0 63 40 103.5t109 40.5z" />
    <glyph glyph-name="multiply" unicode="&#xd7;" horiz-adv-x="806" 
d="M96 453l168 168l-168 170l137 137l168 -170l172 170l138 -137l-170 -170l170 -170l-140 -138l-170 170l-168 -170z" />
    <glyph glyph-name="Oslash" unicode="&#xd8;" horiz-adv-x="1456" 
d="M1049 1280l178 -115l-45 -67q97 -85 147.5 -209t50.5 -275q0 -277 -155 -446q-179 -191 -496 -191q-154 0 -278 50l-50 -72l-178 115l45 65q-192 174 -192 479q0 296 182 469q179 168 471 168q145 0 266 -51zM1116 614q0 171 -76 275l-469 -680q65 -29 158 -29
q186 0 287 115q100 109 100 319zM342 614q0 -158 70 -264l462 670q-59 29 -145 29q-173 0 -274 -101q-113 -107 -113 -334z" />
    <glyph glyph-name="Ugrave" unicode="&#xd9;" horiz-adv-x="1402" 
d="M127 532v697h266v-705q0 -164 84 -254q80 -86 225 -86q154 0 230 82q82 88 82 258v705h262v-697q0 -263 -156 -409q-155 -146 -420 -146q-256 0 -409 138q-161 145 -164 417zM666 1690l133 -318l-160 -69l-166 296z" />
    <glyph glyph-name="Uacute" unicode="&#xda;" horiz-adv-x="1402" 
d="M127 532v697h266v-705q0 -164 84 -254q80 -86 225 -86q154 0 230 82q82 88 82 258v705h262v-697q0 -263 -156 -409q-155 -146 -420 -146q-256 0 -409 138q-161 145 -164 417zM588 1372l133 318l192 -91l-165 -296z" />
    <glyph glyph-name="Ucircumflex" unicode="&#xdb;" horiz-adv-x="1402" 
d="M127 532v697h266v-705q0 -164 84 -254q80 -86 225 -86q154 0 230 82q82 88 82 258v705h262v-697q0 -263 -156 -409q-155 -146 -420 -146q-256 0 -409 138q-161 145 -164 417zM481 1307l-84 100l269 256h63l270 -256l-84 -100l-217 157z" />
    <glyph glyph-name="Udieresis" unicode="&#xdc;" horiz-adv-x="1402" 
d="M127 532v697h266v-705q0 -164 84 -254q80 -86 225 -86q154 0 230 82q82 88 82 258v705h262v-697q0 -263 -156 -409q-155 -146 -420 -146q-256 0 -409 138q-161 145 -164 417zM475 1614q70 0 111 -40.5t41 -103.5q0 -60 -41 -99.5t-111 -39.5q-69 0 -109 39.5t-40 99.5
q0 63 40 103.5t109 40.5zM924 1614q71 0 111 -40t40 -104q0 -61 -40 -100t-111 -39q-69 0 -109.5 39.5t-40.5 99.5q0 63 40.5 103.5t109.5 40.5z" />
    <glyph glyph-name="Yacute" unicode="&#xdd;" horiz-adv-x="1441" 
d="M854 0h-264v291l-535 938h293l369 -697h12l371 697h286l-532 -934v-295zM631 1372l133 318l192 -91l-165 -296z" />
    <glyph glyph-name="Thorn" unicode="&#xde;" horiz-adv-x="1241" 
d="M639 160h-250v-160h-262v1251h262v-151h260q226 0 367 -123q149 -127 149 -346q0 -211 -133 -334q-140 -137 -393 -137zM907 631q0 118 -57 184q-69 82 -199 82h-262v-532h256q128 0 199 77q63 72 63 189z" />
    <glyph glyph-name="germandbls" unicode="&#xdf;" horiz-adv-x="1372" 
d="M598 1434q206 0 322 -80q127 -84 127 -244q0 -75 -52 -137q-45 -50 -118 -82q-9 -3 -31 -10.5t-36 -12.5t-32.5 -13t-32.5 -17q-40 -22 -40 -60q0 -30 24 -49q25 -17 119 -37l115 -22q150 -30 241 -115q92 -86 92 -225q0 -179 -135 -267q-122 -81 -327 -81
q-225 0 -392 86l70 174q143 -62 322 -62q119 0 176 39q55 36 55 115q0 56 -47 88q-37 29 -150 57l-143 31q-136 26 -201 94q-57 63 -57 156q0 83 49 139q40 49 150 90q63 22 100 51q43 29 43 80q0 56 -49 86q-50 33 -156 33q-119 0 -172 -53t-53 -154v-1032h-252v1006
q0 199 123 313q124 115 348 115z" />
    <glyph glyph-name="agrave" unicode="&#xe0;" horiz-adv-x="1257" 
d="M1122 690v-395q0 -78 10 -132t37 -120l-141 -59q-65 46 -104 108q-174 -110 -369 -110q-234 0 -354 88q-125 94 -125 270q0 175 153 270q133 80 334 80q162 0 307 -37v52q0 65 -57 98q-66 43 -231 43q-180 0 -365 -55l-45 167q117 46 220 65t235 19q269 0 389 -104
q106 -89 106 -248zM559 498q-102 0 -166 -41q-61 -38 -61 -115q0 -73 55 -115q63 -47 195 -47q153 0 288 66v233q-170 19 -311 19zM600 1489l119 -305l-148 -68l-160 283z" />
    <glyph glyph-name="aacute" unicode="&#xe1;" horiz-adv-x="1257" 
d="M1122 690v-395q0 -78 10 -132t37 -120l-141 -59q-65 46 -104 108q-174 -110 -369 -110q-234 0 -354 88q-125 94 -125 270q0 175 153 270q133 80 334 80q162 0 307 -37v52q0 65 -57 98q-66 43 -231 43q-180 0 -365 -55l-45 167q117 46 220 65t235 19q269 0 389 -104
q106 -89 106 -248zM559 498q-102 0 -166 -41q-61 -38 -61 -115q0 -73 55 -115q63 -47 195 -47q153 0 288 66v233q-170 19 -311 19zM540 1184l119 305l189 -90l-160 -283z" />
    <glyph glyph-name="acircumflex" unicode="&#xe2;" horiz-adv-x="1257" 
d="M1122 690v-395q0 -78 10 -132t37 -120l-141 -59q-65 46 -104 108q-174 -110 -369 -110q-234 0 -354 88q-125 94 -125 270q0 175 153 270q133 80 334 80q162 0 307 -37v52q0 65 -57 98q-66 43 -231 43q-180 0 -365 -55l-45 167q117 46 220 65t235 19q269 0 389 -104
q106 -89 106 -248zM559 498q-102 0 -166 -41q-61 -38 -61 -115q0 -73 55 -115q63 -47 195 -47q153 0 288 66v233q-170 19 -311 19zM922 1204l-84 -100l-213 141l-209 -141l-84 100l264 246h61z" />
    <glyph glyph-name="atilde" unicode="&#xe3;" horiz-adv-x="1257" 
d="M1122 690v-395q0 -78 10 -132t37 -120l-141 -59q-65 46 -104 108q-174 -110 -369 -110q-234 0 -354 88q-125 94 -125 270q0 175 153 270q133 80 334 80q162 0 307 -37v52q0 65 -57 98q-66 43 -231 43q-180 0 -365 -55l-45 167q117 46 220 65t235 19q269 0 389 -104
q106 -89 106 -248zM559 498q-102 0 -166 -41q-61 -38 -61 -115q0 -73 55 -115q63 -47 195 -47q153 0 288 66v233q-170 19 -311 19zM621 1159q-81 35 -150 35q-81 0 -133 -43l-68 113q103 90 211 90q65 0 144 -29q87 -33 159 -33q73 0 129 41l68 -110q-85 -95 -201 -95
q-80 0 -159 31z" />
    <glyph glyph-name="adieresis" unicode="&#xe4;" horiz-adv-x="1257" 
d="M1122 690v-395q0 -78 10 -132t37 -120l-141 -59q-65 46 -104 108q-174 -110 -369 -110q-234 0 -354 88q-125 94 -125 270q0 175 153 270q133 80 334 80q162 0 307 -37v52q0 65 -57 98q-66 43 -231 43q-180 0 -365 -55l-45 167q117 46 220 65t235 19q269 0 389 -104
q106 -89 106 -248zM559 498q-102 0 -166 -41q-61 -38 -61 -115q0 -73 55 -115q63 -47 195 -47q153 0 288 66v233q-170 19 -311 19zM418 1389q63 0 99 -35t36 -92q0 -54 -36 -88.5t-99 -34.5q-61 0 -96 34.5t-35 88.5q0 57 34.5 92t96.5 35zM831 1389q63 0 99.5 -35t36.5 -92
q0 -54 -36.5 -88.5t-99.5 -34.5q-60 0 -95.5 34.5t-35.5 88.5q0 56 35 91.5t96 35.5z" />
    <glyph glyph-name="aring" unicode="&#xe5;" horiz-adv-x="1257" 
d="M1122 690v-395q0 -78 10 -132t37 -120l-141 -59q-65 46 -104 108q-174 -110 -369 -110q-234 0 -354 88q-125 94 -125 270q0 175 153 270q133 80 334 80q162 0 307 -37v52q0 65 -57 98q-66 43 -231 43q-180 0 -365 -55l-45 167q117 46 220 65t235 19q269 0 389 -104
q106 -89 106 -248zM559 498q-102 0 -166 -41q-61 -38 -61 -115q0 -73 55 -115q63 -47 195 -47q153 0 288 66v233q-170 19 -311 19zM629 1122q-97 0 -162 62q-64 64 -64 159q0 97 64 158q65 62 162 62q101 0 166 -68q59 -56 59 -152q0 -95 -57 -155q-60 -63 -168 -66z
M727 1343q0 45 -27 72q-30 27 -71 27q-44 0 -74 -27q-25 -25 -25 -72q0 -44 27 -71q28 -25 72 -25q48 0 75 27q23 26 23 69z" />
    <glyph glyph-name="ae" unicode="&#xe6;" horiz-adv-x="2048" 
d="M1419 1042q258 0 396 -129q159 -146 159 -413v-88h-844q11 -94 76 -156q89 -80 258 -80q182 0 332 51l51 -168q-180 -77 -387 -77q-154 0 -262 43q-95 35 -170 116q-89 -76 -194 -116q-113 -43 -279 -43q-222 0 -348 86q-131 93 -131 272q0 175 153 270q133 80 332 80
q166 0 309 -39v62q0 49 -47 84q-71 49 -231 49q-178 0 -365 -47l-43 164q120 43 221 61t232 18q143 0 254 -43q86 -35 145 -108q54 60 133 100q102 51 250 51zM559 498q-102 0 -166 -41q-61 -41 -61 -115q0 -77 55 -119q61 -43 195 -43q92 0 184 21q67 18 147 67
q-43 76 -43 185v26q-167 19 -311 19zM1421 848q-126 0 -202 -64q-76 -63 -93 -182h592q-15 117 -84 180q-78 66 -213 66z" />
    <glyph glyph-name="ccedilla" unicode="&#xe7;" horiz-adv-x="1132" 
d="M1053 971l-62 -172q-154 47 -311 47q-171 0 -260 -86q-90 -87 -90 -244q0 -158 92 -244q91 -88 258 -88q158 0 313 52l62 -181q-149 -64 -353 -71l-2 -62q63 -3 101 -39q39 -39 39 -102q0 -48 -26.5 -90t-70.5 -72t-91.5 -50.5t-100.5 -33.5l-33 103q75 23 119 59
q43 37 43 82q0 22 -12 31q-13 10 -39 10h-39l-21 18v150q-212 18 -329 129q-164 149 -164 395q0 245 168 393q149 137 418 137q219 0 391 -71z" />
    <glyph glyph-name="egrave" unicode="&#xe8;" 
d="M631 1042q260 0 397 -131q160 -147 160 -411v-88h-846q11 -92 78 -156q42 -40 113.5 -60t152.5 -20q191 0 344 51l51 -168q-175 -77 -401 -77q-135 0 -252 36t-188 101q-164 148 -164 393q0 234 151 379q158 151 404 151zM635 848q-136 0 -215 -76q-66 -63 -84 -170h594
q-12 117 -84 180q-72 66 -211 66zM594 1489l119 -305l-148 -68l-160 283z" />
    <glyph glyph-name="eacute" unicode="&#xe9;" 
d="M631 1042q260 0 397 -131q160 -147 160 -411v-88h-846q11 -92 78 -156q42 -40 113.5 -60t152.5 -20q191 0 344 51l51 -168q-175 -77 -401 -77q-135 0 -252 36t-188 101q-164 148 -164 393q0 234 151 379q158 151 404 151zM635 848q-136 0 -215 -76q-66 -63 -84 -170h594
q-12 117 -84 180q-72 66 -211 66zM567 1184l119 305l188 -90l-159 -283z" />
    <glyph glyph-name="ecircumflex" unicode="&#xea;" 
d="M631 1042q260 0 397 -131q160 -147 160 -411v-88h-846q11 -92 78 -156q42 -40 113.5 -60t152.5 -20q191 0 344 51l51 -168q-175 -77 -401 -77q-135 0 -252 36t-188 101q-164 148 -164 393q0 234 151 379q158 151 404 151zM635 848q-136 0 -215 -76q-66 -63 -84 -170h594
q-12 117 -84 180q-72 66 -211 66zM932 1204l-84 -100l-213 141l-209 -141l-84 100l265 246h61z" />
    <glyph glyph-name="edieresis" unicode="&#xeb;" 
d="M631 1042q260 0 397 -131q160 -147 160 -411v-88h-846q11 -92 78 -156q42 -40 113.5 -60t152.5 -20q191 0 344 51l51 -168q-175 -77 -401 -77q-135 0 -252 36t-188 101q-164 148 -164 393q0 234 151 379q158 151 404 151zM635 848q-136 0 -215 -76q-66 -63 -84 -170h594
q-12 117 -84 180q-72 66 -211 66zM430 1389q63 0 99 -35t36 -92q0 -54 -36 -88.5t-99 -34.5q-61 0 -96 34.5t-35 88.5q0 57 34.5 92t96.5 35zM844 1389q63 0 99 -35t36 -92q0 -54 -36 -88.5t-99 -34.5q-60 0 -95.5 34.5t-35.5 88.5q0 56 35.5 91.5t95.5 35.5z" />
    <glyph glyph-name="igrave" unicode="&#xec;" horiz-adv-x="542" 
d="M260 1489l119 -305l-148 -68l-159 283zM45 858v166h371v-1024h-252v842z" />
    <glyph glyph-name="iacute" unicode="&#xed;" horiz-adv-x="542" 
d="M45 858v166h371v-1024h-252v842zM153 1184l119 305l189 -90l-160 -283z" />
    <glyph glyph-name="icircumflex" unicode="&#xee;" horiz-adv-x="542" 
d="M45 858v166h371v-1024h-252v842zM567 1204l-84 -100l-213 141l-209 -141l-84 100l265 246h61z" />
    <glyph glyph-name="idieresis" unicode="&#xef;" horiz-adv-x="542" 
d="M45 858v166h371v-1024h-252v842zM104 1389q63 0 99.5 -35t36.5 -92q0 -54 -36.5 -88.5t-99.5 -34.5q-60 0 -95.5 34.5t-35.5 88.5q0 56 35.5 91.5t95.5 35.5zM438 1389q63 0 98 -35t35 -92q0 -54 -35 -88.5t-98 -34.5q-61 0 -96 34.5t-35 88.5q0 57 34.5 92t96.5 35z" />
    <glyph glyph-name="eth" unicode="&#xf0;" 
d="M647 1057l-155 57l51 135q-129 39 -305 64l24 164q191 -15 344 -54l53 144l154 -58l-49 -133q158 -58 260 -176q160 -189 160 -530q0 -350 -150 -525q-141 -163 -405 -163q-260 0 -410 141q-143 133 -143 362t131 363q140 143 393 143q100 0 182 -24q58 -15 136 -58
q-20 109 -78 176q-48 61 -142 109zM936 637q0 59 -2 84q-68 36 -146 55q-75 17 -176 17q-154 0 -225 -84q-61 -78 -61 -224t77 -223q76 -82 226 -82q152 0 225 107q78 114 82 350z" />
    <glyph glyph-name="ntilde" unicode="&#xf1;" horiz-adv-x="1300" 
d="M127 1024h188l33 -94q143 112 344 112q242 0 361 -110q129 -123 129 -363v-569h-254v557q0 152 -66 221q-63 66 -194 66q-87 0 -153.5 -21.5t-133.5 -72.5v-750h-254v1024zM655 1159q-81 35 -149 35q-81 0 -133 -43l-68 113q103 90 211 90q64 0 143 -29q87 -33 160 -33
t129 41l68 -110q-85 -95 -201 -95q-81 0 -160 31z" />
    <glyph glyph-name="ograve" unicode="&#xf2;" horiz-adv-x="1271" 
d="M635 1042q242 0 397 -139q164 -148 164 -391t-164 -391q-155 -139 -397 -139q-239 0 -397 139q-162 146 -162 391t162 391q158 139 397 139zM635 846q-138 0 -223 -88q-82 -88 -82 -246t82 -246q85 -88 223 -88q141 0 223 88q84 87 84 246t-84 246q-82 88 -223 88z
M565 1489l119 -305l-148 -68l-160 283z" />
    <glyph glyph-name="oacute" unicode="&#xf3;" horiz-adv-x="1271" 
d="M635 1042q242 0 397 -139q164 -148 164 -391t-164 -391q-155 -139 -397 -139q-239 0 -397 139q-162 146 -162 391t162 391q158 139 397 139zM635 846q-138 0 -223 -88q-82 -88 -82 -246t82 -246q85 -88 223 -88q141 0 223 88q84 87 84 246t-84 246q-82 88 -223 88z
M586 1184l119 305l188 -90l-160 -283z" />
    <glyph glyph-name="ocircumflex" unicode="&#xf4;" horiz-adv-x="1271" 
d="M635 1042q242 0 397 -139q164 -148 164 -391t-164 -391q-155 -139 -397 -139q-239 0 -397 139q-162 146 -162 391t162 391q158 139 397 139zM635 846q-138 0 -223 -88q-82 -88 -82 -246t82 -246q85 -88 223 -88q141 0 223 88q84 87 84 246t-84 246q-82 88 -223 88z
M923 1204l-84 -100l-213 141l-209 -141l-84 100l265 246h61z" />
    <glyph glyph-name="otilde" unicode="&#xf5;" horiz-adv-x="1271" 
d="M635 1042q242 0 397 -139q164 -148 164 -391t-164 -391q-155 -139 -397 -139q-239 0 -397 139q-162 146 -162 391t162 391q158 139 397 139zM635 846q-138 0 -223 -88q-82 -88 -82 -246t82 -246q85 -88 223 -88q141 0 223 88q84 87 84 246t-84 246q-82 88 -223 88z
M633 1159q-81 35 -150 35q-81 0 -133 -43l-67 113q103 90 211 90q64 0 143 -29q87 -33 160 -33t129 41l67 -110q-85 -95 -200 -95q-81 0 -160 31z" />
    <glyph glyph-name="odieresis" unicode="&#xf6;" horiz-adv-x="1271" 
d="M635 1042q242 0 397 -139q164 -148 164 -391t-164 -391q-155 -139 -397 -139q-239 0 -397 139q-162 146 -162 391t162 391q158 139 397 139zM635 846q-138 0 -223 -88q-82 -88 -82 -246t82 -246q85 -88 223 -88q141 0 223 88q84 87 84 246t-84 246q-82 88 -223 88z
M420 1389q63 0 99 -35t36 -92q0 -54 -36 -88.5t-99 -34.5q-61 0 -96 34.5t-35 88.5q0 57 34.5 92t96.5 35zM834 1389q63 0 99 -35t36 -92q0 -54 -36 -88.5t-99 -34.5q-60 0 -95.5 34.5t-35.5 88.5q0 56 35 91.5t96 35.5z" />
    <glyph glyph-name="divide" unicode="&#xf7;" horiz-adv-x="731" 
d="M66 743h600v-170h-600v170zM365 498q63 0 99 -36t36 -91q0 -58 -35.5 -92.5t-99.5 -34.5t-100 34.5t-36 92.5q0 54 36.5 90.5t99.5 36.5zM365 1073q63 0 99 -36.5t36 -90.5q0 -57 -36 -92t-99 -35t-99.5 35t-36.5 92q0 54 36.5 90.5t99.5 36.5z" />
    <glyph glyph-name="oslash" unicode="&#xf8;" horiz-adv-x="1271" 
d="M901 1085l162 -104l-45 -68q175 -149 178 -401q0 -243 -164 -391q-155 -139 -397 -139q-121 0 -221 38l-56 -86l-161 105l49 76q-170 150 -170 397q0 245 162 391q158 139 397 139q115 0 211 -38zM883 709l-351 -512q46 -19 103 -19q141 0 223 88q84 87 84 246
q0 119 -59 197zM383 322l348 505q-46 19 -96 19q-138 0 -223 -88q-82 -88 -82 -246q0 -118 53 -190z" />
    <glyph glyph-name="ugrave" unicode="&#xf9;" horiz-adv-x="1302" 
d="M1176 0h-189l-35 94q-139 -112 -344 -112q-233 0 -346 102q-141 116 -141 371v569h254v-557q0 -156 67 -223q64 -64 191 -64q88 0 155 21.5t134 72.5v750h254v-1024zM608 1489l119 -305l-148 -68l-160 283z" />
    <glyph glyph-name="uacute" unicode="&#xfa;" horiz-adv-x="1302" 
d="M1176 0h-189l-35 94q-139 -112 -344 -112q-233 0 -346 102q-141 116 -141 371v569h254v-557q0 -156 67 -223q64 -64 191 -64q88 0 155 21.5t134 72.5v750h254v-1024zM565 1184l119 305l188 -90l-159 -283z" />
    <glyph glyph-name="ucircumflex" unicode="&#xfb;" horiz-adv-x="1302" 
d="M1176 0h-189l-35 94q-139 -112 -344 -112q-233 0 -346 102q-141 116 -141 371v569h254v-557q0 -156 67 -223q64 -64 191 -64q88 0 155 21.5t134 72.5v750h254v-1024zM946 1204l-84 -100l-213 141l-209 -141l-84 100l265 246h61z" />
    <glyph glyph-name="udieresis" unicode="&#xfc;" horiz-adv-x="1302" 
d="M1176 0h-189l-35 94q-139 -112 -344 -112q-233 0 -346 102q-141 116 -141 371v569h254v-557q0 -156 67 -223q64 -64 191 -64q88 0 155 21.5t134 72.5v750h254v-1024zM442 1389q63 0 99.5 -35t36.5 -92q0 -54 -36.5 -88.5t-99.5 -34.5q-61 0 -96 34.5t-35 88.5
q0 57 34.5 92t96.5 35zM856 1389q63 0 99 -35t36 -92q0 -54 -36 -88.5t-99 -34.5q-60 0 -95.5 34.5t-35.5 88.5q0 56 35.5 91.5t95.5 35.5z" />
    <glyph glyph-name="yacute" unicode="&#xfd;" horiz-adv-x="1304" 
d="M510 0l-469 1024h272l344 -797h31l307 797h267l-482 -1151q-48 -113 -133 -166q-68 -45 -184 -45q-75 0 -146 27l25 168q79 -9 92 -9q49 0 78 23q40 25 55 80l21 49h-78zM583 1184l119 305l189 -90l-160 -283z" />
    <glyph glyph-name="thorn" unicode="&#xfe;" horiz-adv-x="1314" 
d="M127 1331h252v-393q133 104 344 104q222 0 367 -133q151 -145 151 -395q0 -248 -145 -387q-145 -145 -402 -145q-176 0 -315 88v-377h-252v1638zM680 844q-92 0 -160 -21t-141 -69v-471q123 -99 293 -99q145 0 227 82q88 88 88 248q0 161 -84 248q-82 82 -223 82z" />
    <glyph glyph-name="ydieresis" unicode="&#xff;" horiz-adv-x="1304" 
d="M510 0l-469 1024h272l344 -797h31l307 797h267l-482 -1151q-48 -113 -133 -166q-68 -45 -184 -45q-75 0 -146 27l25 168q79 -9 92 -9q49 0 78 23q40 25 55 80l21 49h-78zM446 1389q63 0 99.5 -35t36.5 -92q0 -54 -36.5 -88.5t-99.5 -34.5q-61 0 -96 34.5t-35 88.5
q0 57 34.5 92t96.5 35zM860 1389q63 0 99 -35t36 -92q0 -54 -36 -88.5t-99 -34.5q-60 0 -95.5 34.5t-35.5 88.5q0 56 35.5 91.5t95.5 35.5z" />
    <glyph glyph-name="Amacron" unicode="&#x100;" horiz-adv-x="1509" 
d="M606 1229h297l551 -1229h-276l-88 201h-676l-88 -201h-271zM737 983l-235 -577h499l-237 577h-27zM410 1526h690v-172h-690v172z" />
    <glyph glyph-name="amacron" unicode="&#x101;" horiz-adv-x="1257" 
d="M1122 690v-395q0 -78 10 -132t37 -120l-141 -59q-65 46 -104 108q-174 -110 -369 -110q-234 0 -354 88q-125 94 -125 270q0 175 153 270q133 80 334 80q162 0 307 -37v52q0 65 -57 98q-66 43 -231 43q-180 0 -365 -55l-45 167q117 46 220 65t235 19q269 0 389 -104
q106 -89 106 -248zM559 498q-102 0 -166 -41q-61 -38 -61 -115q0 -73 55 -115q63 -47 195 -47q153 0 288 66v233q-170 19 -311 19zM309 1303h637v-154h-637v154z" />
    <glyph glyph-name="Abreve" unicode="&#x102;" horiz-adv-x="1509" 
d="M606 1229h297l551 -1229h-276l-88 201h-676l-88 -201h-271zM737 983l-235 -577h499l-237 577h-27zM442 1579l172 18q8 -55 48 -92q36 -28 92 -28q58 0 90 28q35 28 47 92l172 -18q-15 -131 -96 -203q-80 -71 -213 -71t-217 75q-80 71 -95 199z" />
    <glyph glyph-name="abreve" unicode="&#x103;" horiz-adv-x="1257" 
d="M1122 690v-395q0 -78 10 -132t37 -120l-141 -59q-65 46 -104 108q-174 -110 -369 -110q-234 0 -354 88q-125 94 -125 270q0 175 153 270q133 80 334 80q162 0 307 -37v52q0 65 -57 98q-66 43 -231 43q-180 0 -365 -55l-45 167q117 46 220 65t235 19q269 0 389 -104
q106 -89 106 -248zM559 498q-102 0 -166 -41q-61 -38 -61 -115q0 -73 55 -115q63 -47 195 -47q153 0 288 66v233q-170 19 -311 19zM346 1362l164 16q6 -55 37 -82q30 -24 80 -24q53 0 79 26q30 30 35 80l164 -16q-9 -116 -84 -184q-74 -68 -194 -68q-118 0 -195 68
q-74 68 -86 184z" />
    <glyph glyph-name="Aogonek" unicode="&#x104;" horiz-adv-x="1509" 
d="M606 1229h297l551 -1229q-30 -18 -47 -49q-18 -30 -18 -76q0 -50 28 -92q29 -46 78 -76l-63 -78q-111 29 -164 82q-54 54 -54 139q0 60 35 107q23 26 51 43h-122l-88 201h-676l-88 -201h-271zM737 983l-235 -577h499l-237 577h-27z" />
    <glyph glyph-name="aogonek" unicode="&#x105;" horiz-adv-x="1257" 
d="M1122 690v-395q0 -78 10 -132t37 -120q-46 -29 -61 -49q-21 -32 -21 -68q0 -43 25 -82q21 -33 80 -65l-47 -80q-101 12 -154 57q-61 54 -61 133q0 41 18 76q13 31 39 49q-41 37 -63 78q-174 -110 -369 -110q-234 0 -354 88q-125 94 -125 270q0 175 153 270q133 80 334 80
q162 0 307 -37v52q0 65 -57 98q-66 43 -231 43q-180 0 -365 -55l-45 167q117 46 220 65t235 19q269 0 389 -104q106 -89 106 -248zM559 498q-102 0 -166 -41q-61 -38 -61 -115q0 -73 55 -115q63 -47 195 -47q153 0 288 66v233q-170 19 -311 19z" />
    <glyph glyph-name="Cacute" unicode="&#x106;" horiz-adv-x="1316" 
d="M76 614q0 312 209 478q196 159 499 159q263 0 455 -98l-78 -180q-184 71 -360 71q-103 0 -191.5 -29.5t-144.5 -84.5q-123 -114 -123 -316q0 -174 104 -290q57 -65 152 -102.5t203 -37.5q100 0 183 17.5t179 56.5l78 -176q-200 -105 -455 -105q-329 0 -530 189
q-180 169 -180 448zM694 1372l133 318l193 -91l-166 -296z" />
    <glyph glyph-name="cacute" unicode="&#x107;" horiz-adv-x="1132" 
d="M1053 971l-62 -172q-154 47 -311 47q-171 0 -260 -86q-90 -87 -90 -244q0 -158 92 -244q91 -88 258 -88q158 0 313 52l62 -181q-171 -73 -393 -73q-278 0 -422 135q-164 149 -164 395q0 245 168 393q149 137 418 137q219 0 391 -71zM594 1184l119 305l188 -90l-160 -283z
" />
    <glyph glyph-name="Ccircumflex" unicode="&#x108;" horiz-adv-x="1316" 
d="M76 614q0 312 209 478q196 159 499 159q263 0 455 -98l-78 -180q-184 71 -360 71q-103 0 -191.5 -29.5t-144.5 -84.5q-123 -114 -123 -316q0 -174 104 -290q57 -65 152 -102.5t203 -37.5q100 0 183 17.5t179 56.5l78 -176q-200 -105 -455 -105q-329 0 -530 189
q-180 169 -180 448zM559 1307l-84 100l268 256h64l270 -256l-84 -100l-217 157z" />
    <glyph glyph-name="ccircumflex" unicode="&#x109;" horiz-adv-x="1132" 
d="M1053 971l-62 -172q-154 47 -311 47q-171 0 -260 -86q-90 -87 -90 -244q0 -158 92 -244q91 -88 258 -88q158 0 313 52l62 -181q-171 -73 -393 -73q-278 0 -422 135q-164 149 -164 395q0 245 168 393q149 137 418 137q219 0 391 -71zM948 1204l-84 -100l-213 141
l-209 -141l-84 100l265 246h61z" />
    <glyph glyph-name="Cdotaccent" unicode="&#x10a;" horiz-adv-x="1316" 
d="M76 614q0 312 209 478q196 159 499 159q263 0 455 -98l-78 -180q-184 71 -360 71q-103 0 -191.5 -29.5t-144.5 -84.5q-123 -114 -123 -316q0 -174 104 -290q57 -65 152 -102.5t203 -37.5q100 0 183 17.5t179 56.5l78 -176q-200 -105 -455 -105q-329 0 -530 189
q-180 169 -180 448zM774 1610q70 0 110 -39.5t40 -102.5q0 -59 -40 -98t-110 -39q-67 0 -106 39t-39 98q0 63 38.5 102.5t106.5 39.5z" />
    <glyph glyph-name="cdotaccent" unicode="&#x10b;" horiz-adv-x="1132" 
d="M1053 971l-62 -172q-154 47 -311 47q-171 0 -260 -86q-90 -87 -90 -244q0 -158 92 -244q91 -88 258 -88q158 0 313 52l62 -181q-171 -73 -393 -73q-278 0 -422 135q-164 149 -164 395q0 245 168 393q149 137 418 137q219 0 391 -71zM667 1369q63 0 98.5 -34.5t35.5 -90.5
q0 -54 -35.5 -88.5t-98.5 -34.5q-60 0 -94.5 34.5t-34.5 88.5q0 55 34.5 90t94.5 35z" />
    <glyph glyph-name="Ccaron" unicode="&#x10c;" horiz-adv-x="1316" 
d="M76 614q0 312 209 478q196 159 499 159q263 0 455 -98l-78 -180q-184 71 -360 71q-103 0 -191.5 -29.5t-144.5 -84.5q-123 -114 -123 -316q0 -174 104 -290q57 -65 152 -102.5t203 -37.5q100 0 183 17.5t179 56.5l78 -176q-200 -105 -455 -105q-329 0 -530 189
q-180 169 -180 448zM496 1561l86 100l217 -158l215 158l84 -100l-269 -256h-63z" />
    <glyph glyph-name="ccaron" unicode="&#x10d;" horiz-adv-x="1132" 
d="M1053 971l-62 -172q-154 47 -311 47q-171 0 -260 -86q-90 -87 -90 -244q0 -158 92 -244q91 -88 258 -88q158 0 313 52l62 -181q-171 -73 -393 -73q-278 0 -422 135q-164 149 -164 395q0 245 168 393q149 137 418 137q219 0 391 -71zM371 1350l84 100l209 -143l206 143
l82 -100l-260 -246h-59z" />
    <glyph glyph-name="Dcaron" unicode="&#x10e;" horiz-adv-x="1361" 
d="M127 1229h506q326 0 487 -148q174 -162 174 -467q0 -304 -172 -464q-156 -150 -489 -150h-506v1229zM1030 614q0 215 -94 312q-90 96 -291 96h-256v-815h281q174 0 262 88q98 98 98 319zM328 1561l86 100l217 -158l215 158l84 -100l-268 -256h-64z" />
    <glyph glyph-name="dcaron" unicode="&#x10f;" horiz-adv-x="1517" 
d="M971 92q-137 -110 -363 -110q-236 0 -379 131q-155 142 -155 399q0 238 141 379q148 151 414 151q171 0 313 -90v379h252v-1331h-190zM942 274v474q-124 98 -287 98q-152 0 -237 -82q-90 -90 -90 -250q0 -168 94 -256q80 -74 211 -74q93 0 165.5 21t143.5 69zM1386 1298
q66 0 103 -37t37 -94q0 -28 -13 -67l-100 -242l-106 33l28 147q-90 24 -90 129q0 57 37.5 94t103.5 37z" />
    <glyph glyph-name="Dcroat" unicode="&#x110;" horiz-adv-x="1374" 
d="M16 731h123v498h498q326 0 487 -148q174 -162 174 -467q0 -304 -172 -464q-156 -150 -489 -150h-498v543h-123v188zM1034 614q0 215 -94 312q-90 96 -291 96h-248v-291h279v-188h-279v-336h273q174 0 262 88q98 98 98 319z" />
    <glyph glyph-name="dcroat" unicode="&#x111;" horiz-adv-x="1320" 
d="M971 92q-137 -110 -363 -110q-236 0 -379 131q-155 142 -155 399q0 238 141 379q148 151 414 151q171 0 313 -90v144l-235 18v143h235v99h252v-105l102 -12v-156h-102v-1083h-190zM942 274v474q-124 98 -287 98q-152 0 -237 -82q-90 -90 -90 -250q0 -168 94 -256
q80 -74 211 -74q93 0 165.5 21t143.5 69z" />
    <glyph glyph-name="Emacron" unicode="&#x112;" horiz-adv-x="1251" 
d="M127 0v1229h1012v-207h-750v-279h668v-204h-668v-332h776v-207h-1038zM293 1526h690v-172h-690v172z" />
    <glyph glyph-name="emacron" unicode="&#x113;" 
d="M631 1042q260 0 397 -131q160 -147 160 -411v-88h-846q11 -92 78 -156q42 -40 113.5 -60t152.5 -20q191 0 344 51l51 -168q-175 -77 -401 -77q-135 0 -252 36t-188 101q-164 148 -164 393q0 234 151 379q158 151 404 151zM635 848q-136 0 -215 -76q-66 -63 -84 -170h594
q-12 117 -84 180q-72 66 -211 66zM315 1303h637v-154h-637v154z" />
    <glyph glyph-name="Ebreve" unicode="&#x114;" horiz-adv-x="1251" 
d="M127 0v1229h1012v-207h-750v-279h668v-204h-668v-332h776v-207h-1038zM342 1579l172 18q8 -56 47 -92q36 -28 92 -28q58 0 90 28q36 29 48 92l172 -18q-15 -130 -97 -203q-80 -71 -213 -71t-217 75q-79 70 -94 199z" />
    <glyph glyph-name="ebreve" unicode="&#x115;" 
d="M631 1042q260 0 397 -131q160 -147 160 -411v-88h-846q11 -92 78 -156q42 -40 113.5 -60t152.5 -20q191 0 344 51l51 -168q-175 -77 -401 -77q-135 0 -252 36t-188 101q-164 148 -164 393q0 234 151 379q158 151 404 151zM635 848q-136 0 -215 -76q-66 -63 -84 -170h594
q-12 117 -84 180q-72 66 -211 66zM356 1362l164 16q6 -55 37 -82q30 -24 80 -24q53 0 79 26q30 30 35 80l164 -16q-9 -116 -84 -184q-74 -68 -194 -68q-118 0 -195 68q-74 68 -86 184z" />
    <glyph glyph-name="Edotaccent" unicode="&#x116;" horiz-adv-x="1251" 
d="M127 0v1229h1012v-207h-750v-279h668v-204h-668v-332h776v-207h-1038zM647 1604q70 0 110 -39.5t40 -102.5q0 -59 -40 -98t-110 -39q-67 0 -106 39t-39 98q0 63 38.5 102.5t106.5 39.5z" />
    <glyph glyph-name="edotaccent" unicode="&#x117;" 
d="M631 1042q260 0 397 -131q160 -147 160 -411v-88h-846q11 -92 78 -156q42 -40 113.5 -60t152.5 -20q191 0 344 51l51 -168q-175 -77 -401 -77q-135 0 -252 36t-188 101q-164 148 -164 393q0 234 151 379q158 151 404 151zM635 848q-136 0 -215 -76q-66 -63 -84 -170h594
q-12 117 -84 180q-72 66 -211 66zM626 1381q63 0 98.5 -34.5t35.5 -90.5q0 -54 -35.5 -88.5t-98.5 -34.5q-60 0 -94.5 34.5t-34.5 88.5q0 55 34.5 90t94.5 35z" />
    <glyph glyph-name="Eogonek" unicode="&#x118;" horiz-adv-x="1251" 
d="M127 0v1229h1012v-207h-750v-279h668v-204h-668v-332h776v-207q-30 -18 -47 -49q-18 -30 -18 -76q0 -50 28 -92q29 -46 78 -76l-63 -78q-111 29 -164 82t-53 139q0 45 23 85t63 65h-885z" />
    <glyph glyph-name="eogonek" unicode="&#x119;" 
d="M631 1042q260 0 397 -131q160 -147 160 -411v-88h-846q11 -92 78 -156q42 -40 113.5 -60t152.5 -20q191 0 344 51l51 -168q-26 -14 -45 -49q-12 -27 -12 -57q0 -47 25 -82q22 -36 79 -64l-47 -79q-105 13 -155 57q-60 50 -60 131q0 17 4 45q4 14 19 39q-119 -18 -209 -18
q-135 0 -252 36t-188 101q-164 148 -164 393q0 248 153 389q150 141 402 141zM635 848q-136 0 -215 -76q-66 -63 -84 -170h594q-12 117 -84 180q-72 66 -211 66z" />
    <glyph glyph-name="Ecaron" unicode="&#x11a;" horiz-adv-x="1251" 
d="M127 0v1229h1012v-207h-750v-279h668v-204h-668v-332h776v-207h-1038zM354 1561l86 100l217 -158l215 158l84 -100l-268 -256h-63z" />
    <glyph glyph-name="ecaron" unicode="&#x11b;" 
d="M631 1042q260 0 397 -131q160 -147 160 -411v-88h-846q11 -92 78 -156q42 -40 113.5 -60t152.5 -20q191 0 344 51l51 -168q-175 -77 -401 -77q-135 0 -252 36t-188 101q-164 148 -164 393q0 234 151 379q158 151 404 151zM635 848q-136 0 -215 -76q-66 -63 -84 -170h594
q-12 117 -84 180q-72 66 -211 66zM346 1350l84 100l209 -143l207 143l82 -100l-260 -246h-59z" />
    <glyph glyph-name="Gcircumflex" unicode="&#x11c;" horiz-adv-x="1425" 
d="M756 553v174h553v-727h-183l-41 78q-159 -101 -366 -101q-303 0 -477 183q-166 174 -166 454q0 286 203 467q189 170 516 170q264 0 465 -106l-74 -174q-194 78 -391 78q-194 0 -318 -105q-135 -114 -135 -330q0 -172 86 -286q49 -67 128 -105.5t181 -38.5q159 0 316 74
v274zM565 1307l-84 100l269 256h63l270 -256l-84 -100l-217 157z" />
    <glyph glyph-name="gcircumflex" unicode="&#x11d;" horiz-adv-x="1267" 
d="M643 -403q-145 0 -258 27t-231 89l65 172q198 -82 410 -82q169 0 243 68q70 64 70 174v25q-134 -88 -313 -88q-261 0 -406 139q-147 141 -147 391q0 240 141 381q149 149 393 149q117 0 203 -26.5t158 -87.5l37 96h186v-918q0 -249 -145 -382q-139 -127 -406 -127z
M645 840q-140 0 -223 -80q-94 -91 -94 -250q0 -163 90 -250q85 -82 239 -82q160 0 285 98v476q-72 48 -138 68t-159 20zM899 1204l-84 -100l-213 141l-209 -141l-84 100l264 246h62z" />
    <glyph glyph-name="Gbreve" unicode="&#x11e;" horiz-adv-x="1425" 
d="M756 553v174h553v-727h-183l-41 78q-159 -101 -366 -101q-303 0 -477 183q-166 174 -166 454q0 286 203 467q189 170 516 170q264 0 465 -106l-74 -174q-194 78 -391 78q-194 0 -318 -105q-135 -114 -135 -330q0 -172 86 -286q49 -67 128 -105.5t181 -38.5q159 0 316 74
v274zM467 1579l172 18q8 -56 47 -92q36 -28 92 -28q58 0 90 28q35 28 47 92l172 -18q-15 -131 -96 -203q-80 -71 -213 -71t-217 75q-79 70 -94 199z" />
    <glyph glyph-name="gbreve" unicode="&#x11f;" horiz-adv-x="1267" 
d="M643 -403q-145 0 -258 27t-231 89l65 172q198 -82 410 -82q169 0 243 68q70 64 70 174v25q-134 -88 -313 -88q-261 0 -406 139q-147 141 -147 391q0 240 141 381q149 149 393 149q117 0 203 -26.5t158 -87.5l37 96h186v-918q0 -249 -145 -382q-139 -127 -406 -127z
M645 840q-140 0 -223 -80q-94 -91 -94 -250q0 -163 90 -250q85 -82 239 -82q160 0 285 98v476q-72 48 -138 68t-159 20zM401 1362l164 16q6 -55 37 -82q30 -24 80 -24q54 0 80 26q30 30 35 80l164 -16q-9 -116 -84 -184q-74 -68 -195 -68q-118 0 -195 68q-74 68 -86 184z
" />
    <glyph glyph-name="Gdotaccent" unicode="&#x120;" horiz-adv-x="1425" 
d="M756 553v174h553v-727h-183l-41 78q-159 -101 -366 -101q-303 0 -477 183q-166 174 -166 454q0 286 203 467q189 170 516 170q264 0 465 -106l-74 -174q-194 78 -391 78q-194 0 -318 -105q-135 -114 -135 -330q0 -172 86 -286q49 -67 128 -105.5t181 -38.5q159 0 316 74
v274zM782 1614q70 0 110 -39t40 -102q0 -59 -40 -98.5t-110 -39.5q-67 0 -106 39.5t-39 98.5q0 63 38.5 102t106.5 39z" />
    <glyph glyph-name="gdotaccent" unicode="&#x121;" horiz-adv-x="1267" 
d="M643 -403q-145 0 -258 27t-231 89l65 172q198 -82 410 -82q169 0 243 68q70 64 70 174v25q-134 -88 -313 -88q-261 0 -406 139q-147 141 -147 391q0 240 141 381q149 149 393 149q117 0 203 -26.5t158 -87.5l37 96h186v-918q0 -249 -145 -382q-139 -127 -406 -127z
M645 840q-140 0 -223 -80q-94 -91 -94 -250q0 -163 90 -250q85 -82 239 -82q160 0 285 98v476q-72 48 -138 68t-159 20zM641 1389q63 0 98 -34.5t35 -90.5q0 -54 -35 -88.5t-98 -34.5q-60 0 -94.5 34.5t-34.5 88.5q0 55 34.5 90t94.5 35z" />
    <glyph glyph-name="Gcommaaccent" unicode="&#x122;" horiz-adv-x="1425" 
d="M756 553v174h553v-727h-183l-41 78q-159 -101 -366 -101q-303 0 -477 183q-166 174 -166 454q0 286 203 467q189 170 516 170q264 0 465 -106l-74 -174q-194 78 -391 78q-194 0 -318 -105q-135 -114 -135 -330q0 -172 86 -286q49 -67 128 -105.5t181 -38.5q159 0 316 74
v274zM713 -80q67 0 105 -38t38 -97q0 -32 -12 -68l-99 -254l-112 25l26 168q-42 9 -66 44t-24 85q0 59 38.5 97t105.5 38z" />
    <glyph glyph-name="gcommaaccent" unicode="&#x123;" horiz-adv-x="1267" 
d="M643 -403q-145 0 -258 27t-231 89l65 172q198 -82 410 -82q169 0 243 68q70 64 70 174v25q-134 -88 -313 -88q-261 0 -406 139q-147 141 -147 391q0 240 141 381q149 149 393 149q117 0 203 -26.5t158 -87.5l37 96h186v-918q0 -249 -145 -382q-139 -127 -406 -127z
M645 840q-140 0 -223 -80q-94 -91 -94 -250q0 -163 90 -250q85 -82 239 -82q160 0 285 98v476q-72 48 -138 68t-159 20zM598 1124q-66 0 -102.5 37t-36.5 94q0 32 12 68l100 242l107 -33l-29 -148q90 -24 90 -129q0 -57 -37.5 -94t-103.5 -37z" />
    <glyph glyph-name="Hcircumflex" unicode="&#x124;" horiz-adv-x="1411" 
d="M1022 1229h262v-1229h-262v551h-633v-551h-262v1229h262v-469h633v469zM487 1307l-84 100l269 256h63l271 -256l-84 -100l-217 157z" />
    <glyph glyph-name="hcircumflex" unicode="&#x125;" horiz-adv-x="1302" 
d="M127 1331h254v-389q136 100 321 100q230 0 347 -108q133 -120 133 -365v-569h-254v557q0 150 -66 219q-69 66 -194 66q-159 0 -287 -97v-745h-254v1331zM549 1466l-84 -100l-213 141l-209 -141l-84 100l265 246h61z" />
    <glyph glyph-name="Hbar" unicode="&#x126;" horiz-adv-x="1411" 
d="M1022 1229h262v-160h86v-154l-86 -10v-905h-262v551h-633v-551h-262v903h-86v154l86 6v166h262v-160h633v160zM389 760h633v143h-633v-143z" />
    <glyph glyph-name="hbar" unicode="&#x127;" horiz-adv-x="1316" 
d="M1196 569v-569h-254v557q0 151 -68 219q-66 66 -192 66q-161 0 -289 -97v-745h-252v1081h-116v156l116 12v107h252v-99h271v-145l-271 -20v-150q139 100 324 100q230 0 344 -108q135 -119 135 -365z" />
    <glyph glyph-name="Itilde" unicode="&#x128;" horiz-adv-x="516" 
d="M127 1229h262v-1229h-262v1229zM254 1370q-84 37 -162 37q-83 0 -141 -43l-70 115q112 100 230 100q72 0 157 -31q89 -39 172 -39q77 0 140 43l71 -114q-100 -103 -221 -103q-89 0 -176 35z" />
    <glyph glyph-name="itilde" unicode="&#x129;" horiz-adv-x="542" 
d="M45 858v166h371v-1024h-252v842zM267 1159q-81 35 -150 35q-81 0 -133 -43l-68 113q103 90 211 90q65 0 144 -29q87 -33 159 -33q73 0 129 41l68 -110q-85 -95 -201 -95q-80 0 -159 31z" />
    <glyph glyph-name="uni012A" unicode="&#x12a;" horiz-adv-x="516" 
d="M127 1229h262v-1229h-262v1229zM-84 1546h690v-172h-690v172z" />
    <glyph glyph-name="imacron" unicode="&#x12b;" horiz-adv-x="542" 
d="M8 1303h527v-154h-527v154zM45 858v166h371v-1024h-252v842z" />
    <glyph glyph-name="Ibreve" unicode="&#x12c;" horiz-adv-x="516" 
d="M127 1229h262v-1229h-262v1229zM-51 1579l172 18q8 -56 47 -92q36 -28 92 -28q58 0 90 28q35 28 47 92l172 -18q-15 -131 -96 -203q-80 -71 -213 -71t-217 75q-79 70 -94 199z" />
    <glyph glyph-name="uni012D" unicode="&#x12d;" horiz-adv-x="542" 
d="M45 858v166h371v-1024h-252v842zM-8 1362l164 16q6 -55 37 -82q30 -24 80 -24q53 0 79 26q30 30 35 80l164 -16q-9 -116 -84 -184q-74 -68 -194 -68q-118 0 -195 68q-74 68 -86 184z" />
    <glyph glyph-name="Iogonek" unicode="&#x12e;" horiz-adv-x="516" 
d="M127 1229h262v-1229q-30 -18 -47 -49q-18 -35 -18 -76q0 -45 28 -92q29 -46 78 -76l-61 -78q-113 29 -166 82q-51 51 -51 139q0 58 34 101q20 29 54 49h-113v1229z" />
    <glyph glyph-name="iogonek" unicode="&#x12f;" horiz-adv-x="542" 
d="M45 858v166h371v-1024q-23 -17 -39 -43q-17 -34 -17 -61q0 -46 23 -82q27 -39 82 -64l-47 -80q-105 12 -156 58q-59 49 -59 131q0 53 28 92q24 32 48 49h-115v842zM289 1440q76 0 120 -40.5t44 -101.5q0 -59 -44 -99t-120 -40q-74 0 -118 40t-44 99q0 61 44 101.5
t118 40.5z" />
    <glyph glyph-name="Idotaccent" unicode="&#x130;" horiz-adv-x="516" 
d="M127 1229h262v-1229h-262v1229zM256 1610q70 0 110 -39.5t40 -102.5q0 -59 -40 -98t-110 -39q-67 0 -106 39t-39 98q0 63 38.5 102.5t106.5 39.5z" />
    <glyph glyph-name="dotlessi" unicode="&#x131;" horiz-adv-x="542" 
d="M45 858v166h371v-1024h-252v842z" />
    <glyph glyph-name="Jcircumflex" unicode="&#x134;" horiz-adv-x="1085" 
d="M696 1229h262v-729q0 -258 -149 -391q-150 -132 -422 -132q-187 0 -350 72l63 182q129 -47 273 -47q175 0 250 84q73 82 73 236v725zM606 1282l-84 100l269 256h63l270 -256l-84 -100l-217 158z" />
    <glyph glyph-name="jcircumflex" unicode="&#x135;" horiz-adv-x="542" 
d="M45 858v166h371v-1030q0 -169 -99 -279q-112 -118 -325 -118q-103 0 -180.5 21.5t-169.5 70.5l71 170q76 -33 132.5 -45.5t129.5 -12.5q97 0 148 58q41 47 41 135v848zM567 1204l-84 -100l-213 141l-209 -141l-84 100l265 246h61z" />
    <glyph glyph-name="Kcommaaccent" unicode="&#x136;" horiz-adv-x="1378" 
d="M127 1229h266v-471h273l338 471h299l-424 -565l444 -664h-305l-352 553h-273v-553h-266v1229zM657 45q67 0 105.5 -38t38.5 -97q0 -29 -13 -68l-98 -254l-112 25l26 168q-42 9 -66 44t-24 85q0 59 38 97t105 38z" />
    <glyph glyph-name="kcommaaccent" unicode="&#x137;" horiz-adv-x="1247" 
d="M127 1331h252v-682h272l252 375h281l-324 -467l338 -557h-280l-263 451h-276v-451h-252v1331zM627 43q64 0 101.5 -37t37.5 -94q0 -30 -12 -66l-95 -243l-108 22l24 162q-41 9 -63.5 43t-22.5 82q0 57 37.5 94t100.5 37z" />
    <glyph glyph-name="kgreenlandic" unicode="&#x138;" horiz-adv-x="1247" 
d="M127 1024h252v-375h272l252 375h281l-324 -467l338 -557h-280l-263 451h-276v-451h-252v1024z" />
    <glyph glyph-name="Lacute" unicode="&#x139;" horiz-adv-x="1196" 
d="M393 203h727v-203h-993v1229h266v-1026zM154 1372l133 318l192 -91l-166 -296z" />
    <glyph glyph-name="lacute" unicode="&#x13a;" horiz-adv-x="522" 
d="M27 1171v160h368v-1331h-252v1149zM165 1465l119 305l189 -90l-160 -283z" />
    <glyph glyph-name="Lcommaaccent" unicode="&#x13b;" horiz-adv-x="1196" 
d="M393 203h727v-203h-993v1229h266v-1026zM618 -59q67 0 105.5 -38.5t38.5 -97.5q0 -31 -12 -67l-99 -254l-112 24l26 168q-42 9 -66 44t-24 85q0 59 38 97.5t105 38.5z" />
    <glyph glyph-name="lcommaaccent" unicode="&#x13c;" horiz-adv-x="522" 
d="M27 1171v160h368v-1331h-252v1149zM264 -98q64 0 101.5 -37t37.5 -94q0 -30 -12 -66l-94 -244l-109 23l25 162q-41 9 -63.5 43t-22.5 82q0 57 37 94t100 37z" />
    <glyph glyph-name="Lcaron" unicode="&#x13d;" horiz-adv-x="1196" 
d="M393 203h727v-203h-993v1229h266v-1026zM635 1321q66 0 102.5 -37t36.5 -94q0 -32 -12 -68l-101 -241l-106 32l28 148q-90 24 -90 129q0 57 38 94t104 37z" />
    <glyph glyph-name="lcaron" unicode="&#x13e;" horiz-adv-x="626" 
d="M27 1171v160h368v-1331h-252v1149zM625 1487q65 0 102 -36.5t37 -94.5q0 -32 -12 -68l-101 -241l-106 32l28 148q-90 24 -90 129q0 57 38 94t104 37z" />
    <glyph glyph-name="Ldot" unicode="&#x13f;" horiz-adv-x="1196" 
d="M393 203h727v-203h-993v1229h266v-1026zM731 788q69 0 108 -38.5t39 -98.5q0 -63 -39 -101t-108 -38t-108.5 38t-39.5 101q0 60 39.5 98.5t108.5 38.5z" />
    <glyph glyph-name="ldot" unicode="&#x140;" horiz-adv-x="774" 
d="M27 1171v160h368v-1331h-252v1149zM600 854q69 0 108.5 -38.5t39.5 -98.5q0 -63 -39.5 -101t-108.5 -38t-108 38t-39 101q0 60 39 98.5t108 38.5z" />
    <glyph glyph-name="Lslash" unicode="&#x141;" horiz-adv-x="1218" 
d="M416 203h727v-203h-993v565l-93 -22l-49 174l142 37v475h266v-404l223 60l49 -174l-272 -74v-434z" />
    <glyph glyph-name="lslash" unicode="&#x142;" horiz-adv-x="557" 
d="M37 1331h371v-534l122 34l41 -149l-163 -45v-637h-252v571l-113 -30l-39 149l152 39v420l-119 22v160z" />
    <glyph glyph-name="Nacute" unicode="&#x143;" horiz-adv-x="1425" 
d="M1047 1229h251v-1229h-245l-674 852v-852h-252v1229h244l676 -844v844zM621 1372l133 318l192 -91l-166 -296z" />
    <glyph glyph-name="nacute" unicode="&#x144;" horiz-adv-x="1302" 
d="M127 1024h188l33 -94q143 112 344 112q242 0 361 -110q129 -123 129 -363v-569h-254v557q0 152 -66 221q-63 66 -194 66q-87 0 -153.5 -21.5t-133.5 -72.5v-750h-254v1024zM577 1184l119 305l189 -90l-160 -283z" />
    <glyph glyph-name="Ncommaaccent" unicode="&#x145;" horiz-adv-x="1425" 
d="M1047 1229h251v-1229h-245l-674 852v-852h-252v1229h244l676 -844v844zM698 47q67 0 105.5 -38t38.5 -97q0 -29 -13 -68l-98 -254l-113 25l27 168q-42 9 -66 44t-24 85q0 59 38 97t105 38z" />
    <glyph glyph-name="ncommaaccent" unicode="&#x146;" horiz-adv-x="1300" 
d="M127 1024h188l33 -94q143 112 344 112q242 0 361 -110q129 -123 129 -363v-569h-254v557q0 152 -66 221q-63 66 -194 66q-87 0 -153.5 -21.5t-133.5 -72.5v-750h-254v1024zM657 39q64 0 102 -37t38 -94q0 -27 -13 -66l-94 -243l-108 22l24 162q-41 9 -63.5 43t-22.5 82
q0 57 37 94t100 37z" />
    <glyph glyph-name="Ncaron" unicode="&#x147;" horiz-adv-x="1425" 
d="M1047 1229h251v-1229h-245l-674 852v-852h-252v1229h244l676 -844v844zM412 1561l86 100l217 -158l215 158l84 -100l-269 -256h-63z" />
    <glyph glyph-name="ncaron" unicode="&#x148;" horiz-adv-x="1300" 
d="M127 1024h188l33 -94q143 112 344 112q242 0 361 -110q129 -123 129 -363v-569h-254v557q0 152 -66 221q-63 66 -194 66q-87 0 -153.5 -21.5t-133.5 -72.5v-750h-254v1024zM408 1350l84 100l208 -143l207 143l82 -100l-260 -246h-59z" />
    <glyph glyph-name="napostrophe" unicode="&#x149;" horiz-adv-x="1300" 
d="M127 1024h188l33 -94q143 112 344 112q242 0 361 -110q129 -123 129 -363v-569h-254v557q0 152 -66 221q-63 66 -194 66q-87 0 -153.5 -21.5t-133.5 -72.5v-750h-254v1024zM76 1509q64 0 101.5 -37t37.5 -94q0 -29 -12 -65l-94 -244l-109 23l25 161q-41 9 -63.5 43
t-22.5 82q0 57 37 94t100 37z" />
    <glyph glyph-name="Omacron" unicode="&#x14c;" horiz-adv-x="1456" 
d="M1116 614q0 215 -106 330q-105 105 -281 105q-181 0 -280 -107q-107 -110 -107 -328q0 -202 92 -313q100 -121 295 -121q196 0 295 123q92 115 92 311zM76 614q0 290 176 463q177 174 477 174q138 0 257.5 -41.5t205.5 -119.5q188 -167 188 -476q0 -274 -149 -440
q-178 -197 -502 -197q-302 0 -473 168q-180 166 -180 469zM383 1526h690v-172h-690v172z" />
    <glyph glyph-name="omacron" unicode="&#x14d;" horiz-adv-x="1271" 
d="M635 1042q242 0 397 -139q164 -148 164 -391t-164 -391q-155 -139 -397 -139q-239 0 -397 139q-162 146 -162 391t162 391q158 139 397 139zM635 846q-138 0 -223 -88q-82 -88 -82 -246t82 -246q85 -88 223 -88q141 0 223 88q84 87 84 246t-84 246q-82 88 -223 88z
M311 1303h637v-154h-637v154z" />
    <glyph glyph-name="Obreve" unicode="&#x14e;" horiz-adv-x="1456" 
d="M1116 614q0 215 -106 330q-105 105 -281 105q-181 0 -280 -107q-107 -110 -107 -328q0 -202 92 -313q100 -121 295 -121q196 0 295 123q92 115 92 311zM76 614q0 290 176 463q177 174 477 174q138 0 257.5 -41.5t205.5 -119.5q188 -167 188 -476q0 -274 -149 -440
q-178 -197 -502 -197q-302 0 -473 168q-180 166 -180 469zM418 1579l172 18q8 -56 47 -92q36 -28 92 -28q58 0 90 28q35 28 47 92l172 -18q-15 -131 -96 -203q-80 -71 -213 -71t-217 75q-79 70 -94 199z" />
    <glyph glyph-name="obreve" unicode="&#x14f;" horiz-adv-x="1271" 
d="M635 1042q242 0 397 -139q164 -148 164 -391t-164 -391q-155 -139 -397 -139q-239 0 -397 139q-162 146 -162 391t162 391q158 139 397 139zM635 846q-138 0 -223 -88q-82 -88 -82 -246t82 -246q85 -88 223 -88q141 0 223 88q84 87 84 246t-84 246q-82 88 -223 88z
M348 1362l164 16q6 -55 37 -82q30 -24 80 -24q53 0 79 26q30 30 35 80l164 -16q-9 -116 -84 -184q-74 -68 -194 -68q-118 0 -195 68q-74 68 -86 184z" />
    <glyph glyph-name="Ohungarumlaut" unicode="&#x150;" horiz-adv-x="1456" 
d="M1116 614q0 215 -106 330q-105 105 -281 105q-181 0 -280 -107q-107 -110 -107 -328q0 -202 92 -313q100 -121 295 -121q196 0 295 123q92 115 92 311zM76 614q0 290 176 463q177 174 477 174q138 0 257.5 -41.5t205.5 -119.5q188 -167 188 -476q0 -274 -149 -440
q-178 -197 -502 -197q-302 0 -473 168q-180 166 -180 469zM541 1378l82 353l188 -66l-131 -332zM784 1380l140 346l176 -79l-178 -318z" />
    <glyph glyph-name="ohungarumlaut" unicode="&#x151;" horiz-adv-x="1271" 
d="M635 1042q242 0 397 -139q164 -148 164 -391t-164 -391q-155 -139 -397 -139q-239 0 -397 139q-162 146 -162 391t162 391q158 139 397 139zM635 846q-138 0 -223 -88q-82 -88 -82 -246t82 -246q85 -88 223 -88q141 0 223 88q84 87 84 246t-84 246q-82 88 -223 88z
M473 1169l74 318l172 -60l-121 -299zM697 1169l125 314l159 -72l-159 -289z" />
    <glyph glyph-name="OE" unicode="&#x152;" horiz-adv-x="2240" 
d="M76 614q0 305 192 478q173 159 461 159q125 0 229 -37q102 -38 158 -100v115h1014v-207h-752v-279h668v-204h-668v-332h776v-207h-1038v111q-51 -51 -127 -82q-110 -52 -260 -52q-302 0 -473 168q-180 166 -180 469zM1116 614q0 221 -110 334q-104 101 -277 101
q-166 0 -270 -97q-117 -111 -117 -338q0 -206 94 -317q102 -117 293 -117q182 0 283 109q104 110 104 325z" />
    <glyph glyph-name="oe" unicode="&#x153;" horiz-adv-x="2117" 
d="M1489 1042q245 0 389 -129q164 -148 164 -413v-88h-842q11 -109 88 -170q42 -32 112.5 -49t145.5 -17q175 0 340 57l49 -174q-175 -77 -393 -77q-200 0 -321 59q-94 45 -150 119h-10q-72 -88 -168 -129q-110 -49 -258 -49q-237 0 -385 124q-174 141 -174 406
q0 243 166 393q153 137 393 137q137 0 244 -43q110 -46 182 -133h8q65 82 170 127q104 49 250 49zM635 846q-139 0 -221 -88q-84 -90 -84 -246q0 -161 90 -254q80 -80 215 -80q150 0 229 82q76 79 76 252q0 179 -84 260q-77 74 -221 74zM1491 848q-135 0 -209 -68
q-69 -63 -86 -178h590q-15 126 -90 186q-72 60 -205 60z" />
    <glyph glyph-name="Racute" unicode="&#x154;" horiz-adv-x="1302" 
d="M127 1229h616q230 0 365 -129q119 -119 119 -303q0 -147 -103 -271q-60 -73 -166 -118l252 -408h-284l-209 365h-324v-365h-266v1229zM961 801q0 104 -58 162q-60 63 -172 63h-338v-457h334q110 0 174 64q60 63 60 168zM504 1372l133 318l192 -91l-165 -296z" />
    <glyph glyph-name="racute" unicode="&#x155;" horiz-adv-x="1136" 
d="M127 1024h188l33 -94q133 112 332 112q119 0 211 -27t180 -89l-115 -172q-128 88 -288 88q-165 0 -289 -94v-748h-252v1024zM493 1184l119 305l189 -90l-160 -283z" />
    <glyph glyph-name="Rcommaaccent" unicode="&#x156;" horiz-adv-x="1302" 
d="M127 1229h616q230 0 365 -129q119 -119 119 -303q0 -147 -103 -271q-60 -73 -166 -118l252 -408h-284l-209 365h-324v-365h-266v1229zM961 801q0 104 -58 162q-60 63 -172 63h-338v-457h334q110 0 174 64q60 63 60 168zM633 45q67 0 105 -38t38 -97q0 -32 -12 -68
l-98 -254l-113 25l27 168q-42 9 -66.5 44t-24.5 85q0 59 38.5 97t105.5 38z" />
    <glyph glyph-name="rcommaaccent" unicode="&#x157;" horiz-adv-x="1128" 
d="M127 1024h188l33 -94q133 112 332 112q119 0 211 -27t180 -89l-115 -172q-128 88 -288 88q-165 0 -289 -94v-748h-252v1024zM256 -66q64 0 101.5 -37t37.5 -94q0 -29 -12 -65l-94 -244l-109 23l25 161q-41 9 -63.5 43t-22.5 82q0 57 37 94t100 37z" />
    <glyph glyph-name="Rcaron" unicode="&#x158;" horiz-adv-x="1302" 
d="M127 1229h616q230 0 365 -129q119 -119 119 -303q0 -147 -103 -271q-60 -73 -166 -118l252 -408h-284l-209 365h-324v-365h-266v1229zM961 801q0 104 -58 162q-60 63 -172 63h-338v-457h334q110 0 174 64q60 63 60 168zM328 1561l86 100l217 -158l215 158l84 -100
l-268 -256h-64z" />
    <glyph glyph-name="rcaron" unicode="&#x159;" horiz-adv-x="1136" 
d="M127 1024h188l33 -94q133 112 332 112q119 0 211 -27t180 -89l-115 -172q-128 88 -288 88q-165 0 -289 -94v-748h-252v1024zM372 1350l84 100l209 -143l207 143l82 -100l-260 -246h-59z" />
    <glyph glyph-name="Sacute" unicode="&#x15a;" horiz-adv-x="1335" 
d="M78 885q0 168 125 256q146 110 461 110q148 0 258 -20t241 -72l-69 -188q-118 39 -210.5 55t-207.5 16q-199 0 -279 -45q-57 -31 -57 -86q0 -52 39 -80q43 -33 141 -47l305 -47q239 -38 330 -129q96 -96 96 -235q0 -189 -157 -289q-168 -107 -476 -107q-278 0 -540 93
l57 196q241 -71 471 -71q203 0 301 49q78 41 78 121q0 36 -14 61t-44 40.5t-61.5 23.5t-81.5 16l-313 43q-190 27 -287 102q-106 82 -106 234zM586 1372l133 318l192 -91l-166 -296z" />
    <glyph glyph-name="sacute" unicode="&#x15b;" horiz-adv-x="1177" 
d="M1040 961l-61 -170q-171 55 -379 55q-164 0 -229 -33q-47 -26 -47 -68q0 -44 34 -65q33 -22 99 -29l266 -24q184 -18 276 -88q103 -79 103 -209q0 -162 -125 -250q-139 -98 -447 -98q-240 0 -452 88l59 180q191 -72 381 -72q186 0 260 35q76 29 76 100q0 48 -39 72
q-40 26 -131 35l-278 26q-163 14 -252 93q-78 72 -78 194q0 72 35 132t100 100q129 77 389 77q235 0 440 -81zM524 1184l119 305l189 -90l-160 -283z" />
    <glyph glyph-name="Scircumflex" unicode="&#x15c;" horiz-adv-x="1335" 
d="M78 885q0 168 125 256q146 110 461 110q148 0 258 -20t241 -72l-69 -188q-118 39 -210.5 55t-207.5 16q-199 0 -279 -45q-57 -31 -57 -86q0 -52 39 -80q43 -33 141 -47l305 -47q239 -38 330 -129q96 -96 96 -235q0 -189 -157 -289q-168 -107 -476 -107q-278 0 -540 93
l57 196q241 -71 471 -71q203 0 301 49q78 41 78 121q0 36 -14 61t-44 40.5t-61.5 23.5t-81.5 16l-313 43q-190 27 -287 102q-106 82 -106 234zM451 1307l-84 100l268 256h63l271 -256l-84 -100l-217 157z" />
    <glyph glyph-name="scircumflex" unicode="&#x15d;" horiz-adv-x="1177" 
d="M1040 961l-61 -170q-171 55 -379 55q-164 0 -229 -33q-47 -26 -47 -68q0 -44 34 -65q33 -22 99 -29l266 -24q184 -18 276 -88q103 -79 103 -209q0 -162 -125 -250q-139 -98 -447 -98q-240 0 -452 88l59 180q191 -72 381 -72q186 0 260 35q76 29 76 100q0 48 -39 72
q-40 26 -131 35l-278 26q-163 14 -252 93q-78 72 -78 194q0 72 35 132t100 100q129 77 389 77q235 0 440 -81zM885 1204l-84 -100l-213 141l-209 -141l-84 100l265 246h61z" />
    <glyph glyph-name="Scedilla" unicode="&#x15e;" horiz-adv-x="1335" 
d="M78 885q0 168 125 256q146 110 461 110q149 0 263 -20t244 -72l-69 -188q-116 39 -213 55t-213 16q-199 0 -279 -45q-57 -31 -57 -86q0 -52 39 -80q43 -33 141 -47l314 -47q238 -38 329 -129q97 -97 97 -235q0 -189 -158 -289q-152 -97 -432 -104l-4 -48q86 0 135 -43
q43 -37 43 -110q0 -93 -84 -154q-89 -63 -258 -88l-33 96q86 23 129 56q55 38 55 92q0 25 -14 33q-17 10 -47 10h-41l-23 22v134q-232 12 -450 90l57 196q241 -71 471 -71q211 0 309 49q78 41 78 121q0 29 -11 51.5t-29 37t-45.5 25.5t-53.5 16.5t-61 10.5l-322 43
q-190 27 -287 102q-106 82 -106 234z" />
    <glyph glyph-name="scedilla" unicode="&#x15f;" horiz-adv-x="1177" 
d="M1040 961l-61 -170q-171 55 -379 55q-164 0 -229 -33q-47 -26 -47 -68q0 -44 34 -65q33 -22 99 -29l266 -24q184 -18 276 -88q103 -79 103 -209q0 -162 -125 -250q-124 -83 -365 -96l-2 -62q63 -3 101 -39q41 -41 41 -102q0 -49 -26.5 -91t-71.5 -71.5t-92.5 -49.5
t-100.5 -34l-33 103q80 25 119 59q43 37 43 82q0 22 -12 31q-13 10 -39 10h-39l-21 18v146q-204 6 -401 86l59 180q191 -72 381 -72q186 0 260 35q76 29 76 100q0 48 -39 72q-40 26 -131 35l-278 26q-163 14 -252 93q-78 72 -78 194q0 72 35 132t100 100q129 77 389 77
q235 0 440 -81z" />
    <glyph glyph-name="Scaron" unicode="&#x160;" horiz-adv-x="1335" 
d="M78 885q0 168 125 256q146 110 461 110q148 0 258 -20t241 -72l-69 -188q-118 39 -210.5 55t-207.5 16q-199 0 -279 -45q-57 -31 -57 -86q0 -52 39 -80q43 -33 141 -47l305 -47q239 -38 330 -129q96 -96 96 -235q0 -189 -157 -289q-168 -107 -476 -107q-278 0 -540 93
l57 196q241 -71 471 -71q203 0 301 49q78 41 78 121q0 36 -14 61t-44 40.5t-61.5 23.5t-81.5 16l-313 43q-190 27 -287 102q-106 82 -106 234zM367 1561l86 100l217 -158l215 158l84 -100l-269 -256h-63z" />
    <glyph glyph-name="scaron" unicode="&#x161;" horiz-adv-x="1177" 
d="M1040 961l-61 -170q-171 55 -379 55q-164 0 -229 -33q-47 -26 -47 -68q0 -44 34 -65q33 -22 99 -29l266 -24q184 -18 276 -88q103 -79 103 -209q0 -162 -125 -250q-139 -98 -447 -98q-240 0 -452 88l59 180q191 -72 381 -72q186 0 260 35q76 29 76 100q0 48 -39 72
q-40 26 -131 35l-278 26q-163 14 -252 93q-78 72 -78 194q0 72 35 132t100 100q129 77 389 77q235 0 440 -81zM290 1350l84 100l209 -143l207 143l82 -100l-260 -246h-59z" />
    <glyph glyph-name="Tcommaaccent" unicode="&#x162;" horiz-adv-x="1312" 
d="M55 1026v203h1202v-203h-469v-1026h-266v1026h-467zM657 -72q66 0 105 -38t39 -97q0 -28 -13 -67l-98 -254l-112 22l26 168q-42 10 -66 45.5t-24 85.5q0 59 38 97t105 38z" />
    <glyph glyph-name="tcommaaccent" unicode="&#x163;" horiz-adv-x="972" 
d="M45 827v170l180 17l31 252h215v-242h418v-176l-418 -19v-471q0 -76 37 -122q45 -48 141 -48q134 0 269 58l61 -156q-87 -57 -176 -82.5t-205 -25.5q-198 0 -293 102q-86 92 -86 264v479h-174zM584 -78q64 0 101.5 -37t37.5 -94q0 -29 -12 -65l-95 -244l-108 22l24 162
q-41 9 -63.5 43t-22.5 82q0 57 37.5 94t100.5 37z" />
    <glyph glyph-name="Tcaron" unicode="&#x164;" horiz-adv-x="1312" 
d="M55 1026v203h1202v-203h-469v-1026h-266v1026h-467zM352 1561l86 100l217 -158l215 158l84 -100l-268 -256h-63z" />
    <glyph glyph-name="tcaron" unicode="&#x165;" horiz-adv-x="1153" 
d="M45 827v170l180 17l31 252h215v-242h418v-176l-418 -19v-471q0 -76 37 -122q45 -48 141 -48q134 0 269 58l61 -156q-87 -57 -176 -82.5t-205 -25.5q-198 0 -293 102q-86 92 -86 264v479h-174zM1018 1327q66 0 102.5 -36.5t36.5 -94.5q0 -32 -12 -68l-101 -241l-106 33
l29 147q-90 24 -90 129q0 57 37.5 94t103.5 37z" />
    <glyph glyph-name="Utilde" unicode="&#x168;" horiz-adv-x="1402" 
d="M127 532v697h266v-705q0 -164 84 -254q80 -86 225 -86q154 0 230 82q82 88 82 258v705h262v-697q0 -263 -156 -409q-155 -146 -420 -146q-256 0 -409 138q-161 145 -164 417zM688 1370q-84 37 -162 37q-83 0 -141 -43l-70 115q112 100 230 100q72 0 157 -31
q89 -39 172 -39q77 0 140 43l71 -114q-100 -103 -221 -103q-89 0 -176 35z" />
    <glyph glyph-name="utilde" unicode="&#x169;" horiz-adv-x="1302" 
d="M1176 0h-189l-35 94q-139 -112 -344 -112q-233 0 -346 102q-141 116 -141 371v569h254v-557q0 -156 67 -223q64 -64 191 -64q88 0 155 21.5t134 72.5v750h254v-1024zM643 1159q-81 35 -150 35q-81 0 -133 -43l-68 113q103 90 211 90q65 0 144 -29q87 -33 159 -33
q73 0 129 41l68 -110q-85 -95 -201 -95q-80 0 -159 31z" />
    <glyph glyph-name="Umacron" unicode="&#x16a;" horiz-adv-x="1402" 
d="M127 532v697h266v-705q0 -164 84 -254q80 -86 225 -86q154 0 230 82q82 88 82 258v705h262v-697q0 -263 -156 -409q-155 -146 -420 -146q-256 0 -409 138q-161 145 -164 417zM356 1526h691v-172h-691v172z" />
    <glyph glyph-name="umacron" unicode="&#x16b;" horiz-adv-x="1302" 
d="M1176 0h-189l-35 94q-139 -112 -344 -112q-233 0 -346 102q-141 116 -141 371v569h254v-557q0 -156 67 -223q64 -64 191 -64q88 0 155 21.5t134 72.5v750h254v-1024zM329 1303h637v-154h-637v154z" />
    <glyph glyph-name="Ubreve" unicode="&#x16c;" horiz-adv-x="1402" 
d="M127 532v697h266v-705q0 -164 84 -254q80 -86 225 -86q154 0 230 82q82 88 82 258v705h262v-697q0 -263 -156 -409q-155 -146 -420 -146q-256 0 -409 138q-161 145 -164 417zM389 1567l172 18q8 -56 47 -92q37 -29 92 -29q58 0 91 29q35 28 47 92l172 -18
q-15 -130 -97 -203q-81 -72 -213 -72t-217 76q-79 70 -94 199z" />
    <glyph glyph-name="ubreve" unicode="&#x16d;" horiz-adv-x="1302" 
d="M1176 0h-189l-35 94q-139 -112 -344 -112q-233 0 -346 102q-141 116 -141 371v569h254v-557q0 -156 67 -223q64 -64 191 -64q88 0 155 21.5t134 72.5v750h254v-1024zM369 1348l164 16q6 -55 37 -82q30 -24 80 -24q53 0 79 26q30 30 35 80l164 -16q-9 -116 -84 -184
q-74 -68 -194 -68q-118 0 -195 68q-74 68 -86 184z" />
    <glyph glyph-name="Uring" unicode="&#x16e;" horiz-adv-x="1402" 
d="M127 532v697h266v-705q0 -164 84 -254q80 -86 225 -86q154 0 230 82q82 88 82 258v705h262v-697q0 -263 -156 -409q-155 -146 -420 -146q-256 0 -409 138q-161 145 -164 417zM700 1292q-107 0 -174 64q-67 67 -67 172q0 104 69 170q68 65 172 65q109 0 177 -71
q65 -65 65 -164q0 -104 -63 -164q-66 -72 -179 -72zM805 1528q0 47 -29 76q-29 26 -76 26q-52 0 -77 -28q-29 -20 -29 -74q0 -45 31 -76q30 -27 75 -27q49 0 80 31q25 22 25 72z" />
    <glyph glyph-name="uring" unicode="&#x16f;" horiz-adv-x="1302" 
d="M1176 0h-189l-35 94q-139 -112 -344 -112q-233 0 -346 102q-141 116 -141 371v569h254v-557q0 -156 67 -223q64 -64 191 -64q88 0 155 21.5t134 72.5v750h254v-1024zM641 1102q-97 0 -162 62q-64 64 -64 159q0 97 64 158q65 62 162 62q101 0 166 -68q59 -56 59 -152
q0 -95 -57 -155q-60 -63 -168 -66zM739 1323q0 45 -27 72q-30 27 -71 27q-44 0 -74 -27q-25 -25 -25 -72q0 -44 27 -71q28 -25 72 -25q48 0 75 27q23 26 23 69z" />
    <glyph glyph-name="Uhungarumlaut" unicode="&#x170;" horiz-adv-x="1402" 
d="M127 532v697h266v-705q0 -164 84 -254q80 -86 225 -86q154 0 230 82q82 88 82 258v705h262v-697q0 -263 -156 -409q-155 -146 -420 -146q-256 0 -409 138q-161 145 -164 417zM489 1358l82 352l189 -65l-131 -332zM733 1360l139 346l177 -80l-179 -317z" />
    <glyph glyph-name="uhungarumlaut" unicode="&#x171;" horiz-adv-x="1302" 
d="M1176 0h-189l-35 94q-139 -112 -344 -112q-233 0 -346 102q-141 116 -141 371v569h254v-557q0 -156 67 -223q64 -64 191 -64q88 0 155 21.5t134 72.5v750h254v-1024zM463 1153l74 317l172 -59l-121 -299zM686 1153l125 313l160 -71l-160 -289z" />
    <glyph glyph-name="Uogonek" unicode="&#x172;" horiz-adv-x="1402" 
d="M127 532v697h266v-705q0 -164 84 -254q80 -86 225 -86q154 0 230 82q82 88 82 258v705h262v-697q0 -263 -156 -409q-117 -111 -305 -135q-19 -12 -39 -45q-16 -33 -16 -76q0 -50 26 -94q29 -47 80 -76l-63 -78q-110 29 -166 82q-51 54 -51 139q0 81 65 140
q-225 12 -360 135q-161 145 -164 417z" />
    <glyph glyph-name="uogonek" unicode="&#x173;" horiz-adv-x="1302" 
d="M1176 0q-29 -23 -43 -45q-17 -27 -17 -64q0 -45 23 -81q27 -39 82 -64l-47 -80q-105 12 -156 58q-60 50 -60 131q0 51 21 94q13 27 47 57l-74 88q-139 -112 -344 -112q-233 0 -346 102q-141 116 -141 371v569h254v-557q0 -156 67 -223q64 -64 191 -64q88 0 155 21.5
t134 72.5v750h254v-1024z" />
    <glyph glyph-name="Wcircumflex" unicode="&#x174;" horiz-adv-x="2064" 
d="M55 1229h277l274 -971h23l258 971h305l262 -971h21l272 971h260l-379 -1229h-346l-240 893h-18l-244 -893h-340zM815 1298l-84 101l268 256h64l270 -256l-84 -101l-217 158z" />
    <glyph glyph-name="wcircumflex" unicode="&#x175;" horiz-adv-x="1875" 
d="M55 1024h264l240 -799h19l204 799h314l223 -799h18l232 799h252l-330 -1024h-336l-215 756h-10l-203 -756h-342zM1233 1204l-84 -100l-213 141l-209 -141l-84 100l265 246h61z" />
    <glyph glyph-name="Ycircumflex" unicode="&#x176;" horiz-adv-x="1441" 
d="M854 0h-264v291l-535 938h293l369 -697h12l371 697h286l-532 -934v-295zM504 1288l-84 101l268 256h64l270 -256l-84 -101l-217 158z" />
    <glyph glyph-name="ycircumflex" unicode="&#x177;" horiz-adv-x="1304" 
d="M510 0l-469 1024h272l344 -797h31l307 797h267l-482 -1151q-48 -113 -133 -166q-68 -45 -184 -45q-75 0 -146 27l25 168q79 -9 92 -9q49 0 78 23q40 25 55 80l21 49h-78zM962 1204l-84 -100l-213 141l-209 -141l-84 100l265 246h61z" />
    <glyph glyph-name="Ydieresis" unicode="&#x178;" horiz-adv-x="1441" 
d="M854 0h-264v291l-535 938h293l369 -697h12l371 697h286l-532 -934v-295zM496 1614q70 0 110.5 -40.5t40.5 -103.5q0 -60 -40.5 -99.5t-110.5 -39.5q-69 0 -109.5 39.5t-40.5 99.5q0 63 40.5 103.5t109.5 40.5zM944 1614q72 0 112 -40t40 -104q0 -61 -40.5 -100
t-111.5 -39q-69 0 -109 39.5t-40 99.5q0 63 40 103.5t109 40.5z" />
    <glyph glyph-name="Zacute" unicode="&#x179;" horiz-adv-x="1210" 
d="M1145 209v-209h-1079v168l735 860l-269 -6h-432v207h1030v-156l-735 -872l250 8h500zM483 1372l133 318l193 -91l-166 -296z" />
    <glyph glyph-name="zacute" unicode="&#x17a;" horiz-adv-x="1116" 
d="M92 821v203h948v-133l-620 -688h620v-203h-964v141l606 680h-590zM448 1184l119 305l189 -90l-160 -283z" />
    <glyph glyph-name="Zdotaccent" unicode="&#x17b;" horiz-adv-x="1210" 
d="M1145 209v-209h-1079v168l735 860l-269 -6h-432v207h1030v-156l-735 -872l250 8h500zM596 1608q70 0 109.5 -39.5t39.5 -102.5q0 -59 -39.5 -98t-109.5 -39q-67 0 -106 39t-39 98q0 63 38.5 102.5t106.5 39.5z" />
    <glyph glyph-name="zdotaccent" unicode="&#x17c;" horiz-adv-x="1116" 
d="M92 821v203h948v-133l-620 -688h620v-203h-964v141l606 680h-590zM555 1364q63 0 98 -34.5t35 -90.5q0 -54 -35 -88.5t-98 -34.5q-60 0 -94.5 34.5t-34.5 88.5q0 55 34.5 90t94.5 35z" />
    <glyph glyph-name="Zcaron" unicode="&#x17d;" horiz-adv-x="1210" 
d="M1145 209v-209h-1079v168l735 860l-269 -6h-432v207h1030v-156l-735 -872l250 8h500zM330 1561l86 100l217 -158l215 158l84 -100l-268 -256h-64z" />
    <glyph glyph-name="zcaron" unicode="&#x17e;" horiz-adv-x="1116" 
d="M92 821v203h948v-133l-620 -688h620v-203h-964v141l606 680h-590zM268 1350l84 100l209 -143l207 143l82 -100l-260 -246h-60z" />
    <glyph glyph-name="longs" unicode="&#x17f;" horiz-adv-x="747" 
d="M127 0v1069q0 172 125 281q112 94 295 94q221 0 391 -115l-86 -155q-136 71 -268 71q-115 0 -162 -53q-41 -44 -41 -129v-1063h-254z" />
    <glyph glyph-name="florin" unicode="&#x192;" horiz-adv-x="940" 
d="M117 -367l-54 162q86 23 132 78q43 59 43 143v811h-175v170l175 19v53q0 173 124 281q112 94 295 94q222 0 392 -115l-86 -155q-136 71 -269 71q-115 0 -162 -53q-40 -43 -40 -129v-39h380v-178l-380 -17v-813q0 -177 -121 -282q-94 -82 -254 -101z" />
    <glyph glyph-name="uni0200" unicode="&#x200;" horiz-adv-x="1509" 
d="M606 1229h297l551 -1229h-276l-88 201h-676l-88 -201h-271zM737 983l-235 -577h499l-237 577h-27zM817 1731l84 -353l-139 -45l-131 332zM518 1726l139 -346l-137 -51l-178 318z" />
    <glyph glyph-name="uni0201" unicode="&#x201;" horiz-adv-x="1257" 
d="M1122 690v-395q0 -78 10 -132t37 -120l-141 -59q-65 46 -104 108q-174 -110 -369 -110q-234 0 -354 88q-125 94 -125 270q0 175 153 270q133 80 334 80q162 0 307 -37v52q0 65 -57 98q-66 43 -231 43q-180 0 -365 -55l-45 167q117 46 220 65t235 19q269 0 389 -104
q106 -89 106 -248zM559 498q-102 0 -166 -41q-61 -38 -61 -115q0 -73 55 -115q63 -47 195 -47q153 0 288 66v233q-170 19 -311 19zM735 1487l74 -318l-125 -41l-119 299zM461 1483l127 -314l-125 -47l-162 289z" />
    <glyph glyph-name="uni0202" unicode="&#x202;" horiz-adv-x="1509" 
d="M606 1229h297l551 -1229h-276l-88 201h-676l-88 -201h-271zM737 983l-235 -577h499l-237 577h-27zM537 1307l-84 100l268 256h63l271 -256l-84 -100l-217 157z" />
    <glyph glyph-name="uni0203" unicode="&#x203;" horiz-adv-x="1257" 
d="M1122 690v-395q0 -78 10 -132t37 -120l-141 -59q-65 46 -104 108q-174 -110 -369 -110q-234 0 -354 88q-125 94 -125 270q0 175 153 270q133 80 334 80q162 0 307 -37v52q0 65 -57 98q-66 43 -231 43q-180 0 -365 -55l-45 167q117 46 220 65t235 19q269 0 389 -104
q106 -89 106 -248zM559 498q-102 0 -166 -41q-61 -38 -61 -115q0 -73 55 -115q63 -47 195 -47q153 0 288 66v233q-170 19 -311 19zM917 1204l-84 -100l-213 141l-209 -141l-84 100l265 246h61z" />
    <glyph glyph-name="uni0204" unicode="&#x204;" horiz-adv-x="1251" 
d="M127 0v1229h1012v-207h-750v-279h668v-204h-668v-332h776v-207h-1038zM770 1731l84 -353l-139 -45l-131 332zM471 1726l139 -346l-137 -51l-178 318z" />
    <glyph glyph-name="uni0205" unicode="&#x205;" 
d="M631 1042q260 0 397 -131q160 -147 160 -411v-88h-846q11 -92 78 -156q42 -40 113.5 -60t152.5 -20q191 0 344 51l51 -168q-175 -77 -401 -77q-135 0 -252 36t-188 101q-164 148 -164 393q0 234 151 379q158 151 404 151zM635 848q-136 0 -215 -76q-66 -63 -84 -170h594
q-12 117 -84 180q-72 66 -211 66zM727 1487l74 -318l-125 -41l-119 299zM453 1483l127 -314l-125 -47l-162 289z" />
    <glyph glyph-name="uni0206" unicode="&#x206;" horiz-adv-x="1251" 
d="M127 0v1229h1012v-207h-750v-279h668v-204h-668v-332h776v-207h-1038zM434 1307l-84 100l268 256h64l270 -256l-84 -100l-217 157z" />
    <glyph glyph-name="uni0207" unicode="&#x207;" 
d="M631 1042q260 0 397 -131q160 -147 160 -411v-88h-846q11 -92 78 -156q42 -40 113.5 -60t152.5 -20q191 0 344 51l51 -168q-175 -77 -401 -77q-135 0 -252 36t-188 101q-164 148 -164 393q0 234 151 379q158 151 404 151zM635 848q-136 0 -215 -76q-66 -63 -84 -170h594
q-12 117 -84 180q-72 66 -211 66zM923 1204l-84 -100l-213 141l-209 -141l-84 100l265 246h61z" />
    <glyph glyph-name="uni0208" unicode="&#x208;" horiz-adv-x="516" 
d="M127 1229h262v-1229h-262v1229zM379 1731l84 -353l-139 -45l-131 332zM80 1726l139 -346l-137 -51l-178 318z" />
    <glyph glyph-name="uni0209" unicode="&#x209;" horiz-adv-x="542" 
d="M45 858v166h371v-1024h-252v842zM397 1487l74 -318l-125 -41l-119 299zM123 1483l127 -314l-125 -47l-162 289z" />
    <glyph glyph-name="uni020A" unicode="&#x20a;" horiz-adv-x="516" 
d="M127 1229h262v-1229h-262v1229zM41 1307l-84 100l268 256h64l270 -256l-84 -100l-217 157z" />
    <glyph glyph-name="uni020B" unicode="&#x20b;" horiz-adv-x="589" 
d="M72 858v166h370v-1024h-252v842zM592 1204l-84 -100l-213 141l-209 -141l-84 100l264 246h62z" />
    <glyph glyph-name="uni020C" unicode="&#x20c;" horiz-adv-x="1456" 
d="M1116 614q0 215 -106 330q-105 105 -281 105q-181 0 -280 -107q-107 -110 -107 -328q0 -202 92 -313q100 -121 295 -121q196 0 295 123q92 115 92 311zM76 614q0 290 176 463q177 174 477 174q138 0 257.5 -41.5t205.5 -119.5q188 -167 188 -476q0 -274 -149 -440
q-178 -197 -502 -197q-302 0 -473 168q-180 166 -180 469zM819 1731l84 -353l-139 -45l-131 332zM520 1726l139 -346l-137 -51l-178 318z" />
    <glyph glyph-name="uni020D" unicode="&#x20d;" horiz-adv-x="1271" 
d="M635 1042q242 0 397 -139q164 -148 164 -391t-164 -391q-155 -139 -397 -139q-239 0 -397 139q-162 146 -162 391t162 391q158 139 397 139zM635 846q-138 0 -223 -88q-82 -88 -82 -246t82 -246q85 -88 223 -88q141 0 223 88q84 87 84 246t-84 246q-82 88 -223 88z
M741 1487l74 -318l-125 -41l-119 299zM467 1483l127 -314l-125 -47l-162 289z" />
    <glyph glyph-name="uni020E" unicode="&#x20e;" horiz-adv-x="1456" 
d="M1116 614q0 215 -106 330q-105 105 -281 105q-181 0 -280 -107q-107 -110 -107 -328q0 -202 92 -313q100 -121 295 -121q196 0 295 123q92 115 92 311zM76 614q0 290 176 463q177 174 477 174q138 0 257.5 -41.5t205.5 -119.5q188 -167 188 -476q0 -274 -149 -440
q-178 -197 -502 -197q-302 0 -473 168q-180 166 -180 469zM510 1307l-84 100l268 256h64l270 -256l-84 -100l-217 157z" />
    <glyph glyph-name="uni020F" unicode="&#x20f;" horiz-adv-x="1271" 
d="M635 1042q242 0 397 -139q164 -148 164 -391t-164 -391q-155 -139 -397 -139q-239 0 -397 139q-162 146 -162 391t162 391q158 139 397 139zM635 846q-138 0 -223 -88q-82 -88 -82 -246t82 -246q85 -88 223 -88q141 0 223 88q84 87 84 246t-84 246q-82 88 -223 88z
M923 1204l-84 -100l-213 141l-209 -141l-84 100l265 246h61z" />
    <glyph glyph-name="uni0210" unicode="&#x210;" horiz-adv-x="1302" 
d="M127 1229h616q230 0 365 -129q119 -119 119 -303q0 -147 -103 -271q-60 -73 -166 -118l252 -408h-284l-209 365h-324v-365h-266v1229zM961 801q0 104 -58 162q-60 63 -172 63h-338v-457h334q110 0 174 64q60 63 60 168zM725 1731l84 -353l-139 -45l-131 332zM426 1726
l139 -346l-137 -51l-178 318z" />
    <glyph glyph-name="uni0211" unicode="&#x211;" horiz-adv-x="1136" 
d="M127 1024h188l33 -94q133 112 332 112q119 0 211 -27t180 -89l-115 -172q-128 88 -288 88q-165 0 -289 -94v-748h-252v1024zM741 1487l74 -318l-125 -41l-119 299zM467 1483l127 -314l-125 -47l-162 289z" />
    <glyph glyph-name="uni0212" unicode="&#x212;" horiz-adv-x="1302" 
d="M127 1229h616q230 0 365 -129q119 -119 119 -303q0 -147 -103 -271q-60 -73 -166 -118l252 -408h-284l-209 365h-324v-365h-266v1229zM961 801q0 104 -58 162q-60 63 -172 63h-338v-457h334q110 0 174 64q60 63 60 168zM397 1307l-84 100l269 256h63l270 -256l-84 -100
l-217 157z" />
    <glyph glyph-name="uni0213" unicode="&#x213;" horiz-adv-x="1136" 
d="M127 1024h188l33 -94q133 112 332 112q119 0 211 -27t180 -89l-115 -172q-128 88 -288 88q-165 0 -289 -94v-748h-252v1024zM952 1204l-84 -100l-213 141l-209 -141l-84 100l265 246h61z" />
    <glyph glyph-name="uni0214" unicode="&#x214;" horiz-adv-x="1402" 
d="M127 532v697h266v-705q0 -164 84 -254q80 -86 225 -86q154 0 230 82q82 88 82 258v705h262v-697q0 -263 -156 -409q-155 -146 -420 -146q-256 0 -409 138q-161 145 -164 417zM836 1698l84 -352l-140 -46l-131 332zM537 1694l139 -346l-137 -52l-179 318z" />
    <glyph glyph-name="uni0215" unicode="&#x215;" horiz-adv-x="1302" 
d="M1176 0h-189l-35 94q-139 -112 -344 -112q-233 0 -346 102q-141 116 -141 371v569h254v-557q0 -156 67 -223q64 -64 191 -64q88 0 155 21.5t134 72.5v750h254v-1024zM758 1466l73 -317l-124 -41l-119 299zM483 1462l127 -313l-125 -47l-161 289z" />
    <glyph glyph-name="uni0216" unicode="&#x216;" horiz-adv-x="1402" 
d="M127 532v697h266v-705q0 -164 84 -254q80 -86 225 -86q154 0 230 82q82 88 82 258v705h262v-697q0 -263 -156 -409q-155 -146 -420 -146q-256 0 -409 138q-161 145 -164 417zM481 1288l-84 101l269 256h63l270 -256l-84 -101l-217 158z" />
    <glyph glyph-name="uni0217" unicode="&#x217;" horiz-adv-x="1302" 
d="M1176 0h-189l-35 94q-139 -112 -344 -112q-233 0 -346 102q-141 116 -141 371v569h254v-557q0 -156 67 -223q64 -64 191 -64q88 0 155 21.5t134 72.5v750h254v-1024zM944 1204l-84 -100l-213 141l-209 -141l-84 100l265 246h61z" />
    <glyph glyph-name="Scommaaccent" unicode="&#x218;" horiz-adv-x="1335" 
d="M78 885q0 168 125 256q146 110 461 110q148 0 258 -20t241 -72l-69 -188q-118 39 -210.5 55t-207.5 16q-199 0 -279 -45q-57 -31 -57 -86q0 -52 39 -80q43 -33 141 -47l305 -47q239 -38 330 -129q96 -96 96 -235q0 -189 -157 -289q-168 -107 -476 -107q-278 0 -540 93
l57 196q241 -71 471 -71q203 0 301 49q78 41 78 121q0 36 -14 61t-44 40.5t-61.5 23.5t-81.5 16l-313 43q-190 27 -287 102q-106 82 -106 234zM639 -70q67 0 105 -38t38 -97q0 -31 -12 -67l-98 -254l-113 24l27 168q-42 9 -66 44t-24 85q0 59 38 97t105 38z" />
    <glyph glyph-name="scommaaccent" unicode="&#x219;" horiz-adv-x="1177" 
d="M1040 961l-61 -170q-171 55 -379 55q-164 0 -229 -33q-47 -26 -47 -68q0 -44 34 -65q33 -22 99 -29l266 -24q184 -18 276 -88q103 -79 103 -209q0 -162 -125 -250q-139 -98 -447 -98q-240 0 -452 88l59 180q191 -72 381 -72q186 0 260 35q76 29 76 100q0 48 -39 72
q-40 26 -131 35l-278 26q-163 14 -252 93q-78 72 -78 194q0 72 35 132t100 100q129 77 389 77q235 0 440 -81zM549 -63q64 0 101.5 -37.5t37.5 -94.5q0 -29 -12 -65l-94 -244l-109 23l25 162q-41 9 -63.5 42.5t-22.5 81.5q0 57 37 94.5t100 37.5z" />
    <glyph glyph-name="uni021A" unicode="&#x21a;" horiz-adv-x="1312" 
d="M55 1026v203h1202v-203h-469v-1026h-266v1026h-467zM655 -70q67 0 105.5 -38t38.5 -97q0 -28 -13 -67l-98 -254l-113 24l27 168q-42 9 -66 44t-24 85q0 59 38 97t105 38z" />
    <glyph glyph-name="uni021B" unicode="&#x21b;" horiz-adv-x="972" 
d="M45 827v170l180 17l31 252h215v-242h418v-176l-418 -19v-471q0 -76 37 -122q45 -48 141 -48q134 0 269 58l61 -156q-87 -57 -176 -82.5t-205 -25.5q-198 0 -293 102q-86 92 -86 264v479h-174zM586 -70q64 0 101.5 -37t37.5 -94q0 -29 -12 -65l-95 -244l-108 23l25 161
q-41 9 -63.5 43t-22.5 82q0 57 37 94t100 37z" />
    <glyph glyph-name="dotlessj" unicode="&#x237;" horiz-adv-x="542" 
d="M45 858v166h371v-1030q0 -169 -99 -279q-112 -118 -325 -118q-103 0 -180.5 21.5t-169.5 70.5l71 170q76 -33 132.5 -45.5t129.5 -12.5q97 0 148 58q41 47 41 135v848z" />
    <glyph glyph-name="circumflex" unicode="&#x2c6;" horiz-adv-x="794" 
d="M692 1204l-84 -100l-213 141l-209 -141l-84 100l265 246h61z" />
    <glyph glyph-name="caron" unicode="&#x2c7;" horiz-adv-x="786" 
d="M102 1350l84 100l209 -143l207 143l82 -100l-260 -246h-59z" />
    <glyph glyph-name="uni02C9" unicode="&#x2c9;" horiz-adv-x="718" 
d="M25 1489h669v-176h-669v176z" />
    <glyph glyph-name="breve" unicode="&#x2d8;" horiz-adv-x="782" 
d="M125 1362l164 16q6 -55 37 -82q30 -24 80 -24q53 0 79 26q30 30 35 80l164 -16q-9 -116 -84 -184q-74 -68 -194 -68q-118 0 -195 68q-74 68 -86 184z" />
    <glyph glyph-name="dotaccent" unicode="&#x2d9;" horiz-adv-x="466" 
d="M231 236q63 0 98.5 -34.5t35.5 -90.5q0 -54 -35.5 -88.5t-98.5 -34.5q-60 0 -94.5 34.5t-34.5 88.5q0 55 34.5 90t94.5 35z" />
    <glyph glyph-name="ring" unicode="&#x2da;" horiz-adv-x="655" 
d="M328 1122q-97 0 -162 62q-64 64 -64 159q0 97 64 158q65 62 162 62q101 0 166 -68q59 -56 59 -152q0 -95 -57 -155q-60 -63 -168 -66zM426 1343q0 45 -27 72q-30 27 -71 27q-44 0 -74 -27q-25 -25 -25 -72q0 -44 27 -71q28 -25 72 -25q48 0 75 27q23 26 23 69z" />
    <glyph glyph-name="ogonek" unicode="&#x2db;" horiz-adv-x="479" 
d="M242 20l86 -26q-26 -19 -39 -43q-17 -34 -17 -62q0 -47 25 -82q18 -29 80 -63l-47 -80q-103 12 -156 57q-59 49 -59 134q0 61 37 104q27 36 90 61z" />
    <glyph glyph-name="tilde" unicode="&#x2dc;" horiz-adv-x="915" 
d="M453 1159q-81 35 -150 35q-81 0 -133 -43l-68 113q103 90 211 90q65 0 144 -29q87 -33 159 -33q73 0 129 41l68 -110q-85 -95 -201 -95q-80 0 -159 31z" />
    <glyph glyph-name="hungarumlaut" unicode="&#x2dd;" horiz-adv-x="712" 
d="M102 1169l74 318l172 -60l-121 -299zM326 1169l125 314l159 -72l-159 -289z" />
    <glyph glyph-name="afii10023" unicode="&#x401;" horiz-adv-x="1255" 
d="M127 0v1229h1012v-207h-750v-279h668v-204h-668v-332h776v-207h-1038zM438 1614q70 0 111 -40.5t41 -103.5q0 -60 -41 -99.5t-111 -39.5q-69 0 -109 39.5t-40 99.5q0 63 40 103.5t109 40.5zM887 1614q71 0 111 -40t40 -104q0 -61 -40 -100t-111 -39q-69 0 -109.5 39.5
t-40.5 99.5q0 63 40.5 103.5t109.5 40.5z" />
    <glyph glyph-name="afii10051" unicode="&#x402;" horiz-adv-x="1640" 
d="M55 1038v191h1094v-191h-418v-204q136 100 320 100q114 0 193.5 -26.5t141.5 -82.5q134 -121 134 -364v-330q0 -148 -54 -258t-172 -195l-141 97q63 83 88 159t25 181v334q0 150 -66 219q-65 65 -184 65q-83 0 -150.5 -22.5t-134.5 -73.5v-637h-264v1038h-412z" />
    <glyph glyph-name="afii10052" unicode="&#x403;" horiz-adv-x="1198" 
d="M127 0v1229h985v-203h-719v-1026h-266zM537 1372l133 318l192 -91l-166 -296z" />
    <glyph glyph-name="afii10053" unicode="&#x404;" horiz-adv-x="1306" 
d="M975 745v-208h-629q17 -143 107 -230q126 -123 348 -123q100 0 183 17.5t179 56.5l78 -176q-203 -105 -455 -105q-322 0 -520 177q-190 169 -190 460q0 311 205 482q187 155 503 155q263 0 455 -98l-78 -180q-184 71 -360 71q-227 0 -342 -106q-84 -78 -107 -193h623z
" />
    <glyph glyph-name="afii10054" unicode="&#x405;" horiz-adv-x="1335" 
d="M78 885q0 168 125 256q146 110 461 110q148 0 258 -20t241 -72l-69 -188q-118 39 -210.5 55t-207.5 16q-199 0 -279 -45q-57 -31 -57 -86q0 -52 39 -80q43 -33 141 -47l305 -47q239 -38 330 -129q96 -96 96 -235q0 -189 -157 -289q-168 -107 -476 -107q-278 0 -540 93
l57 196q241 -71 471 -71q203 0 301 49q78 41 78 121q0 36 -14 61t-44 40.5t-61.5 23.5t-81.5 16l-313 43q-190 27 -287 102q-106 82 -106 234z" />
    <glyph glyph-name="uni0406" unicode="&#x406;" horiz-adv-x="516" 
d="M127 1229h262v-1229h-262v1229z" />
    <glyph glyph-name="afii10056" unicode="&#x407;" horiz-adv-x="516" 
d="M127 1229h262v-1229h-262v1229zM35 1614q70 0 110.5 -40.5t40.5 -103.5q0 -60 -40.5 -99.5t-110.5 -39.5q-69 0 -109.5 39.5t-40.5 99.5q0 63 40.5 103.5t109.5 40.5zM483 1614q71 0 111.5 -40t40.5 -104q0 -61 -40.5 -100t-111.5 -39q-69 0 -109 39.5t-40 99.5
q0 63 40 103.5t109 40.5z" />
    <glyph glyph-name="afii10057" unicode="&#x408;" horiz-adv-x="1085" 
d="M696 1229h262v-729q0 -258 -149 -391q-150 -132 -422 -132q-187 0 -350 72l63 182q129 -47 273 -47q175 0 250 84q73 82 73 236v725z" />
    <glyph glyph-name="afii10058" unicode="&#x409;" horiz-adv-x="2203" 
d="M442 1229h901v-365h314q244 0 368 -139q103 -112 103 -293q0 -191 -129 -311q-130 -121 -346 -121h-576v1026h-411l-101 -733q-21 -144 -108 -225q-86 -80 -232 -80q-113 0 -211 28l39 185q62 -15 111 -15q68 0 102 37q37 34 49 115zM1870 432q0 93 -45 150
q-59 77 -199 77h-283v-456h287q107 0 174 61q66 63 66 168z" />
    <glyph glyph-name="afii10059" unicode="&#x40a;" horiz-adv-x="2113" 
d="M993 1229h262v-365h312q246 0 370 -139q101 -110 101 -293q0 -194 -129 -311q-127 -121 -346 -121h-570v551h-604v-551h-262v1229h262v-469h604v469zM1780 432q0 96 -45 150q-59 77 -199 77h-281v-456h285q109 0 176 61q64 64 64 168z" />
    <glyph glyph-name="afii10060" unicode="&#x40b;" horiz-adv-x="1640" 
d="M1520 461v-461h-254v449q0 150 -66 219q-65 65 -184 65q-83 0 -150.5 -22.5t-134.5 -73.5v-637h-264v1038h-412v191h1094v-191h-418v-204q136 100 320 100q114 0 193.5 -26.5t141.5 -82.5q134 -121 134 -364z" />
    <glyph glyph-name="afii10061" unicode="&#x40c;" horiz-adv-x="1372" 
d="M127 1229h264v-475h258l195 321q53 91 135 131q70 37 168 37q66 0 141 -16l-20 -185h-49q-63 0 -99 -16q-37 -18 -65 -61l-191 -299l436 -666h-301l-346 549h-262v-549h-264v1229zM549 1372l133 318l192 -91l-165 -296z" />
    <glyph glyph-name="afii10062" unicode="&#x40e;" horiz-adv-x="1404" 
d="M1077 1229h273l-494 -979q-71 -146 -160 -207q-88 -59 -225 -59q-84 0 -149 16l20 182h92q54 0 90 23q31 22 66 90l-535 934h297l381 -719h10zM422 1579l172 18q8 -56 47 -92q36 -28 92 -28q58 0 90 28q35 28 47 92l172 -18q-15 -131 -96 -203q-80 -71 -213 -71t-217 75
q-79 70 -94 199z" />
    <glyph glyph-name="afii10145" unicode="&#x40f;" horiz-adv-x="1392" 
d="M1266 0h-445l-20 -256h-199l-20 256h-455v1229h264v-1026h610v1026h265v-1229z" />
    <glyph glyph-name="afii10017" unicode="&#x410;" horiz-adv-x="1505" 
d="M606 1229h297l551 -1229h-276l-88 201h-676l-88 -201h-271zM737 983l-235 -577h499l-237 577h-27z" />
    <glyph glyph-name="afii10018" unicode="&#x411;" horiz-adv-x="1298" 
d="M127 0v1229h944v-203h-684v-205h365q227 0 350 -112q121 -105 121 -293q0 -189 -133 -303q-128 -113 -342 -113h-621zM967 414q0 91 -56 147q-60 57 -166 57h-358v-415h350q114 0 174 63q56 56 56 148z" />
    <glyph glyph-name="afii10019" unicode="&#x412;" horiz-adv-x="1337" 
d="M821 0h-694v1229h666q202 0 309 -96q94 -84 94 -218q0 -85 -41 -153q-29 -47 -86 -86v-10q77 -36 125 -97q68 -83 68 -194q0 -158 -121 -266q-125 -109 -320 -109zM1006 381q0 75 -43 121q-53 53 -144 53h-430v-352h426q94 0 146 55q45 45 45 123zM936 889q0 63 -41 98
q-42 39 -113 39h-393v-278h410q62 0 102 43q35 41 35 98z" />
    <glyph glyph-name="afii10020" unicode="&#x413;" horiz-adv-x="1198" 
d="M127 0v1229h985v-203h-719v-1026h-266z" />
    <glyph glyph-name="afii10021" unicode="&#x414;" horiz-adv-x="1492" 
d="M373 1229h940v-1026h125v-451h-219l-23 248h-903l-23 -248h-215v449h33q80 0 117 37q43 40 55 137zM506 346q-12 -83 -47 -143h592v823h-455z" />
    <glyph glyph-name="afii10022" unicode="&#x415;" horiz-adv-x="1251" 
d="M127 0v1229h1012v-207h-750v-279h668v-204h-668v-332h776v-207h-1038z" />
    <glyph glyph-name="afii10024" unicode="&#x416;" horiz-adv-x="1984" 
d="M862 1229h260v-475h197l143 301q49 101 113 145q65 43 172 43q82 0 166 -16l-27 -172h-63q-48 0 -86 -23q-34 -24 -54 -65l-157 -305l391 -662h-283l-303 549h-209v-549h-260v549h-211l-303 -549h-282l391 662l-156 305q-21 44 -57 67q-35 21 -82 21h-66l-24 172
q84 16 166 16q103 0 168 -43q69 -42 114 -145l146 -301h196v475z" />
    <glyph glyph-name="afii10025" unicode="&#x417;" horiz-adv-x="1331" 
d="M641 186q185 0 277 66q73 56 73 154q0 69 -47 116q-56 53 -141 53h-473v197h440q74 0 113 51q26 37 26 82q0 66 -53 103q-67 43 -240 43q-196 0 -428 -76l-63 172q229 104 516 104q303 0 434 -112q96 -83 96 -221q0 -70 -30 -125q-35 -54 -84 -82v-13q88 -39 139 -104
q59 -81 59 -186q0 -197 -159 -314q-164 -117 -455 -117q-328 0 -575 119l71 187q253 -97 504 -97z" />
    <glyph glyph-name="afii10026" unicode="&#x418;" horiz-adv-x="1429" 
d="M387 1229v-852l670 852h246v-1229h-263v850l-669 -850h-244v1229h260z" />
    <glyph glyph-name="afii10027" unicode="&#x419;" horiz-adv-x="1429" 
d="M387 1229v-852l670 852h246v-1229h-263v850l-669 -850h-244v1229h260zM414 1579l172 18q8 -56 47 -92q36 -28 92 -28q58 0 90 28q35 28 47 92l172 -18q-15 -131 -96 -203q-80 -71 -213 -71t-217 75q-79 70 -94 199z" />
    <glyph glyph-name="afii10028" unicode="&#x41a;" horiz-adv-x="1372" 
d="M127 1229h264v-475h258l195 321q53 91 135 131q70 37 168 37q66 0 141 -16l-20 -185h-49q-63 0 -99 -16q-37 -18 -65 -61l-191 -299l436 -666h-301l-346 549h-262v-549h-264v1229z" />
    <glyph glyph-name="afii10029" unicode="&#x41b;" horiz-adv-x="1499" 
d="M442 1229h930v-1229h-266v1026h-440l-101 -733q-21 -144 -108 -225q-86 -80 -232 -80q-113 0 -211 28l39 185q62 -15 111 -15q68 0 102 37q37 34 49 115z" />
    <glyph glyph-name="afii10030" unicode="&#x41c;" horiz-adv-x="1761" 
d="M127 1229h383l371 -971l374 971h379v-1229h-256v918h-12l-356 -918h-275l-354 918h-12v-918h-242v1229z" />
    <glyph glyph-name="afii10031" unicode="&#x41d;" horiz-adv-x="1411" 
d="M1022 1229h262v-1229h-262v551h-633v-551h-262v1229h262v-469h633v469z" />
    <glyph glyph-name="afii10032" unicode="&#x41e;" horiz-adv-x="1456" 
d="M1116 614q0 215 -106 330q-105 105 -281 105q-181 0 -280 -107q-107 -110 -107 -328q0 -202 92 -313q100 -121 295 -121q196 0 295 123q92 115 92 311zM76 614q0 290 176 463q177 174 477 174q138 0 257.5 -41.5t205.5 -119.5q188 -167 188 -476q0 -274 -149 -440
q-178 -197 -502 -197q-302 0 -473 168q-180 166 -180 469z" />
    <glyph glyph-name="afii10033" unicode="&#x41f;" horiz-adv-x="1402" 
d="M127 1229h1149v-1229h-264v1026h-619v-1026h-266v1229z" />
    <glyph glyph-name="afii10034" unicode="&#x420;" horiz-adv-x="1300" 
d="M713 332h-322v-332h-264v1229h608q107 0 200.5 -33.5t158.5 -97.5q131 -121 131 -318q0 -186 -123 -309q-139 -136 -389 -139zM956 780q0 111 -55 172q-68 74 -190 74h-320v-491h303q123 0 191 65q71 62 71 180z" />
    <glyph glyph-name="afii10035" unicode="&#x421;" horiz-adv-x="1316" 
d="M76 614q0 312 209 478q196 159 499 159q263 0 455 -98l-78 -180q-184 71 -360 71q-103 0 -191.5 -29.5t-144.5 -84.5q-123 -114 -123 -316q0 -174 104 -290q57 -65 152 -102.5t203 -37.5q100 0 183 17.5t179 56.5l78 -176q-200 -105 -455 -105q-329 0 -530 189
q-180 169 -180 448z" />
    <glyph glyph-name="afii10036" unicode="&#x422;" horiz-adv-x="1312" 
d="M55 1026v203h1202v-203h-469v-1026h-266v1026h-467z" />
    <glyph glyph-name="afii10037" unicode="&#x423;" horiz-adv-x="1404" 
d="M1077 1229h273l-494 -979q-71 -146 -160 -207q-88 -59 -225 -59q-84 0 -149 16l20 182h92q54 0 90 23q31 22 66 90l-535 934h297l381 -719h10z" />
    <glyph glyph-name="afii10038" unicode="&#x424;" horiz-adv-x="1820" 
d="M616 1106h162v145h262v-145h164q233 0 381 -123q160 -134 160 -362q0 -218 -135 -347q-142 -139 -400 -139h-170v-135h-262v135h-162q-261 0 -407 137q-133 130 -133 349q0 225 153 356q147 129 387 129zM332 621q0 -125 69 -203q33 -36 87 -58t118 -22h172v565h-172
q-130 0 -203 -76q-71 -80 -71 -206zM1487 621q0 120 -64 196q-73 86 -219 86h-164v-565h172q133 0 203 80q72 75 72 203z" />
    <glyph glyph-name="afii10039" unicode="&#x425;" horiz-adv-x="1398" 
d="M383 1229l315 -447l301 447h299l-424 -592l469 -637h-307l-344 492l-340 -492h-297l463 633l-438 596h303z" />
    <glyph glyph-name="afii10040" unicode="&#x426;" horiz-adv-x="1433" 
d="M127 0v1229h266v-1026h596v1026h266v-1026h123v-451h-219l-24 248h-1008z" />
    <glyph glyph-name="afii10041" unicode="&#x427;" horiz-adv-x="1359" 
d="M1233 0h-264v373q-153 -72 -316 -72q-276 0 -422 137q-145 136 -145 410v381h266v-383q0 -178 82 -260q83 -80 244 -80q156 0 291 72v651h264v-1229z" />
    <glyph glyph-name="afii10042" unicode="&#x428;" horiz-adv-x="1949" 
d="M127 0v1229h260v-1026h459v1026h258v-1026h459v1026h260v-1229h-1696z" />
    <glyph glyph-name="afii10043" unicode="&#x429;" horiz-adv-x="1998" 
d="M127 0v1229h258v-1026h461v1026h258v-1026h459v1026h260v-1026h121v-451h-218l-22 248h-1577z" />
    <glyph glyph-name="afii10044" unicode="&#x42a;" horiz-adv-x="1435" 
d="M25 1229h524v-365h342q237 0 366 -135q103 -109 103 -297q0 -197 -133 -315q-129 -117 -340 -117h-604v1032l-258 23v174zM1102 432q0 102 -53 158q-63 69 -189 69h-311v-456h315q109 0 174 65q64 58 64 164z" />
    <glyph glyph-name="afii10045" unicode="&#x42b;" horiz-adv-x="1710" 
d="M1319 0v1229h264v-1229h-264zM127 0v1229h266v-365h340q247 0 371 -139q100 -109 100 -293q0 -194 -129 -311q-127 -121 -346 -121h-602zM946 432q0 96 -45 150q-59 77 -199 77h-309v-456h314q109 0 176 61q63 63 63 168z" />
    <glyph glyph-name="afii10046" unicode="&#x42c;" horiz-adv-x="1280" 
d="M127 0v1229h266v-365h340q247 0 371 -139q100 -109 100 -293q0 -194 -129 -311q-127 -121 -346 -121h-602zM946 432q0 96 -45 150q-59 77 -199 77h-309v-456h314q109 0 176 61q63 63 63 168z" />
    <glyph glyph-name="afii10047" unicode="&#x42d;" horiz-adv-x="1306" 
d="M332 537v208h620q-20 116 -104 193q-118 106 -342 106q-179 0 -363 -71l-75 180q192 98 452 98q319 0 506 -155q205 -171 205 -482q0 -290 -191 -460q-198 -177 -520 -177q-254 0 -454 105l77 176q178 -74 361 -74q225 0 348 123q89 86 109 230h-629z" />
    <glyph glyph-name="afii10048" unicode="&#x42e;" horiz-adv-x="1863" 
d="M1788 614q0 -297 -164 -464q-162 -173 -448 -173q-273 0 -428 152q-142 139 -179 391h-178v-520h-264v1229h264v-498h180q36 239 195 379q156 141 410 141q297 0 456 -178q156 -169 156 -459zM1176 180q181 0 274 135q78 115 78 299q0 224 -103 338q-94 97 -249 97
q-169 0 -261 -109q-92 -115 -92 -326q0 -204 95 -325q92 -109 258 -109z" />
    <glyph glyph-name="afii10049" unicode="&#x42f;" horiz-adv-x="1355" 
d="M549 1229h680v-1229h-262v365h-379l-209 -365h-289l248 401q-116 50 -188 146q-84 119 -84 252q0 204 139 321q130 109 344 109zM332 799q0 -90 49 -148q67 -82 186 -82h400v457h-396q-118 0 -184 -72q-55 -61 -55 -155z" />
    <glyph glyph-name="afii10065" unicode="&#x430;" horiz-adv-x="1257" 
d="M1122 690v-395q0 -78 10 -132t37 -120l-141 -59q-65 46 -104 108q-174 -110 -369 -110q-234 0 -354 88q-125 94 -125 270q0 175 153 270q133 80 334 80q162 0 307 -37v52q0 65 -57 98q-66 43 -231 43q-180 0 -365 -55l-45 167q117 46 220 65t235 19q269 0 389 -104
q106 -89 106 -248zM559 498q-102 0 -166 -41q-61 -38 -61 -115q0 -73 55 -115q63 -47 195 -47q153 0 288 66v233q-170 19 -311 19z" />
    <glyph glyph-name="afii10066" unicode="&#x431;" 
d="M662 991q248 0 385 -137q137 -131 137 -369q0 -229 -144 -364q-148 -139 -411 -139q-257 0 -398 157q-157 171 -157 531q0 367 168 549q157 167 415 167h136q87 0 145 9.5t131 38.5l70 -152q-76 -60 -156.5 -81t-212.5 -21h-125q-129 0 -217 -88q-67 -70 -82 -174
q126 73 316 73zM629 180q144 0 225 78q82 82 82 227q0 149 -70 228q-71 80 -217 80q-98 0 -171.5 -16.5t-149.5 -55.5q-4 -50 -4 -84q0 -239 88 -352q77 -105 217 -105z" />
    <glyph glyph-name="afii10067" unicode="&#x432;" horiz-adv-x="1200" 
d="M127 1024h539q206 0 303 -74q92 -69 92 -207q0 -60 -35 -110q-29 -40 -70 -60v-10q71 -23 115 -80q53 -65 53 -159q0 -163 -120 -244q-125 -80 -369 -80h-508v1024zM377 188h295q118 0 166 39q36 33 36 92q0 71 -47 99q-51 31 -149 31h-301v-261zM813 737q0 48 -31 72
q-32 27 -123 27h-282v-197h295q47 0 69 5.5t43 23.5q29 29 29 69z" />
    <glyph glyph-name="afii10068" unicode="&#x433;" horiz-adv-x="1097" 
d="M127 1024h891v-197h-637v-827h-254v1024z" />
    <glyph glyph-name="afii10069" unicode="&#x434;" horiz-adv-x="1310" 
d="M348 1024h807v-827h100v-408h-213l-22 211h-733l-25 -211h-207v397q78 7 116 41.5t50 102.5zM461 297q-9 -58 -43 -100h485v630h-352z" />
    <glyph glyph-name="afii10070" unicode="&#x435;" 
d="M631 1042q260 0 397 -131q160 -147 160 -411v-88h-846q11 -92 78 -156q42 -40 113.5 -60t152.5 -20q191 0 344 51l51 -168q-175 -77 -401 -77q-135 0 -252 36t-188 101q-164 148 -164 393q0 234 151 379q158 151 404 151zM635 848q-136 0 -215 -76q-66 -63 -84 -170h594
q-12 117 -84 180q-72 66 -211 66z" />
    <glyph glyph-name="afii10072" unicode="&#x436;" horiz-adv-x="1761" 
d="M758 1024h248v-379h129l112 211q51 97 133 139q70 37 174 37q69 0 132 -16l-19 -180h-51q-51 0 -92 -17q-39 -17 -66 -61l-106 -187l356 -571h-278l-271 455h-153v-455h-248v455h-156l-268 -455h-281l359 571l-107 187q-30 47 -69 63q-41 15 -86 15h-56l-18 180
q65 16 133 16q98 0 170 -35q85 -43 137 -141l111 -211h131v379z" />
    <glyph glyph-name="afii10073" unicode="&#x437;" horiz-adv-x="1144" 
d="M156 788l-62 173q206 81 459 81q231 0 344 -81q104 -71 104 -209q0 -62 -30 -111q-24 -38 -68 -59v-13q78 -28 123 -88q47 -62 47 -157q0 -151 -141 -248q-135 -94 -393 -94q-158 0 -265.5 20t-224.5 76l68 172q103 -39 199.5 -54.5t230.5 -15.5q153 0 217 45
q51 36 51 101q0 60 -35 88q-47 37 -131 37h-385v188h346q77 0 115 33q29 26 29 69q0 45 -35 72q-50 33 -172 33q-190 0 -391 -58z" />
    <glyph glyph-name="afii10074" unicode="&#x438;" horiz-adv-x="1282" 
d="M352 0h-225v1024h250v-666l551 666h227v-1024h-250v666z" />
    <glyph glyph-name="afii10075" unicode="&#x439;" horiz-adv-x="1282" 
d="M352 0h-225v1024h250v-666l551 666h227v-1024h-250v666zM360 1362l164 16q6 -55 37 -82q30 -24 80 -24q54 0 80 26q30 30 35 80l164 -16q-9 -116 -84 -184q-74 -68 -195 -68q-118 0 -195 68q-74 68 -86 184z" />
    <glyph glyph-name="afii10076" unicode="&#x43a;" horiz-adv-x="1243" 
d="M127 1024h252v-375h217l125 207q59 100 145 141q68 35 162 35q68 0 131 -16l-16 -180h-47q-64 0 -101 -19q-38 -18 -63 -59l-121 -187l379 -571h-287l-280 451h-244v-451h-252v1024z" />
    <glyph glyph-name="afii10077" unicode="&#x43b;" horiz-adv-x="1363" 
d="M416 1024h821v-1024h-246v827h-377l-100 -577q-24 -137 -108 -199q-71 -59 -203 -59q-105 0 -170 24l20 174h68q67 0 104 19q42 21 58 100z" />
    <glyph glyph-name="afii10078" unicode="&#x43c;" horiz-adv-x="1597" 
d="M881 0h-185l-325 696h-9v-696h-235v1024h322l348 -719l354 719h319v-1024h-253v696h-9z" />
    <glyph glyph-name="afii10079" unicode="&#x43d;" horiz-adv-x="1280" 
d="M897 0v434h-514v-434h-256v1024h256v-391h514v391h256v-1024h-256z" />
    <glyph glyph-name="afii10080" unicode="&#x43e;" horiz-adv-x="1271" 
d="M635 1042q242 0 397 -139q164 -148 164 -391t-164 -391q-155 -139 -397 -139q-239 0 -397 139q-162 146 -162 391t162 391q158 139 397 139zM635 846q-138 0 -223 -88q-82 -88 -82 -246t82 -246q85 -88 223 -88q141 0 223 88q84 87 84 246t-84 246q-82 88 -223 88z" />
    <glyph glyph-name="afii10081" unicode="&#x43f;" horiz-adv-x="1273" 
d="M127 1024h1020v-1024h-254v827h-514v-827h-252v1024z" />
    <glyph glyph-name="afii10082" unicode="&#x440;" horiz-adv-x="1314" 
d="M127 1024h190l33 -92q135 110 359 110q235 0 378 -131q152 -142 152 -399q0 -242 -141 -383q-150 -147 -404 -147q-173 0 -315 90v-379h-252v1331zM680 846q-92 0 -159.5 -22t-141.5 -72v-473q121 -95 293 -95q140 0 219 76q96 90 96 252q0 164 -86 250q-81 84 -221 84z
" />
    <glyph glyph-name="afii10083" unicode="&#x441;" horiz-adv-x="1132" 
d="M1053 971l-62 -172q-154 47 -311 47q-171 0 -260 -86q-90 -87 -90 -244q0 -158 92 -244q91 -88 258 -88q158 0 313 52l62 -181q-171 -73 -393 -73q-278 0 -422 135q-164 149 -164 395q0 245 168 393q149 137 418 137q219 0 391 -71z" />
    <glyph glyph-name="afii10084" unicode="&#x442;" horiz-adv-x="1148" 
d="M449 827h-383v197h1017v-197h-383v-827h-251v827z" />
    <glyph glyph-name="afii10085" unicode="&#x443;" horiz-adv-x="1306" 
d="M512 0l-469 1024h272l344 -797h31l307 797h267l-482 -1151q-48 -113 -133 -166q-68 -45 -184 -45q-75 0 -146 27l25 168q79 -9 92 -9q49 0 78 23q40 25 55 80l21 49h-78z" />
    <glyph glyph-name="afii10086" unicode="&#x444;" horiz-adv-x="1945" 
d="M852 1331h244v-373q120 84 278 84q212 0 340 -122q160 -144 160 -408q0 -256 -160 -406q-136 -124 -346 -124q-145 0 -272 84v-373h-244v373q-127 -84 -272 -84q-211 0 -347 124q-159 149 -159 406q0 264 157 408q131 122 342 122q159 0 279 -84v373zM852 266v492
q-72 48 -128 67t-130 19q-125 0 -193 -74q-82 -85 -82 -258q0 -171 87 -252q77 -80 204 -80q129 0 242 86zM1096 756v-490q109 -86 241 -86q125 0 205 80q86 80 86 252q0 173 -82 258q-71 74 -194 74q-75 0 -130 -19t-126 -69z" />
    <glyph glyph-name="afii10087" unicode="&#x445;" horiz-adv-x="1271" 
d="M338 0h-283l353 541l-326 483h293l233 -379h64l227 379h285l-324 -483l357 -541h-291l-260 426h-70z" />
    <glyph glyph-name="afii10088" unicode="&#x446;" horiz-adv-x="1286" 
d="M127 1024h254v-827h489v827h252v-827h109v-408h-213l-23 211h-868v1024z" />
    <glyph glyph-name="afii10089" unicode="&#x447;" horiz-adv-x="1206" 
d="M1079 0h-252v295q-118 -72 -272 -72q-239 0 -358 119q-111 111 -111 311v371h252v-365q0 -118 49 -176q52 -61 186 -61q149 0 254 67v535h252v-1024z" />
    <glyph glyph-name="afii10090" unicode="&#x448;" horiz-adv-x="1767" 
d="M127 0v1024h250v-827h383v827h250v-827h383v827h247v-1024h-1513z" />
    <glyph glyph-name="afii10091" unicode="&#x449;" horiz-adv-x="1804" 
d="M127 0v1024h250v-827h383v827h250v-827h383v827h247v-827h109v-408h-213l-23 211h-1386z" />
    <glyph glyph-name="afii10092" unicode="&#x44a;" horiz-adv-x="1329" 
d="M70 852v172h475v-270h264q233 0 354 -127q90 -93 90 -250q0 -173 -112 -268q-124 -109 -359 -109h-489v834zM545 195h217q122 0 182 51q57 45 57 131q0 83 -47 127q-59 53 -184 53h-225v-362z" />
    <glyph glyph-name="afii10093" unicode="&#x44b;" horiz-adv-x="1574" 
d="M127 0v1024h252v-270h264q230 0 348 -121q96 -93 96 -256q0 -167 -106 -262q-124 -115 -365 -115h-489zM379 195h217q130 0 190 57q50 47 50 125q0 82 -50 129q-57 51 -182 51h-225v-362zM1196 1024h252v-1024h-252v1024z" />
    <glyph glyph-name="afii10094" unicode="&#x44c;" horiz-adv-x="1163" 
d="M127 0v1024h252v-270h264q230 0 348 -121q96 -93 96 -256q0 -167 -106 -262q-124 -115 -365 -115h-489zM379 195h217q130 0 190 57q50 47 50 125q0 82 -50 129q-57 51 -182 51h-225v-362z" />
    <glyph glyph-name="afii10095" unicode="&#x44d;" horiz-adv-x="1148" 
d="M291 436v193h512q-21 94 -92 147q-85 70 -250 70q-151 0 -316 -47l-61 172q184 71 395 71q273 0 420 -129q174 -148 174 -401q0 -239 -162 -391q-148 -139 -432 -139q-220 0 -403 73l61 181q174 -52 324 -52q178 0 272 97q60 60 74 155h-516z" />
    <glyph glyph-name="afii10096" unicode="&#x44e;" horiz-adv-x="1650" 
d="M127 1024h246v-389h145q29 178 166 289q142 118 358 118q235 0 377 -127q156 -143 156 -403q0 -244 -139 -383q-144 -147 -394 -147q-235 0 -374 133q-124 117 -150 321h-145v-436h-246v1024zM1325 514q0 171 -82 256q-70 76 -201 76q-137 0 -208 -80q-74 -83 -74 -252
t78 -256q70 -76 204 -76q144 0 213 84q70 88 70 248z" />
    <glyph glyph-name="afii10097" unicode="&#x44f;" horiz-adv-x="1185" 
d="M1059 1024v-1024h-252v272h-215q-43 0 -70 2l-174 -274h-262l219 324q-103 38 -158 120q-63 85 -63 203q0 176 109 271q118 106 348 106h518zM336 647q0 -72 41 -119q52 -61 174 -61h256v362h-246q-117 0 -174 -51q-51 -45 -51 -131z" />
    <glyph glyph-name="afii10071" unicode="&#x451;" 
d="M631 1042q260 0 397 -131q160 -147 160 -411v-88h-846q11 -92 78 -156q42 -40 113.5 -60t152.5 -20q191 0 344 51l51 -168q-175 -77 -401 -77q-135 0 -252 36t-188 101q-164 148 -164 393q0 234 151 379q158 151 404 151zM635 848q-136 0 -215 -76q-66 -63 -84 -170h594
q-12 117 -84 180q-72 66 -211 66zM463 1389q63 0 99 -35t36 -92q0 -54 -36 -88.5t-99 -34.5q-61 0 -96 34.5t-35 88.5q0 57 34.5 92t96.5 35zM877 1389q63 0 99 -35t36 -92q0 -54 -36 -88.5t-99 -34.5q-60 0 -95.5 34.5t-35.5 88.5q0 56 35 91.5t96 35.5z" />
    <glyph glyph-name="afii10099" unicode="&#x452;" horiz-adv-x="1316" 
d="M141 1356h252v-99h271v-145l-271 -20v-150q139 100 324 100q230 0 344 -108q135 -119 135 -365v-438q0 -148 -54 -258t-173 -195l-140 97q62 84 87.5 160t25.5 180v442q0 151 -68 219q-66 66 -192 66q-161 0 -289 -97v-745h-252v1081h-116v156l116 12v107z" />
    <glyph glyph-name="afii10100" unicode="&#x453;" horiz-adv-x="1097" 
d="M127 1024h891v-197h-637v-827h-254v1024zM479 1184l119 305l188 -90l-159 -283z" />
    <glyph glyph-name="afii10101" unicode="&#x454;" horiz-adv-x="1148" 
d="M856 629v-193h-514q14 -94 72 -155q94 -97 274 -97q147 0 318 52l63 -181q-186 -73 -399 -73q-284 0 -432 139q-162 150 -162 391q0 253 174 401q147 129 420 129q212 0 399 -71l-63 -172q-165 47 -318 47q-164 0 -252 -70q-73 -57 -90 -147h510z" />
    <glyph glyph-name="afii10102" unicode="&#x455;" horiz-adv-x="1177" 
d="M1040 961l-61 -170q-171 55 -379 55q-164 0 -229 -33q-47 -26 -47 -68q0 -44 34 -65q33 -22 99 -29l266 -24q184 -18 276 -88q103 -79 103 -209q0 -162 -125 -250q-139 -98 -447 -98q-240 0 -452 88l59 180q191 -72 381 -72q186 0 260 35q76 29 76 100q0 48 -39 72
q-40 26 -131 35l-278 26q-163 14 -252 93q-78 72 -78 194q0 72 35 132t100 100q129 77 389 77q235 0 440 -81z" />
    <glyph glyph-name="afii10103" unicode="&#x456;" horiz-adv-x="542" 
d="M45 858v166h371v-1024h-252v842zM289 1440q76 0 120 -40.5t44 -101.5q0 -59 -44 -99t-120 -40q-74 0 -118 40t-44 99q0 61 44 101.5t118 40.5z" />
    <glyph glyph-name="afii10104" unicode="&#x457;" horiz-adv-x="542" 
d="M45 858v166h371v-1024h-252v842zM104 1389q63 0 99.5 -35t36.5 -92q0 -54 -36.5 -88.5t-99.5 -34.5q-60 0 -95.5 34.5t-35.5 88.5q0 56 35.5 91.5t95.5 35.5zM438 1389q63 0 98 -35t35 -92q0 -54 -35 -88.5t-98 -34.5q-61 0 -96 34.5t-35 88.5q0 57 34.5 92t96.5 35z" />
    <glyph glyph-name="afii10105" unicode="&#x458;" horiz-adv-x="542" 
d="M45 858v166h371v-1030q0 -169 -99 -279q-112 -118 -325 -118q-103 0 -180.5 21.5t-169.5 70.5l71 170q76 -33 132.5 -45.5t129.5 -12.5q97 0 148 58q41 47 41 135v848zM289 1440q75 0 118.5 -40.5t43.5 -101.5q0 -59 -43.5 -99t-118.5 -40q-74 0 -118 40t-44 99
q0 61 44 101.5t118 40.5z" />
    <glyph glyph-name="afii10106" unicode="&#x459;" horiz-adv-x="1964" 
d="M416 1024h784v-270h242q230 0 348 -121q98 -95 98 -256q0 -167 -106 -262q-124 -115 -367 -115h-461v827h-340l-100 -577q-24 -137 -108 -199q-71 -59 -203 -59q-105 0 -170 24l20 174h74q64 0 98 19q42 21 58 100zM1200 195h197q127 0 190 57q49 46 49 125q0 80 -49 129
q-57 51 -182 51h-205v-362z" />
    <glyph glyph-name="afii10107" unicode="&#x45a;" horiz-adv-x="1888" 
d="M868 0v434h-485v-434h-256v1024h256v-391h485v391h256v-270h244q230 0 348 -121q96 -93 96 -256q0 -167 -106 -262q-124 -115 -365 -115h-473zM1124 195h197q130 0 190 57q50 47 50 125q0 82 -50 129q-57 51 -182 51h-205v-362z" />
    <glyph glyph-name="afii10108" unicode="&#x45b;" horiz-adv-x="1316" 
d="M1196 569v-569h-254v557q0 151 -68 219q-66 66 -192 66q-161 0 -289 -97v-745h-252v1081h-116v156l116 12v107h252v-99h271v-145l-271 -20v-150q139 100 324 100q230 0 344 -108q135 -119 135 -365z" />
    <glyph glyph-name="afii10109" unicode="&#x45c;" horiz-adv-x="1243" 
d="M127 1024h252v-375h217l125 207q59 100 145 141q68 35 162 35q68 0 131 -16l-16 -180h-47q-64 0 -101 -19q-38 -18 -63 -59l-121 -187l379 -571h-287l-280 451h-244v-451h-252v1024zM514 1184l119 305l188 -90l-159 -283z" />
    <glyph glyph-name="afii10110" unicode="&#x45e;" horiz-adv-x="1304" 
d="M510 0l-469 1024h272l344 -797h31l307 797h267l-482 -1151q-48 -113 -133 -166q-68 -45 -184 -45q-75 0 -146 27l25 168q79 -9 92 -9q49 0 78 23q40 25 55 80l21 49h-78zM379 1362l164 16q6 -55 37 -82q30 -24 80 -24q53 0 79 26q30 30 35 80l164 -16q-9 -116 -84 -184
q-74 -68 -194 -68q-118 0 -195 68q-74 68 -86 184z" />
    <glyph glyph-name="afii10193" unicode="&#x45f;" horiz-adv-x="1273" 
d="M1147 0h-402l-20 -240h-174l-21 240h-403v1024h254v-827h514v827h252v-1024z" />
    <glyph glyph-name="afii10050" unicode="&#x490;" horiz-adv-x="1169" 
d="M127 0v1229h741l27 184h188v-387h-690v-1026h-266z" />
    <glyph glyph-name="afii10098" unicode="&#x491;" horiz-adv-x="1085" 
d="M127 1024h664l28 178h187v-375h-625v-827h-254v1024z" />
    <glyph glyph-name="endash" unicode="&#x2013;" horiz-adv-x="890" 
d="M66 635h759v-195h-759v195z" />
    <glyph glyph-name="emdash" unicode="&#x2014;" horiz-adv-x="1040" 
d="M66 635h909v-195h-909v195z" />
    <glyph glyph-name="quoteleft" unicode="&#x2018;" horiz-adv-x="473" 
d="M186 887q-66 0 -102.5 36.5t-36.5 94.5q0 31 12 67l101 242l106 -33l-28 -147q90 -24 90 -129q0 -57 -38 -94t-104 -37z" />
    <glyph glyph-name="quoteright" unicode="&#x2019;" horiz-adv-x="473" 
d="M238 1298q66 0 102.5 -37t36.5 -94q0 -31 -12 -67l-101 -242l-106 33l28 147q-90 24 -90 129q0 57 38 94t104 37z" />
    <glyph glyph-name="quotesinglbase" unicode="&#x201a;" horiz-adv-x="483" 
d="M238 250q66 0 102.5 -37t36.5 -94q0 -32 -12 -68l-101 -241l-106 32l28 148q-90 24 -90 129q0 57 38 94t104 37z" />
    <glyph glyph-name="quotedblleft" unicode="&#x201c;" horiz-adv-x="782" 
d="M496 887q-66 0 -103 37t-37 94q0 28 13 67l100 242l106 -33l-28 -147q90 -24 90 -129q0 -57 -37.5 -94t-103.5 -37zM186 887q-66 0 -102.5 36.5t-36.5 94.5q0 31 12 67l101 242l106 -33l-28 -147q90 -24 90 -129q0 -57 -38 -94t-104 -37z" />
    <glyph glyph-name="quotedblright" unicode="&#x201d;" horiz-adv-x="782" 
d="M547 1298q65 0 102 -37t37 -94q0 -31 -12 -67l-101 -242l-106 33l29 147q-90 24 -90 129q0 57 37.5 94t103.5 37zM238 1298q66 0 102.5 -37t36.5 -94q0 -31 -12 -67l-101 -242l-106 33l28 147q-90 24 -90 129q0 57 38 94t104 37z" />
    <glyph glyph-name="quotedblbase" unicode="&#x201e;" horiz-adv-x="782" 
d="M238 250q66 0 102.5 -37t36.5 -94q0 -32 -12 -68l-101 -241l-106 32l28 148q-90 24 -90 129q0 57 38 94t104 37zM547 250q65 0 102 -37t37 -94q0 -32 -12 -68l-101 -241l-106 32l29 148q-90 24 -90 129q0 57 37.5 94t103.5 37z" />
    <glyph glyph-name="dagger" unicode="&#x2020;" horiz-adv-x="694" 
d="M184 657h-106l-23 78l23 80h106l95 -18l-19 92v115l86 20l88 -20v-115l-18 -92l92 18h108l23 -80l-23 -78h-108l-92 21l14 -96v-375l-31 -207h-137v582l17 96z" />
    <glyph glyph-name="daggerdbl" unicode="&#x2021;" horiz-adv-x="694" 
d="M184 657h-106l-23 78l23 80h106l95 -18l-19 92v115l86 20l88 -20v-115l-18 -92l92 18h108l23 -80l-23 -78h-108l-92 21l18 -96l-18 -97l92 19h108l23 -78l-23 -78h-108l-92 19l18 -97v-63l-35 -207h-139v270l19 97l-95 -19h-106l-23 78l23 78h106l95 -19l-19 97l19 96z
" />
    <glyph glyph-name="bullet" unicode="&#x2022;" horiz-adv-x="555" 
d="M276 766q85 0 134 -48.5t49 -121.5q0 -77 -48.5 -124.5t-134.5 -47.5q-84 0 -132 47.5t-48 124.5q0 73 48 121.5t132 48.5z" />
    <glyph glyph-name="onedotenleader" unicode="&#x2024;" horiz-adv-x="487" 
d="M244 264q69 0 108 -38.5t39 -98.5q0 -63 -39 -101t-108 -38t-108.5 38t-39.5 101q0 60 39.5 98.5t108.5 38.5z" />
    <glyph glyph-name="twodotenleader" unicode="&#x2025;" horiz-adv-x="874" 
d="M244 264q69 0 108 -38.5t39 -98.5q0 -63 -39 -101t-108 -38t-108.5 38t-39.5 101q0 60 39.5 98.5t108.5 38.5zM631 264q69 0 108 -38.5t39 -98.5q0 -63 -39 -101t-108 -38t-108.5 38t-39.5 101q0 60 39.5 98.5t108.5 38.5z" />
    <glyph glyph-name="ellipsis" unicode="&#x2026;" horiz-adv-x="1234" 
d="M244 264q69 0 108 -38.5t39 -98.5q0 -63 -39 -101t-108 -38t-108.5 38t-39.5 101q0 60 39.5 98.5t108.5 38.5zM616 264q69 0 108.5 -38.5t39.5 -98.5q0 -63 -39.5 -101t-108.5 -38q-68 0 -107.5 38.5t-39.5 100.5q0 60 39.5 98.5t107.5 38.5zM991 264q69 0 108.5 -38.5
t39.5 -98.5q0 -63 -39.5 -101t-108.5 -38q-68 0 -107.5 38.5t-39.5 100.5q0 60 39.5 98.5t107.5 38.5z" />
    <glyph glyph-name="perthousand" unicode="&#x2030;" horiz-adv-x="2097" 
d="M313 61l676 992l135 -88l-669 -996zM354 455q-128 0 -213 82q-86 80 -86 211q0 130 86 213q84 81 213 81q141 0 224 -92q79 -82 79 -202q0 -121 -79 -203q-87 -90 -224 -90zM492 748q0 64 -35 102q-37 43 -103 43q-57 0 -96 -39q-39 -42 -39 -106q0 -59 35 -97
q37 -47 100 -47t101 41q37 40 37 103zM1081 -23q-127 0 -215 82q-84 84 -84 211q0 130 86 213q85 82 213 82q140 0 224 -90q79 -85 79 -205q0 -121 -79 -200q-86 -93 -224 -93zM1219 270q0 63 -35 101q-39 45 -103 45q-63 0 -96 -39q-39 -42 -39 -107q0 -60 33 -96
q39 -45 102 -45t101 41q37 40 37 100zM1731 -23q-127 0 -215 82q-84 84 -84 211q0 130 86 213q85 82 213 82q139 0 223 -90q80 -87 80 -205q0 -120 -80 -200q-86 -93 -223 -93zM1868 270q0 63 -35 101q-39 45 -102 45q-64 0 -97 -39q-39 -42 -39 -107q0 -60 33 -96
q39 -45 103 -45q62 0 100 41q37 40 37 100z" />
    <glyph glyph-name="guilsinglleft" unicode="&#x2039;" horiz-adv-x="708" 
d="M524 975l97 -129l-281 -228l283 -233l-97 -131l-460 324v75z" />
    <glyph glyph-name="guilsinglright" unicode="&#x203a;" horiz-adv-x="708" 
d="M184 254l-96 129l281 229l-283 232l96 133l461 -326v-76z" />
    <glyph glyph-name="exclamdbl" unicode="&#x203c;" horiz-adv-x="862" 
d="M129 1331h227v-289l-18 -682h-188l-21 682v289zM244 264q69 0 108 -38.5t39 -98.5q0 -63 -39 -101t-108 -38t-108.5 38t-39.5 101q0 60 39.5 98.5t108.5 38.5zM502 1331h227v-289l-18 -682h-189l-20 682v289zM616 264q69 0 108.5 -38.5t39.5 -98.5q0 -63 -39.5 -101
t-108.5 -38t-108 38t-39 101q0 60 39 98.5t108 38.5z" />
    <glyph glyph-name="fraction" unicode="&#x2044;" horiz-adv-x="638" 
d="M-63 -14l628 1294l137 -59l-632 -1297z" />
    <glyph glyph-name="zerosuperior" unicode="&#x2070;" horiz-adv-x="626" 
d="M184 977q0 -101 45 -141q32 -29 84 -29t84 29q45 40 45 141q0 107 -47 143q-28 25 -82 25q-52 0 -82 -27q-47 -37 -47 -141zM571 977q0 -175 -110 -246q-59 -39 -148 -39q-86 0 -145 39q-113 73 -113 246t113 246q56 37 145 37q93 0 148 -39q110 -69 110 -244z" />
    <glyph glyph-name="foursuperior" unicode="&#x2074;" horiz-adv-x="614" 
d="M375 791h-320v116l260 344h93l26 -39l-229 -307h170v131l61 27h66v-158h47v-106l-47 -8v-89h-127v89z" />
    <glyph glyph-name="fivesuperior" unicode="&#x2075;" horiz-adv-x="595" 
d="M213 1137v-64q45 10 84 10q122 0 182 -57q51 -48 51 -135q0 -83 -53 -133q-69 -66 -190 -66q-129 0 -232 76l49 90q80 -53 183 -53q59 0 92 29q22 22 22 57q0 41 -24 59q-28 25 -88 25q-69 0 -129 -31l-68 35v272h397v-114h-276z" />
    <glyph glyph-name="sixsuperior" unicode="&#x2076;" horiz-adv-x="593" 
d="M184 952q3 -79 31 -112q26 -33 84 -33q55 0 82 24q25 22 25 60q0 36 -23 59q-26 23 -80 23q-63 0 -119 -21zM190 1063q55 22 113 22q126 0 186 -63q46 -49 46 -131q0 -83 -60 -137q-66 -60 -176 -60q-120 0 -184 74q-60 71 -60 199q0 146 78 221q69 72 174 72
q114 0 205 -60l-49 -94q-78 41 -154 41q-50 0 -76 -23q-34 -20 -43 -61z" />
    <glyph glyph-name="sevensuperior" unicode="&#x2077;" horiz-adv-x="573" 
d="M350 1137h-174l-12 -78h-109v192h463v-92q-73 -79 -125 -170q-42 -70 -82 -176l-41 -111h-133l49 146q9 32 43 102q20 41 54 94q40 66 67 93z" />
    <glyph glyph-name="eightsuperior" unicode="&#x2078;" horiz-adv-x="616" 
d="M231 954q-25 -9 -36 -26q-13 -16 -13 -43q0 -31 23 -51q32 -29 102 -29q61 0 92 22q31 17 31 56q0 30 -27 47q-26 18 -96 18q-41 0 -76 6zM365 1059q24 12 24 45q0 17 -12 29q-21 18 -70 18t-67 -16q-15 -12 -15 -31q0 -26 23 -35q14 -6 59 -6q26 0 58 -4zM485 1020
q76 -46 76 -135q0 -70 -49 -125q-68 -68 -205 -68q-131 0 -203 64q-49 52 -49 125q0 47 23 80q17 33 51 51q-33 36 -33 94q0 59 39 98q49 56 172 56q120 0 172 -54q39 -39 39 -100q0 -45 -33 -86z" />
    <glyph glyph-name="ninesuperior" unicode="&#x2079;" horiz-adv-x="589" 
d="M406 1001q-4 88 -35 119q-27 27 -80 27q-65 0 -90 -35q-17 -20 -17 -49q0 -34 23 -57q28 -25 82 -25q64 0 117 20zM399 891q-57 -23 -110 -23q-119 0 -183 58q-51 48 -51 137q0 73 49 125q63 72 189 72q120 0 182 -72q60 -68 60 -201q0 -139 -68 -215q-72 -78 -184 -78
t-207 60l49 94q75 -41 156 -41q53 0 84 27q25 22 34 57z" />
    <glyph glyph-name="parenleftsuperior" unicode="&#x207d;" horiz-adv-x="294" 
d="M248 1264q-38 -58 -57 -138.5t-19 -158.5q0 -168 78 -283l-92 -53q-103 147 -103 336q0 200 103 350z" />
    <glyph glyph-name="parenrightsuperior" unicode="&#x207e;" horiz-adv-x="294" 
d="M45 1264l92 53q103 -150 103 -342q0 -197 -103 -344l-88 53q37 59 56.5 137.5t19.5 153.5q0 76 -21 154t-59 135z" />
    <glyph glyph-name="zeroinferior" unicode="&#x2080;" horiz-adv-x="626" 
d="M184 252q0 -100 45 -143q30 -27 84 -27t84 27q45 42 45 143q0 107 -47 143q-28 25 -82 25q-52 0 -82 -27q-47 -37 -47 -141zM571 252q0 -175 -110 -246q-59 -39 -148 -39q-86 0 -145 39q-113 73 -113 246q0 170 113 246q56 37 145 37q93 0 148 -39q110 -71 110 -244z" />
    <glyph glyph-name="oneinferior" unicode="&#x2081;" horiz-adv-x="440" 
d="M178 84v291l-78 -27l-34 101l178 86l65 -13v-438l66 -10v-97h-283v97z" />
    <glyph glyph-name="twoinferior" unicode="&#x2082;" horiz-adv-x="593" 
d="M291 90h231v-113h-446v105l252 174q33 23 53 49q14 20 14 47q0 31 -16 47q-27 21 -82 21q-56 0 -96.5 -11t-94.5 -42l-51 94q116 74 242 74q118 0 176 -52q51 -45 51 -133q0 -52 -32 -102q-26 -35 -93 -84z" />
    <glyph glyph-name="threeinferior" unicode="&#x2083;" horiz-adv-x="606" 
d="M516 381q0 -50 -35 -82q36 -23 54 -61q16 -37 16 -76q0 -78 -64 -135q-69 -60 -190 -60q-72 0 -126.5 17t-115.5 63l56 88q86 -53 186 -53q66 0 96 24q29 22 29 56q0 27 -16 43t-54 16h-182v107h170q25 0 37 12t12 33q0 23 -20 33q-21 16 -74 16q-89 0 -176 -41l-43 88
q101 66 225 66q103 0 160 -43q55 -42 55 -111z" />
    <glyph glyph-name="fourinferior" unicode="&#x2084;" horiz-adv-x="614" 
d="M375 66h-320v116l260 344h93l26 -39l-229 -307h170v131l61 25h66v-156h47v-106l-47 -8v-89h-127v89z" />
    <glyph glyph-name="fiveinferior" unicode="&#x2085;" horiz-adv-x="595" 
d="M213 412v-64q40 12 84 12q117 0 178 -55q55 -52 55 -139q0 -86 -59 -139q-69 -60 -184 -60q-129 0 -232 76l49 92q76 -53 183 -53q59 0 90 24q24 21 24 60q0 43 -24 61q-29 23 -88 23q-76 0 -129 -31l-68 35v272h397v-114h-276z" />
    <glyph glyph-name="sixinferior" unicode="&#x2086;" horiz-adv-x="593" 
d="M184 225q3 -82 33 -114q27 -31 82 -31t84 26q23 23 23 60t-25 59q-27 21 -78 21q-63 0 -119 -21zM190 336q55 22 113 22q117 0 180 -57q52 -49 52 -135q0 -85 -60 -139q-66 -60 -176 -60q-117 0 -180 70q-64 73 -64 203q0 140 72 215q67 77 180 77q116 0 205 -59l-49 -94
q-73 41 -154 41q-42 0 -80 -23q-31 -24 -39 -61z" />
    <glyph glyph-name="seveninferior" unicode="&#x2087;" horiz-adv-x="573" 
d="M350 412h-174l-12 -80h-109v194h463v-92q-74 -80 -125 -172q-42 -67 -82 -174l-41 -111h-133l49 144q7 24 43 104q20 41 54 94q37 60 67 93z" />
    <glyph glyph-name="eightinferior" unicode="&#x2088;" horiz-adv-x="616" 
d="M231 229q-23 -9 -36 -28q-13 -13 -13 -41q0 -31 23 -54q33 -26 102 -26q61 0 92 20q31 21 31 58q0 30 -27 47q-26 18 -96 18q-53 0 -76 6zM365 332q24 15 24 47q0 17 -14 31q-24 16 -68 16q-49 0 -69 -18q-13 -10 -13 -29q0 -26 23 -35q14 -8 59 -8q26 0 58 -4zM485 295
q76 -49 76 -135q0 -70 -49 -125q-68 -68 -205 -68q-131 0 -203 64q-49 52 -49 125q0 47 23 80q15 30 51 49q-33 39 -33 96q0 59 39 98q49 56 172 56q120 0 172 -54q39 -39 39 -100q0 -45 -33 -86z" />
    <glyph glyph-name="nineinferior" unicode="&#x2089;" horiz-adv-x="589" 
d="M406 274q-4 88 -35 119q-27 27 -80 27q-65 0 -90 -35q-17 -20 -17 -49q0 -34 23 -57q28 -25 82 -25q64 0 117 20zM399 164q-57 -23 -110 -23q-119 0 -183 58q-51 48 -51 137q0 73 49 125q62 71 189 71q120 0 182 -71q60 -68 60 -201q0 -139 -68 -213q-71 -80 -184 -80
q-112 0 -207 60l49 96q74 -43 156 -43q54 0 84 26q24 21 34 58z" />
    <glyph glyph-name="parenleftinferior" unicode="&#x208d;" horiz-adv-x="294" 
d="M248 553q-38 -58 -57 -138.5t-19 -158.5q0 -168 78 -283l-92 -55q-103 150 -103 338q0 200 103 350z" />
    <glyph glyph-name="parenrightinferior" unicode="&#x208e;" horiz-adv-x="294" 
d="M45 541l92 53q103 -147 103 -342q0 -194 -103 -344l-88 55q37 58 56.5 136t19.5 153q0 78 -20.5 156t-59.5 133z" />
    <glyph glyph-name="Euro" unicode="&#x20ac;" horiz-adv-x="1380" 
d="M68 582h958l6 -140l-334 -18h-247q44 -89 110 -141q126 -99 303 -99q100 0 183.5 17.5t179.5 56.5l78 -176q-200 -105 -455 -105q-325 0 -526 189q-109 103 -152 258l-104 4v154zM68 668v147l108 6q49 168 176 271q196 159 496 159q263 0 455 -98l-78 -180
q-184 71 -361 71q-156 0 -274 -73q-86 -54 -131 -146h223l334 -18l6 -139h-954z" />
    <glyph glyph-name="afii61352" unicode="&#x2116;" horiz-adv-x="2043" 
d="M1423 358h510v-153h-510v153zM1047 1229h251v-1229h-243l-676 840v-840h-252v1229h242l678 -838v838zM1679 428q-123 0 -200 74q-80 77 -80 198q0 119 80 199q77 74 200 74q129 0 205 -82q74 -74 74 -191q0 -113 -70 -190q-79 -82 -209 -82zM1806 702q0 55 -32 95
q-41 32 -95 32q-60 0 -94 -34q-33 -33 -33 -93q0 -57 35 -92q40 -35 92 -35q60 0 97 37q30 30 30 90z" />
    <glyph glyph-name="trademark" unicode="&#x2122;" horiz-adv-x="1390" 
d="M397 1087v-405h-147v405h-174v132h497v-132h-176zM752 952v-270h-140v537h158l170 -334l170 334h154v-537h-144v274l-139 -274h-94z" />
    <glyph glyph-name="minus" unicode="&#x2212;" horiz-adv-x="706" 
d="M66 737h575v-194h-575v194z" />
    <glyph glyph-name="approxequal" unicode="&#x2248;" horiz-adv-x="831" 
d="M143 602l-77 125q95 82 200 82q50 0 148 -30.5t155 -30.5q68 0 127 43l70 -127q-95 -82 -201 -82q-51 0 -146 30.5t-147 30.5q-76 0 -129 -41zM143 514l-77 125q95 82 200 82q50 0 148 -29.5t155 -29.5q69 0 127 40l70 -127q-94 -81 -201 -81q-51 0 -146 30.5t-147 30.5
q-76 0 -129 -41z" />
    <glyph glyph-name="notequal" unicode="&#x2260;" horiz-adv-x="774" 
d="M66 879h315l39 122l145 -45l-24 -77h168v-177h-226l-30 -104h256v-176h-316l-39 -129l-143 45l25 84h-170v176h227l33 104h-260v177z" />
    <glyph glyph-name="lessequal" unicode="&#x2264;" horiz-adv-x="708" 
d="M623 494l-88 -132l-469 326v76l458 319l97 -129l-281 -227zM66 559l14 14l407 -280l-86 -123l-335 217v172z" />
    <glyph glyph-name="greaterequal" unicode="&#x2265;" horiz-adv-x="708" 
d="M629 573l14 -14v-172l-336 -217l-86 123zM174 362l-88 134l283 231l-281 229l96 129l459 -321v-76z" />
    <glyph glyph-name="percent" horiz-adv-x="1439" 
d="M313 61l676 992l135 -88l-669 -996zM354 455q-128 0 -213 82q-86 80 -86 211q0 130 86 213q84 81 213 81q141 0 224 -92q79 -82 79 -202q0 -121 -79 -203q-87 -90 -224 -90zM492 748q0 64 -35 102q-37 43 -103 43q-57 0 -96 -39q-39 -42 -39 -106q0 -59 35 -97
q37 -47 100 -47t101 41q37 40 37 103zM1081 -23q-127 0 -215 82q-84 84 -84 211q0 130 86 213q85 82 213 82q140 0 224 -90q79 -85 79 -205q0 -121 -79 -200q-86 -93 -224 -93zM1219 270q0 63 -35 101q-39 45 -103 45q-63 0 -96 -39q-39 -42 -39 -107q0 -60 33 -96
q39 -45 102 -45t101 41q37 40 37 100z" />
    <glyph glyph-name="percent.oldstyle" horiz-adv-x="1439" 
d="M313 61l676 992l135 -88l-669 -996zM354 455q-128 0 -213 82q-86 80 -86 211q0 130 86 213q84 81 213 81q141 0 224 -92q79 -82 79 -202q0 -121 -79 -203q-87 -90 -224 -90zM492 748q0 64 -35 102q-37 43 -103 43q-57 0 -96 -39q-39 -42 -39 -106q0 -59 35 -97
q37 -47 100 -47t101 41q37 40 37 103zM1081 -23q-127 0 -215 82q-84 84 -84 211q0 130 86 213q85 82 213 82q140 0 224 -90q79 -85 79 -205q0 -121 -79 -200q-86 -93 -224 -93zM1219 270q0 63 -35 101q-39 45 -103 45q-63 0 -96 -39q-39 -42 -39 -107q0 -60 33 -96
q39 -45 102 -45t101 41q37 40 37 100z" />
    <glyph glyph-name="perthousand.oldstyle" horiz-adv-x="2097" 
d="M313 61l676 992l135 -88l-669 -996zM354 455q-128 0 -213 82q-86 80 -86 211q0 130 86 213q84 81 213 81q141 0 224 -92q79 -82 79 -202q0 -121 -79 -203q-87 -90 -224 -90zM492 748q0 64 -35 102q-37 43 -103 43q-57 0 -96 -39q-39 -42 -39 -106q0 -59 35 -97
q37 -47 100 -47t101 41q37 40 37 103zM1081 -23q-127 0 -215 82q-84 84 -84 211q0 130 86 213q85 82 213 82q140 0 224 -90q79 -85 79 -205q0 -121 -79 -200q-86 -93 -224 -93zM1219 270q0 63 -35 101q-39 45 -103 45q-63 0 -96 -39q-39 -42 -39 -107q0 -60 33 -96
q39 -45 102 -45t101 41q37 40 37 100zM1731 -23q-127 0 -215 82q-84 84 -84 211q0 130 86 213q85 82 213 82q139 0 223 -90q80 -87 80 -205q0 -120 -80 -200q-86 -93 -223 -93zM1868 270q0 63 -35 101q-39 45 -102 45q-64 0 -97 -39q-39 -42 -39 -107q0 -60 33 -96
q39 -45 103 -45q62 0 100 41q37 40 37 100z" />
    <glyph glyph-name="Breve" horiz-adv-x="825" 
d="M102 1579l172 18q8 -55 48 -92q36 -28 92 -28q58 0 90 28q35 28 47 92l172 -18q-15 -131 -96 -203q-80 -71 -213 -71t-217 75q-80 71 -95 199z" />
    <glyph glyph-name="Dieresis" horiz-adv-x="954" 
d="M252 1614q70 0 110.5 -40.5t40.5 -103.5q0 -60 -40.5 -99.5t-110.5 -39.5q-69 0 -109.5 39.5t-40.5 99.5q0 63 40.5 103.5t109.5 40.5zM700 1614q72 0 112 -40t40 -104q0 -61 -40.5 -100t-111.5 -39q-69 0 -109 39.5t-40 99.5q0 63 40 103.5t109 40.5z" />
    <glyph glyph-name="commaaccent" horiz-adv-x="481" 
d="M240 246q64 0 101.5 -37t37.5 -94q0 -30 -12 -66l-95 -244l-108 23l24 162q-41 9 -63.5 43t-22.5 82q0 57 37.5 94t100.5 37z" />
    <glyph glyph-name="dblgrave" horiz-adv-x="712" 
d="M537 1487l73 -318l-125 -41l-118 299zM262 1483l127 -314l-125 -47l-162 289z" />
    <glyph glyph-name="Acute" horiz-adv-x="530" 
d="M102 1372l134 318l192 -91l-166 -296z" />
    <glyph glyph-name="Grave" horiz-adv-x="530" 
d="M295 1690l133 -318l-160 -69l-166 296z" />
    <glyph glyph-name="Caron" horiz-adv-x="806" 
d="M102 1561l86 100l218 -158l215 158l84 -100l-269 -256h-63z" />
    <glyph glyph-name="Circumflex" horiz-adv-x="806" 
d="M186 1307l-84 100l269 256h63l271 -256l-84 -100l-218 157z" />
    <glyph glyph-name="commaaccent.cap" horiz-adv-x="503" 
d="M252 256q67 0 105 -38t38 -97q0 -32 -12 -68l-98 -254l-113 25l27 168q-42 9 -66 44t-24 85q0 59 38 97t105 38z" />
    <glyph glyph-name="Dotaccent" horiz-adv-x="499" 
d="M248 264q70 0 109.5 -39t39.5 -102q0 -59 -39.5 -98t-109.5 -39q-67 0 -106.5 39t-39.5 98q0 63 39 102t107 39z" />
    <glyph glyph-name="Hungarumlaut" horiz-adv-x="763" 
d="M102 1378l82 353l189 -66l-131 -332zM346 1380l139 346l177 -79l-179 -318z" />
    <glyph glyph-name="dblGrave" horiz-adv-x="763" 
d="M578 1731l84 -353l-140 -45l-131 332zM279 1726l139 -346l-137 -51l-179 318z" />
    <glyph glyph-name="Macron" horiz-adv-x="894" 
d="M102 1526h691v-172h-691v172z" />
    <glyph glyph-name="Ring" horiz-adv-x="688" 
d="M344 1305q-108 0 -174 63q-68 68 -68 172q0 103 70 170q69 66 172 66q107 0 176 -72q66 -66 66 -164q0 -103 -64 -164q-65 -71 -178 -71zM449 1540q0 47 -29 76q-29 26 -76 26q-53 0 -78 -28q-28 -20 -28 -74q0 -46 30 -76q29 -26 76 -26q50 0 80 30q25 22 25 72z" />
    <glyph glyph-name="Tilde" horiz-adv-x="974" 
d="M475 1370q-84 37 -162 37q-83 0 -141 -43l-70 115q112 100 230 100q72 0 157 -31q89 -39 173 -39q76 0 139 43l71 -114q-100 -103 -221 -103q-89 0 -176 35z" />
    <glyph glyph-name="zero.fitted" horiz-adv-x="1265" 
d="M315 616q0 -244 95 -350q77 -90 225 -90q156 0 235 98q82 106 82 342q0 247 -90 347q-78 90 -227 90q-154 0 -232 -90q-88 -109 -88 -347zM1212 616q0 -291 -141 -458q-155 -181 -436 -181q-266 0 -418 162q-162 168 -162 477q0 293 150 463q152 172 430 172
q275 0 428 -172q149 -169 149 -463z" />
    <glyph glyph-name="one.fitted" horiz-adv-x="1265" 
d="M358 891l-59 164l385 190l125 -18v-1039l158 -18v-170h-613v168l201 20v781z" />
    <glyph glyph-name="two.fitted" horiz-adv-x="1265" 
d="M160 0v182l573 422q87 62 125 115q43 62 43 141q0 92 -78 139q-74 48 -196 48q-114 0 -212.5 -27.5t-199.5 -91.5l-90 174q121 82 239 115.5t275 33.5q230 0 367 -100q145 -101 145 -287q0 -128 -66 -225q-56 -80 -190 -176l-373 -260h619v-203h-981z" />
    <glyph glyph-name="three.fitted" horiz-adv-x="1265" 
d="M612 184q154 0 238 72q65 59 65 145q0 76 -41 123q-50 56 -151 56h-391v192h352q75 0 117 37q39 33 39 98t-58 107q-61 39 -194 39q-105 0 -190.5 -19t-180.5 -71l-90 161q111 70 223 98.5t256 28.5q230 0 361 -88q127 -87 127 -243q0 -70 -35 -129q-28 -51 -80 -86v-9
q91 -39 137 -104q55 -79 55 -191q0 -173 -129 -286q-167 -138 -430 -138q-161 0 -283 37t-235 115l101 174q112 -68 204 -93.5t213 -25.5z" />
    <glyph glyph-name="four.fitted" horiz-adv-x="1265" 
d="M72 190v177l633 862h202l45 -41l-577 -795h459v299l190 86h57v-385h113v-203h-113v-190h-247v190h-762z" />
    <glyph glyph-name="five.fitted" horiz-adv-x="1265" 
d="M602 182q165 0 242 74q67 64 67 162q0 109 -71 168q-76 61 -234 61q-88 0 -153 -14.5t-146 -46.5l-121 61v582h885v-189h-655v-231q116 37 243 37q232 0 371 -115q135 -110 135 -311q0 -195 -147 -320q-148 -123 -400 -123q-169 0 -283.5 35t-236.5 119l101 172
q100 -67 191.5 -94t211.5 -27z" />
    <glyph glyph-name="six.fitted" horiz-adv-x="1265" 
d="M664 838q237 0 368 -103q142 -110 142 -315q0 -180 -127 -301q-74 -68 -180.5 -105t-225.5 -37q-286 0 -424 183q-125 158 -125 442q0 328 187 506q152 143 397 143q249 0 426 -104l-86 -174q-158 76 -330 76q-149 0 -231 -76q-76 -72 -95 -197q124 62 304 62zM641 176
q144 0 217 76q64 71 64 168q0 95 -56 151q-65 68 -215 68q-173 0 -303 -55v-21q0 -171 62 -272q72 -115 231 -115z" />
    <glyph glyph-name="seven.fitted" horiz-adv-x="1265" 
d="M115 842v387h1036v-174q-196 -196 -301 -385q-101 -176 -178 -459l-58 -211h-264l78 272q65 229 178 433q81 153 223 321h-497l-33 -184h-184z" />
    <glyph glyph-name="eight.fitted" horiz-adv-x="1265" 
d="M633 -23q-144 0 -257 30.5t-179 86.5q-134 113 -134 291q0 120 72 205q49 60 146 100q-63 46 -86 96q-33 64 -33 132q0 163 131 249q124 84 340 84q219 0 348 -80q121 -80 121 -229q0 -81 -37 -137q-37 -60 -82 -86q109 -48 162 -121q59 -80 59 -199q0 -195 -137 -303
q-154 -119 -434 -119zM412 924q0 -67 37 -99q50 -47 184 -47q65 0 129 -6q45 19 69 62q23 44 23 90q0 66 -47 102q-59 41 -174 41q-109 0 -164 -35q-57 -37 -57 -108zM633 588q-108 0 -164 10q-81 -35 -117 -80q-39 -51 -39 -131q0 -91 62 -143q78 -70 258 -70q94 0 153 15
t103 51q61 52 61 147q0 99 -69 150q-75 51 -248 51z" />
    <glyph glyph-name="nine.fitted" horiz-adv-x="1265" 
d="M602 391q-238 0 -373 107q-137 108 -137 311q0 194 150 317q146 125 385 125q272 0 413 -166q134 -159 134 -458q0 -337 -195 -510q-152 -140 -395 -140q-248 0 -426 105l84 178q160 -80 331 -80q151 0 234 74q75 69 98 199q-124 -62 -303 -62zM627 1049q-150 0 -219 -72
q-64 -67 -64 -168q0 -92 55 -147q69 -72 215 -72q177 0 304 55v21q0 207 -82 301q-70 82 -209 82z" />
    <glyph glyph-name="zerooldstyle" horiz-adv-x="1251" 
d="M627 1042q260 0 413 -159q140 -146 140 -371t-140 -371q-153 -159 -413 -159q-128 0 -234.5 41.5t-179.5 117.5q-139 145 -139 371t139 371q73 76 179.5 117.5t234.5 41.5zM627 842q-146 0 -226 -90q-79 -91 -79 -240t79 -240q80 -90 226 -90q145 0 225 90q80 89 80 240
t-80 240q-80 90 -225 90z" />
    <glyph glyph-name="oneoldstyle" horiz-adv-x="768" 
d="M137 705l-67 163l354 164l133 -16v-832l121 -8v-176h-574v174l203 10v580z" />
    <glyph glyph-name="twooldstyle" horiz-adv-x="1097" 
d="M98 0v182l539 344q71 47 100 88q27 40 27 95q0 59 -45 92q-54 39 -172 39q-184 0 -393 -90l-74 178q216 114 467 114q228 0 348 -88q117 -81 117 -239q0 -100 -58 -183q-62 -89 -186 -163l-274 -168h501v-201h-897z" />
    <glyph glyph-name="threeoldstyle" horiz-adv-x="1122" 
d="M170 784l-68 177q120 49 216 65t212 16q204 0 320 -86q115 -86 115 -219q0 -54 -25 -112q-27 -56 -70 -82v-8q86 -45 129 -121q48 -76 48 -172q0 -203 -158 -328q-154 -119 -416 -119q-248 0 -430 90l76 178q186 -63 348 -63q179 0 264 76q66 57 66 160q0 74 -45 116
q-56 56 -164 56h-316v196h273q95 0 137 39q33 29 33 88q0 51 -39 78q-52 37 -164 37q-86 0 -160.5 -12.5t-181.5 -49.5z" />
    <glyph glyph-name="fouroldstyle" horiz-adv-x="1177" 
d="M66 39v213l589 772h258l13 -23l-572 -763h406v280l106 33h133v-313h111v-181l-111 -18v-225h-239v225h-694z" />
    <glyph glyph-name="fiveoldstyle" horiz-adv-x="1140" 
d="M233 414l-81 51v559h825v-201h-598v-190q89 12 184 12q249 0 383 -119q119 -106 119 -295q0 -180 -127 -297q-140 -131 -389 -131q-146 0 -257 26t-237 91l84 168q114 -48 202.5 -67t190.5 -19q144 0 220 70q63 60 63 159q0 91 -59 150q-75 68 -211 68q-148 0 -312 -35z
" />
    <glyph glyph-name="sixoldstyle" horiz-adv-x="1232" 
d="M647 838q238 0 369 -103q141 -109 141 -315q0 -180 -127 -301q-75 -69 -180.5 -105.5t-224.5 -36.5q-286 0 -424 183q-125 158 -125 442q0 329 186 506q152 143 397 143q249 0 426 -104l-86 -174q-158 76 -329 76q-150 0 -232 -76q-74 -71 -94 -197q124 62 303 62z
M625 176q144 0 217 76q63 69 63 168q0 96 -55 151q-65 68 -215 68q-173 0 -303 -55v-21q0 -173 61 -272q72 -115 232 -115z" />
    <glyph glyph-name="sevenoldstyle" horiz-adv-x="1124" 
d="M66 643v381h1003v-166q-167 -164 -289 -377q-105 -188 -168 -411l-69 -256h-252l92 329q56 197 152 373q94 172 215 307h-465l-29 -180h-190z" />
    <glyph glyph-name="eightoldstyle" horiz-adv-x="1282" 
d="M641 -18q-294 0 -432 110q-137 110 -137 287q0 116 69 201q51 62 148 108q-119 69 -119 219q0 149 113 232q124 90 358 90q222 0 346 -74q123 -76 123 -225q0 -71 -32.5 -127t-86.5 -88q107 -47 156 -113q63 -81 63 -207q0 -195 -139 -299q-151 -114 -430 -114zM420 911
q0 -70 51 -102q52 -37 170 -37q66 0 127 -6q43 19 68.5 57.5t25.5 87.5q0 60 -43 95q-56 41 -178 41q-119 0 -172 -37q-49 -34 -49 -99zM641 584q-89 0 -164 10q-80 -39 -117 -84q-38 -53 -38 -127q0 -93 63 -141q80 -66 256 -66q90 0 148 14t102 48q67 48 67 145
q0 92 -59 139q-75 62 -258 62z" />
    <glyph glyph-name="nineoldstyle" horiz-adv-x="1232" 
d="M586 182q-238 0 -373 107q-137 108 -137 311q0 195 149 318q145 124 385 124q274 0 414 -165q133 -158 133 -459q0 -305 -174 -473q-153 -150 -416 -150q-251 0 -426 103l84 178q162 -78 332 -78q148 0 234 68q74 62 98 178q-124 -62 -303 -62zM610 840q-143 0 -215 -66
q-67 -58 -67 -168q0 -98 55 -153q69 -72 215 -72q176 0 303 55v21q0 207 -82 301q-70 82 -209 82z" />
    <glyph glyph-name="one.taboldstyle" horiz-adv-x="1234" 
d="M379 705l-68 163l355 164l133 -16v-832l121 -8v-176h-574v174l203 10v580z" />
    <glyph glyph-name="two.taboldstyle" horiz-adv-x="1234" 
d="M170 0v182l539 344q71 47 100 88q27 40 27 95q0 59 -45 92q-54 39 -173 39q-184 0 -393 -90l-73 178q216 114 466 114q229 0 349 -88q116 -80 116 -239q0 -101 -57 -183q-62 -89 -186 -163l-275 -168h502v-201h-897z" />
    <glyph glyph-name="zero.taboldstyle" horiz-adv-x="1234" 
d="M618 1042q261 0 414 -159q139 -145 139 -371t-139 -371q-153 -159 -414 -159q-127 0 -233.5 41.5t-179.5 117.5q-139 145 -139 371t139 371q73 76 179.5 117.5t233.5 41.5zM618 842q-145 0 -225 -90q-80 -93 -80 -240t80 -240q80 -90 225 -90q146 0 226 90q80 89 80 240
t-80 240q-80 90 -226 90z" />
    <glyph glyph-name="three.taboldstyle" horiz-adv-x="1234" 
d="M242 784l-68 177q120 49 216 65t212 16q204 0 320 -86q114 -86 114 -219q0 -57 -24 -112q-27 -56 -70 -82v-8q86 -45 129 -121q47 -74 47 -172q0 -204 -157 -328q-154 -119 -416 -119q-248 0 -430 90l75 178q186 -63 349 -63q179 0 264 76q65 56 65 160q0 74 -45 116
q-56 56 -164 56h-315v196h272q96 0 138 39q32 28 32 88q0 52 -38 78q-52 37 -164 37q-86 0 -160.5 -12.5t-181.5 -49.5z" />
    <glyph glyph-name="four.taboldstyle" horiz-adv-x="1234" 
d="M94 39v213l590 772h258l12 -23l-571 -763h405v280l107 33h133v-313h111v-181l-111 -18v-225h-240v225h-694z" />
    <glyph glyph-name="five.taboldstyle" horiz-adv-x="1234" 
d="M291 414l-82 51v559h825v-201h-598v-190q88 12 185 12q249 0 383 -119q118 -106 118 -295q0 -180 -127 -297q-140 -131 -389 -131q-146 0 -256.5 26t-236.5 91l84 168q114 -48 202.5 -67t190.5 -19q143 0 219 70q63 60 63 159q0 91 -59 150q-75 68 -211 68
q-147 0 -311 -35z" />
    <glyph glyph-name="six.taboldstyle" horiz-adv-x="1234" 
d="M647 838q238 0 369 -103q141 -109 141 -315q0 -180 -127 -301q-75 -69 -180.5 -105.5t-224.5 -36.5q-286 0 -424 183q-125 158 -125 442q0 329 186 506q152 143 397 143q249 0 426 -104l-86 -174q-158 76 -329 76q-150 0 -232 -76q-74 -71 -94 -197q124 62 303 62z
M625 176q144 0 217 76q63 69 63 168q0 96 -55 151q-65 68 -215 68q-173 0 -303 -55v-21q0 -173 61 -272q72 -115 232 -115z" />
    <glyph glyph-name="seven.taboldstyle" horiz-adv-x="1234" 
d="M115 643v381h1003v-166q-167 -164 -289 -377q-103 -184 -167 -411l-70 -256h-252l92 329q56 197 152 373q94 172 215 307h-465l-29 -180h-190z" />
    <glyph glyph-name="eight.taboldstyle" horiz-adv-x="1234" 
d="M618 -18q-294 0 -432 110q-137 110 -137 287q0 115 70 201q51 63 147 108q-119 69 -119 219q0 149 113 232q124 90 358 90q223 0 347 -74q122 -75 122 -225q0 -71 -32 -127t-86 -88q105 -46 155 -113q64 -82 64 -207q0 -195 -139 -299q-151 -114 -431 -114zM397 911
q0 -70 52 -102q52 -37 169 -37q66 0 127 -6q43 19 69 57.5t26 87.5q0 60 -43 95q-56 41 -179 41q-119 0 -172 -37q-49 -34 -49 -99zM618 584q-88 0 -163 10q-80 -39 -117 -84q-39 -55 -39 -127q0 -93 63 -141q80 -66 256 -66q90 0 148 14t102 48q68 49 68 145q0 92 -59 139
q-75 62 -259 62z" />
    <glyph glyph-name="nine.taboldstyle" horiz-adv-x="1234" 
d="M586 182q-238 0 -373 107q-137 108 -137 311q0 195 149 318q145 124 385 124q274 0 414 -165q133 -158 133 -459q0 -305 -174 -473q-153 -150 -416 -150q-251 0 -426 103l84 178q162 -78 332 -78q148 0 234 68q74 62 98 178q-124 -62 -303 -62zM610 840q-143 0 -215 -66
q-67 -58 -67 -168q0 -98 55 -153q69 -72 215 -72q176 0 303 55v21q0 207 -82 301q-70 82 -209 82z" />
    <glyph glyph-name="currency.taboldstyle" horiz-adv-x="1216" 
d="M352 918l88 -87q70 39 168 39q93 0 166 -39l86 84l117 -110l-80 -84q45 -76 45 -172q0 -90 -45 -172l80 -82l-115 -117l-88 88q-68 -39 -166 -39q-101 0 -168 37l-88 -88l-112 119l79 82q-43 73 -43 172t43 172l-79 82zM772 551q0 76 -46 120t-120 44q-72 0 -119 -42.5
t-47 -121.5q0 -80 47 -125t119 -45q73 0 119.5 44.5t46.5 125.5z" />
    <glyph glyph-name="centoldstyle" horiz-adv-x="1132" 
d="M563 1174h189l6 -136q162 -12 295 -67l-62 -172q-154 47 -311 47q-172 0 -258 -80q-92 -86 -92 -250q0 -148 84 -235q94 -97 266 -97q156 0 311 52l62 -181q-125 -54 -293 -67l-8 -160h-191l-8 162q-198 21 -313 127q-164 151 -164 395q0 243 162 393q116 107 315 131z
" />
    <glyph glyph-name="dollaroldstyle" horiz-adv-x="1177" 
d="M76 733q0 74 36 135t103 101q91 53 266 69l11 138h190l6 -138q196 -14 352 -77l-61 -170q-79 25 -185 40t-194 15q-159 0 -225 -31q-51 -25 -51 -70q0 -40 22 -59q26 -24 111 -33l266 -26q199 -20 285 -92q94 -72 94 -209q0 -166 -129 -250q-100 -67 -293 -86l-6 -162
h-191l-8 156q-226 10 -389 84l59 178q74 -30 179 -49t194 -19q218 0 287 49q49 27 49 86q0 38 -27 62q-37 32 -143 43l-278 28q-167 17 -252 93q-78 72 -78 194z" />
    <glyph glyph-name="cent.taboldstyle" horiz-adv-x="1216" 
d="M606 1174h189l6 -136q162 -12 295 -67l-62 -172q-154 47 -311 47q-172 0 -258 -80q-92 -86 -92 -250q0 -148 84 -235q94 -97 266 -97q156 0 311 52l62 -181q-125 -54 -293 -67l-8 -160h-191l-8 162q-198 21 -313 127q-164 151 -164 395q0 243 162 393q116 107 315 131z
" />
    <glyph glyph-name="dollar.taboldstyle" horiz-adv-x="1216" 
d="M96 733q0 74 36.5 135t103.5 101q91 53 266 69l10 138h190l7 -138q196 -14 352 -77l-62 -170q-79 25 -184.5 40t-193.5 15q-160 0 -226 -31q-51 -25 -51 -70q0 -39 23 -59q27 -24 110 -33l266 -26q199 -20 285 -92q94 -72 94 -209q0 -166 -129 -250q-100 -67 -293 -86
l-6 -162h-190l-8 156q-228 10 -390 84l60 178q74 -30 179 -49t194 -19q217 0 286 49q49 27 49 86q0 39 -26 62q-37 32 -143 43l-279 28q-167 17 -252 93q-78 72 -78 194z" />
    <glyph glyph-name="Euro.taboldstyle" horiz-adv-x="1216" 
d="M86 479h756v-135h-412q34 -66 90 -102q83 -58 225 -58q155 0 310 52l63 -181q-174 -73 -391 -73q-274 0 -422 135q-101 90 -139 227h-80v135zM86 686h80q38 133 137 219q149 137 424 137q219 0 391 -71l-63 -172q-152 47 -310 47q-144 0 -229 -58q-66 -48 -90 -102h416
v-135h-756v135z" />
    <glyph glyph-name="yen.taboldstyle" horiz-adv-x="1216" 
d="M195 352l155 17l-346 655h277l323 -655h19l323 655h264l-348 -655l164 -17v-143h-831v143zM195 147h831v-131l-293 -16v-199h-252v199l-286 16v131z" />
    <glyph glyph-name="numbersign.taboldstyle" horiz-adv-x="1216" 
d="M338 127l16 176h-168v137h181l12 125h-191v140h203l19 200l161 -12l-18 -188h125l18 200l162 -12l-18 -188h190v-140h-205l-12 -125h215v-137h-227l-17 -190l-159 14l16 176h-125l-16 -190zM541 565l-13 -125h125l13 125h-125z" />
    <glyph glyph-name="dollarinferior" horiz-adv-x="583" 
d="M55 344q0 71 68 113q49 25 100 30l6 62h109l6 -57q99 -8 162 -37l-35 -99q-32 12 -85.5 19.5t-88.5 7.5q-69 0 -94 -10q-23 -7 -23 -25q0 -14 10 -22q16 -10 46 -13l108 -14q70 -7 115 -33q69 -39 69 -123q0 -78 -71 -123q-53 -29 -111 -34l-8 -68h-107l-8 66
q-91 7 -164 39l29 98q97 -29 180 -29q72 0 107 14q26 12 26 39t-77 39l-119 19q-68 12 -107 45q-43 40 -43 96z" />
    <glyph glyph-name="hyphensuperior" horiz-adv-x="385" 
d="M55 1051h275v-103h-275v103z" />
    <glyph glyph-name="commasuperior" horiz-adv-x="256" 
d="M129 842q33 0 52.5 -19.5t19.5 -48.5q0 -20 -6 -35l-54 -129l-57 13l10 86q-39 12 -39 65q0 29 20 48.5t54 19.5z" />
    <glyph glyph-name="periodsuperior" horiz-adv-x="256" 
d="M127 842q35 0 54.5 -19.5t19.5 -50.5q0 -29 -20 -48t-54 -19q-33 0 -52.5 19t-19.5 48q0 31 19.5 50.5t52.5 19.5z" />
    <glyph glyph-name="centsuperior" horiz-adv-x="507" 
d="M233 1161h97l6 -49q66 -10 117 -31l-31 -92q-68 21 -129 21q-52 0 -78 -29q-27 -24 -27 -82q0 -53 27 -80q29 -26 78 -26q72 0 127 26l33 -92q-50 -29 -117 -39l-8 -47h-95l-8 49q-65 15 -106 53q-64 64 -64 156q0 98 64 162q41 35 106 51z" />
    <glyph glyph-name="dollarsuperior" horiz-adv-x="583" 
d="M55 1065q0 69 68 111q40 24 100 32l6 62h109l6 -60q101 -9 162 -36l-35 -99q-33 12 -87 20.5t-87 8.5q-69 0 -94 -10q-23 -10 -23 -25q0 -17 10 -22q14 -11 46 -15l108 -12q63 -6 115 -33q69 -42 69 -123q0 -80 -71 -125q-57 -27 -111 -34l-8 -68h-107l-8 65
q-104 13 -164 41l29 99q91 -31 180 -31q72 0 107 14q26 12 26 39q0 17 -25.5 27t-51.5 12l-119 19q-61 11 -107 45q-43 40 -43 98z" />
    <glyph glyph-name="hypheninferior" horiz-adv-x="385" 
d="M55 324h275v-103h-275v103z" />
    <glyph glyph-name="commainferior" horiz-adv-x="256" 
d="M129 117q33 0 52.5 -20t19.5 -50q0 -21 -6 -33l-54 -129l-57 13l10 86q-39 9 -39 63q0 30 20 50t54 20z" />
    <glyph glyph-name="periodinferior" horiz-adv-x="256" 
d="M127 115q35 0 54.5 -19.5t19.5 -50.5q0 -29 -20 -48.5t-54 -19.5q-33 0 -52.5 19.5t-19.5 48.5q0 31 19.5 50.5t52.5 19.5z" />
    <glyph glyph-name="centinferior" horiz-adv-x="507" 
d="M233 455h97l6 -49q55 -6 117 -31l-31 -92q-65 20 -129 20q-52 0 -76 -24q-29 -29 -29 -84q0 -52 23 -78q31 -31 82 -31q61 0 127 27l33 -93q-48 -28 -117 -38l-8 -48h-95l-8 50q-65 15 -106 53q-64 64 -64 158q0 95 64 159q47 40 106 52z" />
    <glyph glyph-name="zero.denominator" horiz-adv-x="923" 
d="M242 426q0 -193 88 -250q53 -37 131 -37t131 37q90 60 90 250q0 186 -88 248q-56 37 -133 37q-78 0 -131 -37q-88 -62 -88 -248zM868 426q0 -119 -41.5 -221t-134.5 -162q-89 -59 -231 -59q-141 0 -230 59q-176 112 -176 383q0 265 174 383q93 57 232 57q141 0 231 -57
q93 -63 134.5 -164.5t41.5 -218.5z" />
    <glyph glyph-name="one.denominator" horiz-adv-x="612" 
d="M256 150v499l-129 -41l-51 129l270 129l94 -18v-696l107 -19v-133h-430v133z" />
    <glyph glyph-name="two.denominator" horiz-adv-x="872" 
d="M375 158h413v-158h-694v152l414 286q58 43 76 68q28 39 28 82q0 55 -45 88q-47 35 -129 35q-134 0 -286 -86l-76 129q170 114 362 114q171 0 267 -80q92 -73 92 -200q0 -86 -56 -158q-24 -32 -58.5 -61t-92.5 -70z" />
    <glyph glyph-name="three.denominator" horiz-adv-x="892" 
d="M705 500q55 -28 88 -86q34 -55 34 -129q0 -141 -116 -222q-101 -77 -277 -77q-110 0 -202 24.5t-177 87.5l78 129q77 -47 146.5 -66.5t154.5 -19.5q111 0 168 49q41 38 41 95q0 45 -25 73q-35 35 -102 35h-280v152h264q39 0 69 30q19 27 19 56q0 37 -33 57
q-39 25 -125 25q-139 0 -270 -68l-74 123q159 100 352 100q155 0 242 -57q94 -60 94 -168q0 -90 -69 -143z" />
    <glyph glyph-name="four.denominator" horiz-adv-x="884" 
d="M573 143h-518v142l437 569h155l23 -45l-387 -510h290v223l78 33h103v-256h75v-143l-75 -13v-143h-181v143z" />
    <glyph glyph-name="five.denominator" horiz-adv-x="851" 
d="M725 698h-449v-125q82 21 148 21q175 0 272 -84q90 -80 90 -213q0 -154 -116 -236q-99 -77 -264 -77q-106 0 -186 24.5t-165 87.5l76 129q72 -47 133 -66.5t142 -19.5q94 0 147 47q47 38 47 111q0 66 -49 106q-51 39 -141 39q-50 0 -111 -14q-32 -8 -96 -35l-99 33v426
h621v-154z" />
    <glyph glyph-name="six.denominator" horiz-adv-x="880" 
d="M250 401q0 -122 49 -188q50 -72 143 -72q94 0 144 47q47 41 47 109q0 67 -47 104q-43 35 -135 35q-119 0 -201 -35zM262 561q79 33 189 33q187 0 278 -82q86 -77 86 -215t-96 -221q-104 -90 -277 -90q-182 0 -276 112q-100 117 -100 328q0 214 116 336q103 106 281 106
q85 0 155 -19t150 -65l-66 -133q-121 62 -237 62q-84 0 -139 -43q-42 -37 -64 -109z" />
    <glyph glyph-name="seven.denominator" horiz-adv-x="827" 
d="M532 698h-309l-18 -125h-150v281h717v-127q-106 -106 -190 -252q-82 -142 -138 -305l-61 -170h-193l72 217q55 150 121 266q65 115 149 215z" />
    <glyph glyph-name="eight.denominator" horiz-adv-x="890" 
d="M336 408q-53 -16 -74 -54q-22 -31 -22 -80q0 -66 49 -100q51 -35 157 -35q116 0 162 41q43 34 43 94q0 63 -41 93q-48 36 -164 36q-74 0 -110 5zM532 555q22 8 41 31q13 23 13 49q0 37 -23 53q-34 29 -117 29q-68 0 -110 -25q-29 -22 -29 -57q0 -24 15 -43q14 -17 34 -25
q34 -10 90 -10q59 0 86 -2zM186 489q-63 55 -63 142q0 112 82 174q84 63 241 63q163 0 248 -69q72 -56 72 -158q0 -37 -16.5 -74t-47.5 -59q58 -29 86 -74q48 -62 48 -158q0 -119 -88 -200q-98 -90 -302 -90q-191 0 -288 77q-103 79 -103 213q0 83 37 138q34 46 94 75z" />
    <glyph glyph-name="nine.denominator" horiz-adv-x="880" 
d="M631 453q0 134 -56 200q-48 60 -137 60q-118 0 -162 -66q-28 -39 -28 -90q0 -59 39 -98q44 -41 143 -41q113 0 201 35zM618 293q-82 -33 -188 -33q-187 0 -283 86q-81 75 -81 211q0 125 79 207q98 104 293 104q173 0 267 -100q110 -113 110 -340q0 -217 -121 -338
q-104 -104 -282 -104q-84 0 -153.5 19t-149.5 65l63 133q121 -62 238 -62q89 0 141 43q45 37 67 109z" />
    <glyph glyph-name="period.denominator" horiz-adv-x="344" 
d="M170 209q55 0 87 -32.5t32 -80.5t-31.5 -78t-87.5 -30q-53 0 -84 30t-31 78t31.5 80.5t83.5 32.5z" />
    <glyph glyph-name="comma.denominator" horiz-adv-x="342" 
d="M170 209q57 0 87 -31.5t30 -81.5q0 -29 -15 -63l-75 -185l-99 27l19 123q-62 23 -62 98q0 50 29 81.5t86 31.5z" />
    <glyph glyph-name="dollar.denominator" horiz-adv-x="864" 
d="M55 590q0 120 107 180q70 40 176 51l10 103h158l8 -101q132 -6 248 -57l-45 -137q-128 43 -266 43q-112 0 -168 -25q-41 -20 -41 -51q0 -32 16 -43q21 -19 86 -27l180 -24q147 -22 221 -88q64 -61 64 -162q0 -128 -111 -199q-38 -25 -78 -38t-106 -19l-12 -117h-156
l-10 111q-157 0 -273 51l46 147q127 -45 276 -45q154 0 207 41q31 24 31 64q0 30 -19 49q-33 27 -106 35l-203 26q-112 16 -180 78q-60 57 -60 154z" />
    <glyph glyph-name="cent.denominator" horiz-adv-x="794" 
d="M377 809h147l8 -86q106 -12 197 -51l-47 -129q-105 32 -225 32q-108 0 -164 -53q-55 -55 -55 -164q0 -98 55 -153q59 -62 164 -62q115 0 225 37l45 -127q-92 -47 -195 -57l-8 -98h-147l-8 100q-121 19 -199 86q-54 50 -84.5 121.5t-30.5 152.5q0 171 115 277
q71 65 199 88z" />
    <glyph glyph-name="parenleft.denominator" horiz-adv-x="405" 
d="M354 911q-50 -74 -83 -216t-33 -263q0 -119 31.5 -244.5t90.5 -212.5l-141 -79q-164 241 -164 536q0 151 42.5 296.5t121.5 258.5z" />
    <glyph glyph-name="parenright.denominator" horiz-adv-x="405" 
d="M45 909l141 78q164 -241 164 -545q0 -308 -164 -546l-135 75q51 75 84 213.5t33 257.5q0 121 -32 250t-91 217z" />
    <glyph glyph-name="hyphen.denominator" horiz-adv-x="536" 
d="M55 508h426v-148h-426v148z" />
    <glyph glyph-name="zero.numerator" horiz-adv-x="923" 
d="M242 811q0 -193 88 -250q50 -37 131 -37t131 37q90 60 90 250q0 186 -88 248q-56 37 -133 37q-78 0 -131 -37q-88 -62 -88 -248zM868 811q0 -119 -41.5 -221t-134.5 -162q-89 -59 -231 -59q-141 0 -230 59q-176 112 -176 383q0 117 40.5 218.5t133.5 162.5q92 59 232 59
q142 0 231 -59q93 -61 134.5 -163t41.5 -218z" />
    <glyph glyph-name="one.numerator" horiz-adv-x="612" 
d="M256 530v500l-129 -43l-51 131l270 127l94 -18v-695l107 -18v-135h-430v135z" />
    <glyph glyph-name="two.numerator" horiz-adv-x="872" 
d="M375 539h413v-156h-694v152l414 286q58 43 76 68q28 36 28 80q0 57 -45 90q-44 33 -129 33q-139 0 -286 -86l-76 131q170 114 362 114q171 0 267 -80q92 -76 92 -202q0 -84 -56 -156q-42 -57 -151 -131z" />
    <glyph glyph-name="three.numerator" horiz-adv-x="892" 
d="M705 883q55 -28 88 -86q34 -55 34 -129q0 -141 -116 -222q-101 -77 -277 -77q-110 0 -202 24.5t-177 87.5l78 129q77 -47 146.5 -66.5t154.5 -19.5q111 0 168 49q41 38 41 95q0 45 -25 73q-35 35 -102 35h-280v154h264q41 0 69 28q19 27 19 56q0 37 -33 57
q-42 27 -125 27q-135 0 -270 -70l-74 125q160 98 352 98q153 0 242 -55q94 -63 94 -170q0 -90 -69 -143z" />
    <glyph glyph-name="four.numerator" horiz-adv-x="884" 
d="M573 526h-518v142l437 569h155l23 -47l-387 -508h290v221l78 33h103v-254h75v-143l-75 -13v-143h-181v143z" />
    <glyph glyph-name="five.numerator" horiz-adv-x="851" 
d="M725 1081h-449v-123q74 19 148 19q174 0 272 -82q90 -80 90 -213q0 -153 -116 -238q-96 -75 -264 -75q-106 0 -186 24.5t-165 87.5l76 129q72 -47 133 -66.5t142 -19.5q97 0 147 47q47 38 47 111q0 66 -49 106q-52 37 -141 37q-62 0 -111 -14q-38 -7 -96 -35l-99 35v426
h621v-156z" />
    <glyph glyph-name="six.numerator" horiz-adv-x="880" 
d="M250 784q0 -121 49 -190q50 -70 143 -70q96 0 144 45q47 41 47 111q0 67 -47 104q-43 35 -135 35q-113 0 -201 -35zM262 944q79 33 189 33q184 0 278 -82q86 -77 86 -215q0 -141 -96 -221q-100 -90 -277 -90q-182 0 -276 112q-100 117 -100 328q0 215 116 334
q102 108 281 108q85 0 155 -19t150 -65l-66 -133q-121 62 -237 62q-85 0 -139 -45q-42 -36 -64 -107z" />
    <glyph glyph-name="seven.numerator" horiz-adv-x="827" 
d="M532 1079h-309l-18 -125h-150v283h717v-127q-107 -110 -190 -254q-81 -140 -138 -303l-61 -170h-193l72 217q55 150 121 266q61 108 149 213z" />
    <glyph glyph-name="eight.numerator" horiz-adv-x="890" 
d="M336 791q-52 -16 -74 -52t-22 -82q0 -64 49 -98q50 -37 157 -37q114 0 162 41q43 34 43 94q0 63 -41 93q-45 36 -164 36q-74 0 -110 5zM532 938q24 9 41 33q13 19 13 47q0 35 -23 55q-36 27 -117 27q-68 0 -110 -25q-29 -22 -29 -57q0 -24 15 -43q14 -18 34 -23
q34 -10 90 -10q32 0 86 -4zM186 872q-63 55 -63 142q0 112 82 174q84 63 241 63q163 0 248 -69q72 -56 72 -158q0 -36 -16.5 -73.5t-47.5 -59.5q58 -29 86 -74q48 -62 48 -158q0 -119 -88 -200q-98 -90 -302 -90q-191 0 -288 77q-103 79 -103 213q0 83 37 138q31 44 94 75z
" />
    <glyph glyph-name="nine.numerator" horiz-adv-x="880" 
d="M631 836q0 134 -56 200q-51 60 -137 60q-116 0 -162 -66q-28 -39 -28 -90q0 -64 39 -98q44 -41 143 -41q119 0 201 35zM618 676q-75 -33 -188 -33q-187 0 -283 86q-81 72 -81 211q0 126 79 205q100 106 293 106q170 0 267 -100q110 -113 110 -340q0 -220 -121 -338
q-101 -104 -282 -104q-84 0 -153.5 19t-149.5 65l63 133q121 -62 238 -62q88 0 141 41q46 37 67 111z" />
    <glyph glyph-name="parenleft.numerator" horiz-adv-x="405" 
d="M354 1296q-50 -75 -83 -217t-33 -262t31.5 -245.5t90.5 -213.5l-141 -77q-164 241 -164 536q0 150 42.5 295t121.5 258z" />
    <glyph glyph-name="parenright.numerator" horiz-adv-x="405" 
d="M45 1292l141 78q164 -238 164 -543q0 -150 -42.5 -291t-121.5 -255l-135 73q51 76 84 214.5t33 258.5q0 119 -32 248t-91 217z" />
    <glyph glyph-name="cent.numerator" horiz-adv-x="794" 
d="M377 1194h147l8 -86q100 -12 197 -53l-47 -127q-107 30 -225 30q-111 0 -164 -53q-55 -55 -55 -162q0 -100 55 -155q60 -60 164 -60q113 0 225 35l45 -127q-92 -47 -195 -57l-8 -98h-147l-8 100q-128 23 -199 88q-54 48 -84.5 119.5t-30.5 154.5q0 168 115 277
q73 63 199 86z" />
    <glyph glyph-name="dollar.numerator" horiz-adv-x="864" 
d="M55 973q0 120 107 180q69 43 176 51l10 103h158l8 -99q135 -9 248 -59l-45 -135q-130 41 -266 41q-112 0 -168 -25q-41 -20 -41 -51q0 -30 16 -43q21 -16 86 -27l180 -24q143 -18 221 -88q64 -61 64 -162q0 -129 -111 -199q-77 -48 -184 -57l-12 -115h-156l-10 111
q-163 0 -273 51l46 145q122 -43 276 -43q80 0 128.5 8t78.5 31q31 24 31 66q0 31 -19 47q-36 29 -106 37l-203 26q-111 14 -180 76q-60 60 -60 154z" />
    <glyph glyph-name="hyphen.numerator" horiz-adv-x="536" 
d="M55 920h426v-148h-426v148z" />
    <glyph glyph-name="comma.numerator" horiz-adv-x="342" 
d="M170 594q57 0 87 -31.5t30 -81.5q0 -29 -15 -63l-75 -185l-99 27l19 123q-62 23 -62 98q0 50 29 81.5t86 31.5z" />
    <glyph glyph-name="period.numerator" horiz-adv-x="344" 
d="M170 588q55 0 87 -32.5t32 -80.5t-31.5 -78t-87.5 -30q-53 0 -84 30t-31 78t31.5 80.5t83.5 32.5z" />
    <glyph glyph-name="Cedilla" horiz-adv-x="587" 
d="M174 18h148l-11 -94q86 0 135 -43q43 -37 43 -110q0 -94 -83 -154q-85 -60 -256 -90l-35 96q81 22 131 58q55 38 55 92q0 21 -14 32q-22 11 -49 11h-39l-25 20v182z" />
    <glyph glyph-name="Ogonek" horiz-adv-x="485" 
d="M246 25l96 -27q-23 -12 -49 -47q-17 -35 -17 -76q0 -48 27 -94q29 -47 80 -76l-64 -78q-108 29 -165 82q-52 55 -52 139q0 65 39 113q38 44 105 64z" />
    <glyph glyph-name="Imacron" horiz-adv-x="516" 
d="M127 1229h262v-1229h-262v1229zM-84 1534h690v-172h-690v172z" />
    <glyph glyph-name="a.sc" horiz-adv-x="1374" 
d="M557 1106h289l475 -1106h-260l-78 178h-596l-80 -178h-252zM680 881l-215 -512h442l-207 512h-20z" />
    <glyph glyph-name="afii10055" horiz-adv-x="530" 
d="M127 1229h262v-1229h-262v1229z" />
    <glyph glyph-name="b.sc" horiz-adv-x="1232" 
d="M127 1106h594q190 0 291 -88q86 -73 86 -201q0 -83 -37 -141q-23 -39 -68 -70v-8q61 -27 103 -78q61 -73 61 -176q0 -150 -108 -244q-112 -100 -299 -100h-623v1106zM381 487v-288h373q72 0 116 47q37 37 37 100q0 58 -35 98q-46 43 -116 43h-375zM381 907v-233h354
q55 0 84 37q29 32 29 84q0 46 -33 79q-38 33 -96 33h-338z" />
    <glyph glyph-name="c.sc" horiz-adv-x="1208" 
d="M1128 1036l-69 -182q-160 66 -330 66q-90 0 -167 -25.5t-122 -71.5q-98 -101 -98 -270q0 -161 94 -258q45 -50 123.5 -77.5t169.5 -27.5q169 0 330 68l71 -182q-184 -94 -413 -94q-296 0 -467 159q-164 151 -164 412q0 134 45.5 242t128.5 180q85 72 203 110.5t254 38.5
q234 0 411 -88z" />
    <glyph glyph-name="d.sc" horiz-adv-x="1261" 
d="M127 1106h457q285 0 434 -131q166 -147 166 -420q0 -266 -158 -418q-146 -137 -442 -137h-457v1106zM383 905v-702h225q149 0 228 73q96 89 96 279q0 172 -88 266q-81 84 -250 84h-211z" />
    <glyph glyph-name="e.sc" horiz-adv-x="1159" 
d="M127 1106h926v-201h-672v-229h594v-199h-594v-274h692v-203h-946v1106z" />
    <glyph glyph-name="f.sc" horiz-adv-x="1116" 
d="M127 1106h911v-203h-657v-268h559v-199h-559v-436h-254v1106z" />
    <glyph glyph-name="g.sc" horiz-adv-x="1296" 
d="M676 492v172h510v-664h-176l-35 63q-133 -81 -320 -81q-277 0 -428 165q-149 152 -149 404q0 127 48 234.5t134 183.5q176 155 463 155q237 0 424 -100l-78 -172q-173 70 -346 70q-172 0 -274 -86q-117 -94 -117 -285q0 -141 76 -246q43 -55 111 -87t151 -32
q141 0 268 62v223z" />
    <glyph glyph-name="h.sc" horiz-adv-x="1320" 
d="M127 1106h254v-420h561v420h252v-1106h-252v481h-561v-481h-254v1106z" />
    <glyph glyph-name="i.sc" horiz-adv-x="507" 
d="M127 1106h254v-1106h-254v1106z" />
    <glyph glyph-name="j.sc" horiz-adv-x="995" 
d="M637 1106h254v-655q0 -220 -141 -351q-130 -118 -371 -118q-189 0 -332 69l64 180q121 -47 256 -47q142 0 206 70q64 67 64 203v649z" />
    <glyph glyph-name="k.sc" horiz-adv-x="1290" 
d="M127 1106h258v-416h227l310 416h284l-391 -512l412 -594h-293l-326 489h-223v-489h-258v1106z" />
    <glyph glyph-name="l.sc" horiz-adv-x="1118" 
d="M127 1106h256v-907h655v-199h-911v1106z" />
    <glyph glyph-name="m.sc" horiz-adv-x="1636" 
d="M127 1106h356l336 -852l340 852h350v-1106h-247v791h-11l-313 -791h-256l-311 791h-9v-791h-235v1106z" />
    <glyph glyph-name="n.sc" horiz-adv-x="1318" 
d="M127 1106h233l592 -744v744h240v-1106h-234l-593 752v-752h-238v1106z" />
    <glyph glyph-name="o.sc" horiz-adv-x="1351" 
d="M676 1124q132 0 245 -42t189 -117t118 -181.5t42 -232.5q0 -253 -160 -410q-76 -75 -189 -117t-245 -42t-245 42t-189 117q-158 155 -158 410q0 126 41 233t117 181q76 75 189 117t245 42zM676 926q-154 0 -244 -90q-92 -92 -92 -285q0 -189 92 -281q90 -90 244 -90
q153 0 246 90q92 92 92 281q0 193 -92 285q-93 90 -246 90z" />
    <glyph glyph-name="p.sc" horiz-adv-x="1212" 
d="M127 1106h565q205 0 322 -117q56 -53 88.5 -128.5t32.5 -160.5q0 -169 -111 -280q-133 -127 -348 -127h-295v-293h-254v1106zM381 905v-411h272q107 0 164 51q62 59 62 157q0 86 -50 142q-55 61 -163 61h-285z" />
    <glyph glyph-name="q.sc" horiz-adv-x="1351" 
d="M1196 29l29 -170q-86 -25 -146 -25q-85 0 -155 43q-65 36 -127 115q-65 -10 -121 -10q-132 0 -245 42t-189 117q-158 155 -158 410q0 126 41 233t117 181q76 75 189 117t245 42t245 -42t189 -117t118 -181.5t42 -232.5q0 -161 -68 -285q-62 -117 -176 -188q27 -27 59 -41
q30 -12 72 -12q25 0 39 4zM676 926q-154 0 -244 -90q-92 -92 -92 -285q0 -189 92 -281q90 -90 244 -90q153 0 246 90q92 92 92 281q0 193 -92 285q-93 90 -246 90z" />
    <glyph glyph-name="r.sc" horiz-adv-x="1222" 
d="M127 1106h567q221 0 334 -113q107 -107 107 -278q0 -118 -62 -215q-60 -88 -166 -135l223 -365h-274l-186 326h-287v-326h-256v1106zM383 907v-383h303q87 0 143 56q50 47 50 139q0 78 -41 125q-50 63 -156 63h-299z" />
    <glyph glyph-name="s.sc" horiz-adv-x="1239" 
d="M1096 1042l-70 -188q-198 66 -389 66q-184 0 -250 -39q-49 -22 -49 -70q0 -38 33 -61q40 -25 123 -37l282 -41q118 -18 188.5 -46.5t120.5 -82.5q74 -77 74 -203q0 -165 -137 -258q-151 -100 -444 -100q-148 0 -262 19t-232 65l59 194q226 -70 424 -70q201 0 279 46
q59 30 59 96q0 57 -41 80q-36 23 -125 37l-293 40q-181 23 -260 86q-98 79 -98 216q0 149 115 233q137 100 422 100q253 0 471 -82z" />
    <glyph glyph-name="t.sc" horiz-adv-x="1222" 
d="M59 1106h1104v-201h-424v-905h-258v905h-422v201z" />
    <glyph glyph-name="u.sc" horiz-adv-x="1308" 
d="M127 1106h256v-629q0 -142 72 -217q33 -34 86.5 -55t113.5 -21q137 0 205 74q66 72 66 219v629h256v-617q0 -116 -38.5 -213.5t-105.5 -160.5q-67 -62 -168 -97.5t-215 -35.5q-235 0 -381 127q-147 131 -147 380v617z" />
    <glyph glyph-name="v.sc" horiz-adv-x="1363" 
d="M55 1106h271l340 -873h20l354 873h269l-498 -1106h-285z" />
    <glyph glyph-name="w.sc" horiz-adv-x="1898" 
d="M55 1106h269l235 -852h10l240 852h283l239 -852h12l244 852h256l-354 -1106h-322l-217 768h-12l-219 -768h-322z" />
    <glyph glyph-name="x.sc" horiz-adv-x="1302" 
d="M88 1106h297l270 -399l277 399h293l-402 -535l424 -571h-299l-301 436l-301 -436h-291l428 573z" />
    <glyph glyph-name="y.sc" horiz-adv-x="1335" 
d="M55 1106h285l311 -617h15l335 617h279l-496 -842v-264h-252v260z" />
    <glyph glyph-name="z.sc" horiz-adv-x="1120" 
d="M1055 207v-207h-989v164l661 745l-231 -8h-400v205h953v-154l-664 -755l227 10h443z" />
    <glyph glyph-name="idotaccent.sc" horiz-adv-x="507" 
d="M127 1106h254v-1106h-254v1106zM254 1499q69 0 108 -38t39 -99q0 -59 -39 -97t-108 -38q-66 0 -103.5 38t-37.5 97q0 61 37.5 99t103.5 38z" />
    <glyph glyph-name="afii10065.sc" horiz-adv-x="1374" 
d="M557 1106h289l475 -1106h-260l-78 178h-596l-80 -178h-252zM680 881l-215 -512h442l-207 512h-20z" />
    <glyph glyph-name="afii10066.sc" horiz-adv-x="1204" 
d="M127 1106h883v-201h-633v-164h321q209 0 318 -98q110 -95 110 -266t-122 -277q-115 -100 -310 -100h-567v1106zM377 545v-346h309q93 0 145 55q46 46 46 121q0 83 -50 127q-46 43 -133 43h-317z" />
    <glyph glyph-name="afii10067.sc" horiz-adv-x="1232" 
d="M127 1106h594q190 0 291 -88q86 -73 86 -201q0 -83 -37 -141q-23 -39 -68 -70v-8q61 -27 103 -78q61 -73 61 -176q0 -150 -108 -244q-112 -100 -299 -100h-623v1106zM381 487v-288h373q72 0 116 47q37 37 37 100q0 58 -35 98q-46 43 -116 43h-375zM381 907v-233h354
q55 0 84 37q29 32 29 84q0 46 -33 79q-38 33 -96 33h-338z" />
    <glyph glyph-name="afii10068.sc" horiz-adv-x="1114" 
d="M127 1106h901v-207h-647v-899h-254v1106z" />
    <glyph glyph-name="afii10069.sc" horiz-adv-x="1386" 
d="M352 1106h860v-901h113v-424h-217l-21 219h-790l-21 -219h-215v420h43q63 0 93 30q38 38 47 115zM567 903l-82 -586q-9 -69 -36 -112h507v698h-389z" />
    <glyph glyph-name="afii10070.sc" horiz-adv-x="1159" 
d="M127 1106h926v-201h-672v-229h594v-199h-594v-274h692v-203h-946v1106z" />
    <glyph glyph-name="afii10071.sc" horiz-adv-x="1159" 
d="M127 1106h926v-201h-672v-229h594v-199h-594v-274h692v-203h-946v1106zM373 1489q70 0 110.5 -40t40.5 -103q0 -61 -40.5 -100.5t-110.5 -39.5q-69 0 -109.5 40t-40.5 100q0 63 40.5 103t109.5 40zM821 1489q72 0 112 -40t40 -103q0 -61 -40.5 -100.5t-111.5 -39.5
q-69 0 -109 40t-40 100q0 63 40 103t109 40z" />
    <glyph glyph-name="afii10072.sc" horiz-adv-x="1822" 
d="M786 1106h252v-418h164l125 254q46 94 98 129q65 47 168 47q79 0 152 -18l-21 -176h-59q-45 0 -76 -17q-32 -19 -49 -53l-133 -256l352 -598h-274l-268 485h-179v-485h-252v485h-180l-268 -485h-277l355 598l-133 256q-25 38 -43 49q-35 21 -82 21h-60l-22 176
q71 18 153 18q105 0 164 -45q62 -42 103 -131l125 -254h165v418z" />
    <glyph glyph-name="afii10073.sc" horiz-adv-x="1222" 
d="M301 700h410q57 0 88 35q26 33 26 70q0 57 -47 84q-52 37 -215 37q-165 0 -385 -72l-61 172q219 98 469 98q279 0 399 -98q88 -73 88 -207q0 -62 -26 -110q-29 -49 -66 -72v-8q70 -36 113 -88q53 -71 53 -172q0 -180 -141 -283q-141 -104 -422 -104q-154 0 -275.5 26.5
t-242.5 85.5l71 180q237 -88 447 -88q173 0 250 58q61 45 61 125q0 58 -39 94q-41 41 -119 41h-436v196z" />
    <glyph glyph-name="afii10074.sc" horiz-adv-x="1335" 
d="M127 1106h252v-741l598 741h231v-1106h-250v737l-602 -737h-229v1106z" />
    <glyph glyph-name="afii10075.sc" horiz-adv-x="1335" 
d="M127 1106h252v-741l598 741h231v-1106h-250v737l-602 -737h-229v1106zM356 1448l172 18q8 -56 47 -92q36 -28 93 -28q58 0 90 28q35 28 47 92l172 -18q-15 -131 -96 -203q-80 -71 -213 -71t-217 75q-80 71 -95 199z" />
    <glyph glyph-name="afii10076.sc" horiz-adv-x="1284" 
d="M127 1106h256v-420h227l172 279q46 79 123 120q63 35 156 35q66 0 133 -20l-27 -185h-45q-52 0 -82 -12q-32 -16 -57 -51l-166 -254l393 -598h-288l-308 485h-231v-485h-256v1106z" />
    <glyph glyph-name="afii10077.sc" horiz-adv-x="1386" 
d="M406 1106h854v-1106h-256v905h-381l-84 -626q-18 -142 -101 -218q-79 -73 -213 -73q-100 0 -198 28l39 187q61 -17 104 -17q56 0 82 29q32 32 41 94z" />
    <glyph glyph-name="afii10078.sc" horiz-adv-x="1636" 
d="M127 1106h356l336 -852l340 852h350v-1106h-247v791h-11l-313 -791h-256l-311 791h-9v-791h-235v1106z" />
    <glyph glyph-name="afii10079.sc" horiz-adv-x="1320" 
d="M127 1106h254v-420h561v420h252v-1106h-252v481h-561v-481h-254v1106z" />
    <glyph glyph-name="afii10080.sc" horiz-adv-x="1351" 
d="M676 1124q132 0 245 -42t189 -117t118 -181.5t42 -232.5q0 -253 -160 -410q-76 -75 -189 -117t-245 -42t-245 42t-189 117q-158 155 -158 410q0 126 41 233t117 181q76 75 189 117t245 42zM676 926q-154 0 -244 -90q-92 -92 -92 -285q0 -189 92 -281q90 -90 244 -90
q153 0 246 90q92 92 92 281q0 193 -92 285q-93 90 -246 90z" />
    <glyph glyph-name="afii10081.sc" horiz-adv-x="1312" 
d="M127 1106h1059v-1106h-252v901h-553v-901h-254v1106z" />
    <glyph glyph-name="afii10082.sc" horiz-adv-x="1212" 
d="M127 1106h565q205 0 322 -117q56 -53 88.5 -128.5t32.5 -160.5q0 -169 -111 -280q-133 -127 -348 -127h-295v-293h-254v1106zM381 905v-411h272q107 0 164 51q62 59 62 157q0 86 -50 142q-55 61 -163 61h-285z" />
    <glyph glyph-name="afii10083.sc" horiz-adv-x="1208" 
d="M1128 1036l-69 -182q-160 66 -330 66q-90 0 -167 -25.5t-122 -71.5q-98 -101 -98 -270q0 -161 94 -258q45 -50 123.5 -77.5t169.5 -27.5q169 0 330 68l71 -182q-184 -94 -413 -94q-296 0 -467 159q-164 151 -164 412q0 134 45.5 242t128.5 180q85 72 203 110.5t254 38.5
q234 0 411 -88z" />
    <glyph glyph-name="afii10084.sc" horiz-adv-x="1222" 
d="M59 1106h1104v-201h-424v-905h-258v905h-422v201z" />
    <glyph glyph-name="afii10085.sc" horiz-adv-x="1292" 
d="M55 1106h285l319 -631h13l295 631h266l-451 -881q-37 -72 -68.5 -115t-76.5 -73q-74 -53 -207 -53q-72 0 -143 18l20 182h90q49 0 74 17q31 16 53 69z" />
    <glyph glyph-name="afii10086.sc" horiz-adv-x="1699" 
d="M721 1001v123h256v-123h156q217 0 342 -110q67 -57 106 -143t39 -187q0 -191 -117 -311q-134 -131 -370 -131h-156v-119h-256v119h-154q-236 0 -370 131q-117 117 -117 311q0 212 143 330q131 110 344 110h154zM721 803h-156q-117 0 -178 -70q-59 -69 -59 -172
q0 -107 55 -168q58 -71 182 -71h156v481zM977 803v-481h158q125 0 186 77q49 61 49 162q0 109 -53 168q-59 74 -182 74h-158z" />
    <glyph glyph-name="afii10087.sc" horiz-adv-x="1302" 
d="M88 1106h297l270 -399l277 399h293l-402 -535l424 -571h-299l-301 436l-301 -436h-291l428 573z" />
    <glyph glyph-name="afii10088.sc" horiz-adv-x="1337" 
d="M127 1106h260v-905h514v905h260v-905h111v-418h-215l-23 217h-907v1106z" />
    <glyph glyph-name="afii10089.sc" horiz-adv-x="1257" 
d="M86 1106h256v-361q0 -138 72 -210q71 -68 209 -68q143 0 251 57v582h256v-1106h-256v324q-129 -60 -274 -60q-252 0 -383 125t-131 359v358z" />
    <glyph glyph-name="afii10090.sc" horiz-adv-x="1787" 
d="M127 1106h250v-905h391v905h250v-905h393v905h250v-1106h-1534v1106z" />
    <glyph glyph-name="afii10091.sc" horiz-adv-x="1837" 
d="M127 1106h250v-905h391v905h250v-905h393v905h250v-905h111v-418h-218l-20 217h-1407v1106z" />
    <glyph glyph-name="afii10092.sc" horiz-adv-x="1327" 
d="M53 1106h469v-322h287q233 0 348 -127q94 -97 94 -266q0 -171 -118 -280q-117 -111 -322 -111h-543v905l-215 23v178zM522 584v-385h273q97 0 153 53q53 53 53 139q0 96 -49 139q-54 54 -161 54h-269z" />
    <glyph glyph-name="afii10093.sc" horiz-adv-x="1599" 
d="M127 1106h254v-322h287q230 0 348 -127q94 -97 94 -266q0 -170 -119 -280q-117 -111 -321 -111h-543v1106zM381 584v-385h270q101 0 154 53q55 52 55 139q0 93 -49 139q-54 54 -164 54h-266zM1219 1106h254v-1106h-254v1106z" />
    <glyph glyph-name="afii10094.sc" horiz-adv-x="1185" 
d="M127 1106h254v-322h287q232 0 350 -127q92 -98 92 -264q0 -171 -117 -282q-120 -111 -323 -111h-543v1106zM381 584v-385h272q98 0 154 53q53 53 53 139q0 95 -47 139q-57 54 -164 54h-268z" />
    <glyph glyph-name="afii10095.sc" horiz-adv-x="1208" 
d="M299 487v193h555q-21 85 -76 143q-45 46 -123.5 71.5t-167.5 25.5q-160 0 -327 -66l-74 182q177 88 414 88q279 0 454 -149q174 -147 174 -422q0 -261 -161 -412q-174 -159 -469 -159q-230 0 -414 94l76 180q171 -68 327 -68q90 0 170 28t125 77q72 76 84 194h-567z" />
    <glyph glyph-name="afii10096.sc" horiz-adv-x="1732" 
d="M127 1106h254v-440h158q23 180 139 305q150 153 414 153q263 0 407 -147q152 -152 152 -422q0 -258 -133 -403q-147 -170 -426 -170q-273 0 -418 157q-113 123 -137 320h-156v-459h-254v1106zM784 553q0 -170 70 -264q79 -109 238 -109q162 0 239 109q66 89 66 266
q0 183 -78 276q-83 95 -227 95q-152 0 -232 -99q-76 -98 -76 -274z" />
    <glyph glyph-name="afii10097.sc" horiz-adv-x="1241" 
d="M1122 1106v-1106h-256v326h-313l-186 -326h-277l225 365q-103 47 -157 122q-72 97 -72 228q0 175 109 278q113 113 333 113h594zM866 907h-325q-100 0 -158 -61q-41 -44 -41 -127q0 -84 45 -135q57 -60 148 -60h331v383z" />
    <glyph glyph-name="afii10098.sc" horiz-adv-x="1114" 
d="M127 1106h686l21 184h196v-391h-649v-899h-254v1106z" />
    <glyph glyph-name="afii10099.sc" horiz-adv-x="1546" 
d="M57 1106h1037v-195h-392v-188q133 90 293 90q208 0 326 -106q131 -115 131 -349v-290q0 -136 -70 -240t-192 -166l-125 115q133 127 133 295v276q0 137 -63 203q-66 63 -174 63q-76 0 -136.5 -20t-122.5 -64v-530h-258v911h-387v195z" />
    <glyph glyph-name="afii10100.sc" horiz-adv-x="1114" 
d="M127 1106h901v-207h-647v-899h-254v1106zM508 1257l133 318l193 -90l-166 -297z" />
    <glyph glyph-name="afii10101.sc" horiz-adv-x="1208" 
d="M903 680v-193h-567q8 -115 84 -194q45 -49 125 -77t170 -28q157 0 325 68l76 -180q-181 -94 -411 -94q-295 0 -469 159q-77 73 -120.5 178t-43.5 234q0 135 46 242.5t130 179.5q175 149 454 149q237 0 414 -88l-74 -182q-167 66 -327 66q-90 0 -168 -25.5t-123 -71.5
q-58 -58 -76 -143h555z" />
    <glyph glyph-name="afii10102.sc" horiz-adv-x="1239" 
d="M1096 1042l-70 -188q-198 66 -389 66q-184 0 -250 -39q-49 -22 -49 -70q0 -38 33 -61q40 -25 123 -37l282 -41q118 -18 188.5 -46.5t120.5 -82.5q74 -77 74 -203q0 -165 -137 -258q-151 -100 -444 -100q-148 0 -262 19t-232 65l59 194q226 -70 424 -70q201 0 279 46
q59 30 59 96q0 57 -41 80q-36 23 -125 37l-293 40q-181 23 -260 86q-98 79 -98 216q0 149 115 233q137 100 422 100q253 0 471 -82z" />
    <glyph glyph-name="afii10103.sc" horiz-adv-x="507" 
d="M127 1106h254v-1106h-254v1106z" />
    <glyph glyph-name="afii10104.sc" horiz-adv-x="507" 
d="M127 1106h254v-1106h-254v1106zM31 1481q70 0 110.5 -40.5t40.5 -103.5q0 -60 -40.5 -99.5t-110.5 -39.5q-69 0 -109.5 39.5t-40.5 99.5q0 63 40.5 103.5t109.5 40.5zM479 1481q71 0 111.5 -40.5t40.5 -103.5q0 -61 -40.5 -100t-111.5 -39q-69 0 -109 39.5t-40 99.5
q0 63 40 103.5t109 40.5z" />
    <glyph glyph-name="afii10105.sc" horiz-adv-x="995" 
d="M637 1106h254v-655q0 -220 -141 -351q-130 -118 -371 -118q-189 0 -332 69l64 180q121 -47 256 -47q142 0 206 70q64 67 64 203v649z" />
    <glyph glyph-name="afii10106.sc" horiz-adv-x="2066" 
d="M406 1106h854v-322h284q230 0 348 -127q95 -98 95 -264q0 -172 -119 -282q-117 -111 -322 -111h-542v905h-381l-84 -626q-18 -142 -101 -218q-79 -73 -215 -73q-113 0 -196 28l39 187q61 -17 104 -17q56 0 82 29q32 32 41 94zM1260 584v-385h268q100 0 153 53
q56 53 56 139q0 93 -49 139q-54 54 -164 54h-264z" />
    <glyph glyph-name="afii10107.sc" horiz-adv-x="1986" 
d="M127 1106h254v-420h547v420h252v-322h284q233 0 348 -127q95 -98 95 -264q0 -172 -119 -282q-117 -111 -322 -111h-538v481h-547v-481h-254v1106zM1180 584v-385h270q98 0 154 53q53 53 53 139q0 96 -49 139q-54 54 -162 54h-266z" />
    <glyph glyph-name="afii10108.sc" horiz-adv-x="1546" 
d="M57 1106h1037v-195h-392v-188q133 90 293 90q208 0 326 -106q131 -115 131 -349v-358h-254v348q0 137 -63 203q-66 63 -174 63q-77 0 -137 -19.5t-122 -64.5v-530h-258v911h-387v195z" />
    <glyph glyph-name="afii10109.sc" horiz-adv-x="1284" 
d="M127 1106h256v-420h227l172 279q46 79 123 120q63 35 156 35q66 0 133 -20l-27 -185h-45q-52 0 -82 -12q-32 -16 -57 -51l-166 -254l393 -598h-288l-308 485h-231v-485h-256v1106zM526 1212l133 318l193 -90l-166 -297z" />
    <glyph glyph-name="afii10110.sc" horiz-adv-x="1292" 
d="M55 1106h285l319 -631h13l295 631h266l-451 -881q-37 -72 -68.5 -115t-76.5 -73q-74 -53 -207 -53q-72 0 -143 18l20 182h90q49 0 74 17q31 16 53 69zM354 1430l172 18q8 -56 47 -92q37 -29 93 -29q57 0 90 29q35 28 47 92l172 -18q-15 -131 -96 -203t-213 -72t-217 76
q-80 71 -95 199z" />
    </font>
</defs>
</svg>
